<?xml version="1.0" encoding="iso-8859-1"?>
<!-- Generator: Adobe Illustrator 19.0.0, SVG Export Plug-In . SVG Version: 6.00 Build 0)  -->
<svg version="1.1" id="Layer_1" xmlns="http://www.w3.org/2000/svg" xmlns:xlink="http://www.w3.org/1999/xlink" x="0px" y="0px"
	 viewBox="0 0 392.598 392.598" style="enable-background:new 0 0 392.598 392.598;" xml:space="preserve">
<path style="fill:#FFFFFF;" d="M21.818,359.822c0,6.012,4.848,10.925,10.925,10.925h327.111c6.012,0,10.925-4.848,10.925-10.925
	V109.899H21.818V359.822z M196.299,182.82c77.705,0,140.929,63.224,140.929,140.929c0,6.012-4.848,10.925-10.925,10.925H66.23
	c-6.012,0-10.925-4.848-10.925-10.925C55.37,246.109,118.594,182.82,196.299,182.82z"/>
<path style="fill:#FFC10D;" d="M43.604,131.685v9.115h44.412c6.012,0,10.925,4.848,10.925,10.925
	c0,6.012-4.848,10.925-10.925,10.925H43.604v21.786H55.24c6.012,0,10.925,4.848,10.925,10.925s-4.848,10.925-10.925,10.925H43.604
	v142.739h305.325V131.814H43.604V131.685z"/>
<path style="fill:#56ACE0;" d="M370.78,32.711c0-6.012-4.848-10.925-10.925-10.925H32.743c-6.012,0-10.925,4.848-10.925,10.925
	v55.337H370.78L370.78,32.711L370.78,32.711z"/>
<path style="fill:#FFFFFF;" d="M150.077,312.889c4.913-20.945,23.79-36.655,46.222-36.655c4.784,0,9.503,0.711,13.834,2.069
	l22.303-40.016c2.909-5.236,9.568-7.176,14.869-4.267c5.236,2.909,7.176,9.568,4.267,14.869l-22.562,40.469
	c6.594,6.271,11.378,14.352,13.511,23.467h72.404c-5.56-60.574-56.63-108.283-118.626-108.283S83.168,252.25,77.673,312.824
	L150.077,312.889L150.077,312.889z"/>
<path style="fill:#56ACE0;" d="M173.026,312.889h46.61c-4.073-8.727-12.994-14.869-23.273-14.869
	C186.02,298.085,177.164,304.162,173.026,312.889z"/>
<g>
	<path style="fill:#194F82;" d="M66.23,334.675h260.073c6.012,0,10.925-4.849,10.925-10.925
		c0-77.705-63.224-140.929-140.929-140.929S55.37,246.044,55.37,323.75C55.37,329.762,60.218,334.675,66.23,334.675z
		 M172.962,312.889c4.073-8.727,12.994-14.869,23.273-14.869c10.343,0.065,19.265,6.077,23.337,14.869H172.962z M196.299,204.606
		c62.061,0,113.131,47.709,118.626,108.283h-72.404c-2.133-9.115-6.982-17.261-13.511-23.467l22.562-40.469
		c2.909-5.236,1.034-11.895-4.267-14.869c-5.236-2.909-11.895-1.034-14.869,4.267l-22.303,40.016
		c-4.396-1.293-9.051-2.069-13.834-2.069c-22.432,0-41.244,15.709-46.222,36.655H77.673
		C83.168,252.315,134.238,204.606,196.299,204.606z"/>
	<path style="fill:#194F82;" d="M359.855,0H32.743C14.707,0,0.032,14.675,0.032,32.711v327.111
		c0,18.101,14.675,32.776,32.711,32.776h327.111c18.036,0,32.711-14.675,32.711-32.711V32.711C392.566,14.675,377.891,0,359.855,0z
		 M21.818,32.711c0-6.012,4.848-10.925,10.925-10.925h327.111c6.012,0,10.925,4.848,10.925,10.925v55.337H21.818V32.711z
		 M370.78,359.822L370.78,359.822c0,6.012-4.848,10.925-10.925,10.925H32.743c-6.012,0-10.925-4.848-10.925-10.925V109.899H370.78
		L370.78,359.822L370.78,359.822z"/>
	<path style="fill:#194F82;" d="M341.947,34.133c-4.267-4.267-11.119-4.267-15.451,0l-5.172,5.172l-5.172-5.172
		c-4.267-4.267-11.119-4.267-15.451,0c-4.267,4.267-4.267,11.119,0,15.451l5.172,5.172l-5.172,5.172
		c-4.267,4.267-4.267,11.119,0,15.451c4.267,4.267,11.119,4.267,15.451,0l5.172-5.172l5.172,5.172
		c4.267,4.267,11.119,4.267,15.451,0c4.267-4.267,4.267-11.119,0-15.451l-5.172-5.172l5.172-5.172
		C346.214,45.382,346.214,38.465,341.947,34.133z"/>
	<path style="fill:#194F82;" d="M262.885,43.895h-36.461c-6.012,0-10.925,4.848-10.925,10.925c0,6.012,4.978,10.925,10.99,10.925
		h36.461c6.012,0,10.925-4.848,10.925-10.925S268.962,43.895,262.885,43.895z"/>
</g>
<g>
</g>
<g>
</g>
<g>
</g>
<g>
</g>
<g>
</g>
<g>
</g>
<g>
</g>
<g>
</g>
<g>
</g>
<g>
</g>
<g>
</g>
<g>
</g>
<g>
</g>
<g>
</g>
<g>
</g>
</svg>
