<svg xmlns="http://www.w3.org/2000/svg" viewBox="0 0 24 24"><path fill="#333" d="M12 2c3.5 0 6 2 6 2l1.5-4c.333 3.665.5 7.82.5 11.5V15c0 2.94 0 6 1 9H3c1-3 1-6.06 1-9v-3.5c0-3.68.167-7.835.5-11.5L6 4s2.5-2 6-2z"/><path fill="#010101" d="M3.073 23.75c-.026.083-.045.167-.073.25h18c-.028-.083-.047-.167-.073-.25H3.073z" opacity=".2"/><path fill="#FFF" d="M6 4.25s2.5-2 6-2 6 2 6 2l1.5-4c.333 3.665.5 7.82.5 11.5v-.25c0-3.68-.167-7.835-.5-11.5L18 4s-2.5-2-6-2-6 2-6 2L4.5 0C4.167 3.665 4 7.82 4 11.5v.25c0-3.68.167-7.835.5-11.5l1.5 4z" opacity=".2"/><path fill="#F3F3F3" d="M16.817 10.113a.503.503 0 00-.415-.103l-2.5.5a.5.5 0 00-.402.49c0 .598.703 1 1.75 1S17 11.598 17 11v-.5a.502.502 0 00-.183-.387zM10.098 10.51l-2.5-.5A.502.502 0 007 10.5v.5c0 .598.703 1 1.75 1s1.75-.402 1.75-1a.5.5 0 00-.402-.49z"/><path fill="#FCD3C0" d="M7 15.875C7 17 8.154 20 12 20s5-3 5-4.125V14l-3.636.375L12 15.5l-1.364-1.125L7 14v1.875z"/><path fill="#010101" d="M16.817 10.113a.503.503 0 00-.415-.103l-2.5.5a.5.5 0 00-.402.49c0 .047.012.09.02.135a.495.495 0 01.382-.375l2.5-.5a.502.502 0 01.598.49v-.25a.502.502 0 00-.183-.387zM7.598 10.26l2.5.5c.194.039.337.189.382.375.008-.045.02-.088.02-.135a.5.5 0 00-.402-.49l-2.5-.5A.502.502 0 007 10.5v.25a.502.502 0 01.598-.49zM13.364 14.375L12 15.5l-1.364-1.125L7 14v.25l3.636.375L12 15.75l1.364-1.125L17 14.25V14z" opacity=".1"/><path fill="#D8A580" d="M13 18h-2a.5.5 0 1 1 0-1h2a.5.5 0 1 1 0 1z"/><path fill="#010101" d="M10.5 17.5a.5.5 0 0 1 .5-.5h2a.5.5 0 0 1 .5.5h-3z" opacity=".1"/><linearGradient id="a" x1="1.109" x2="23.855" y1="7.271" y2="17.878" gradientUnits="userSpaceOnUse"><stop offset="0" stop-color="#FFF" stop-opacity=".2"/><stop offset="1" stop-color="#FFF" stop-opacity="0"/></linearGradient><path fill="url(#a)" d="M12 2c3.5 0 6 2 6 2l1.5-4c.333 3.665.5 7.82.5 11.5V15c0 2.94 0 6 1 9H3c1-3 1-6.06 1-9v-3.5c0-3.68.167-7.835.5-11.5L6 4s2.5-2 6-2z"/></svg>