<svg xmlns="http://www.w3.org/2000/svg" viewBox="0 0 24 24"><path fill="#FCD3C0" d="M14.402 22.318C13.907 22.109 13.112 22 12 22s-1.907.109-2.402.318c-1.612-.454-3.424-3.551-3.946-5.945.044.024.083.054.128.076 1.598.782 3.309-.106 4.684-.819.598-.31 1.215-.63 1.536-.63s.938.32 1.536.63c.995.516 2.166 1.124 3.343 1.124.45 0 .9-.088 1.34-.305.046-.022.085-.052.129-.076-.522 2.394-2.334 5.491-3.946 5.945z"/><path fill="#D8A580" d="M19.5 15.151a.5.5 0 1 0-1 0c0 2.395-2.192 6.63-4.098 7.167C13.907 22.109 13.112 22 12 22s-1.907.109-2.402.318C7.692 21.78 5.5 17.546 5.5 15.15a.5.5 0 1 0-1 0c0 2.701 2.285 7.076 4.535 8.022.169.547 1.159.827 2.965.827s2.796-.28 2.965-.827c2.25-.946 4.535-5.32 4.535-8.022z"/><path fill="#010101" d="M12 23.75c-1.56 0-2.547-.185-2.96-.548.195.529 1.185.798 2.96.798s2.765-.27 2.96-.798c-.413.363-1.4.548-2.96.548z" opacity=".1"/><path fill="#0A9AD6" d="M12 0c-1.927 0-9 2.548-9 7 0 3.999.33 8.249 2.78 9.45 1.598.781 3.309-.107 4.684-.82.598-.31 1.215-.63 1.536-.63s.938.32 1.536.63c.995.516 2.166 1.124 3.343 1.124.45 0 .9-.088 1.34-.305C20.67 15.25 21 11 21 7c0-4.452-7.073-7-9-7z"/><path fill="#010101" d="M18.252 16.2a3.038 3.038 0 0 1-1.348.304c-1.183 0-2.36-.608-3.36-1.124-.6-.31-1.221-.63-1.544-.63s-.943.32-1.544.63c-1.382.713-3.102 1.601-4.708.82-1.352-.66-2.06-2.24-2.425-4.192.349 2.066 1.055 3.754 2.457 4.441 1.598.782 3.309-.106 4.684-.819.598-.31 1.215-.63 1.536-.63s.938.32 1.536.63c.995.516 2.166 1.124 3.343 1.124.45 0 .9-.088 1.34-.305 1.403-.687 2.11-2.375 2.458-4.44-.365 1.95-1.073 3.531-2.425 4.19z" opacity=".1"/><path fill="#FFF" d="M12 .25c1.925 0 8.984 2.543 8.999 6.986L21 7c0-4.452-7.073-7-9-7S3 2.548 3 7l.001.236C3.016 2.793 10.075.25 12 .25z" opacity=".2"/><path fill="#FCD3C0" d="M13 13s2.469-1.5 4-1.5 1.55.972 1.5 1.5c-.06.622-.344 2-1.5 2s-2.938-.625-4-2zM11 13s-2.469-1.5-4-1.5-1.55.972-1.5 1.5c.06.622.344 2 1.5 2s2.938-.625 4-2z"/><path fill="#010101" d="M13 13s2.469-1.5 4-1.5 1.55.972 1.5 1.5c-.06.622-.344 2-1.5 2s-2.938-.625-4-2zM11 13s-2.469-1.5-4-1.5-1.55.972-1.5 1.5c.06.622.344 2 1.5 2s2.938-.625 4-2z" opacity=".1"/><path fill="#010101" d="M17 11.75c1.225 0 1.479.62 1.507 1.14.033-.542-.073-1.39-1.507-1.39-1.531 0-4 1.5-4 1.5.045.059.099.108.147.164.545-.315 2.541-1.414 3.853-1.414zM7 11.75c1.312 0 3.308 1.099 3.853 1.414.048-.056.102-.105.147-.164 0 0-2.469-1.5-4-1.5-1.434 0-1.54.848-1.507 1.39.028-.52.282-1.14 1.507-1.14z" opacity=".1"/><path fill="#D8A580" d="M13 20h-2a.5.5 0 1 1 0-1h2a.5.5 0 1 1 0 1z"/><path fill="#FFF" d="M13 10.5h1l-1.5-5h-1l-1.5 5h1l.286-1h1.428l.286 1zm-1.429-2L12 7l.429 1.5h-.858z"/><circle cx="8.5" cy="13.5" r="1" fill="#333"/><circle cx="15.5" cy="13.5" r="1" fill="#333"/><linearGradient id="a" x1="9.189" x2="15.18" y1="13.635" y2="19.626" gradientUnits="userSpaceOnUse"><stop offset="0" stop-color="#010101" stop-opacity=".1"/><stop offset="1" stop-color="#010101" stop-opacity="0"/></linearGradient><path fill="url(#a)" d="M18.348 16.373c-.044.024-.083.054-.128.076a3.01 3.01 0 0 1-1.341.305c-1.177 0-2.348-.608-3.343-1.124-.598-.31-1.215-.63-1.536-.63s-.938.32-1.536.63c-1.375.713-3.086 1.601-4.684.82-.045-.023-.084-.053-.128-.077.014.064.033.13.049.195l5.458 5.458c.258-.016.535-.026.841-.026 1.113 0 1.907.109 2.402.318 1.612-.454 3.424-3.551 3.946-5.945z"/><linearGradient id="b" x1="2.309" x2="19.988" y1="7.543" y2="15.787" gradientUnits="userSpaceOnUse"><stop offset="0" stop-color="#FFF" stop-opacity=".2"/><stop offset="1" stop-color="#FFF" stop-opacity="0"/></linearGradient><path fill="url(#b)" d="M21 7c0-4.452-7.073-7-9-7S3 2.548 3 7c0 3.161.211 6.474 1.508 8.318.088 2.71 2.322 6.928 4.527 7.855.169.547 1.159.827 2.965.827s2.796-.28 2.965-.827c2.205-.927 4.439-5.144 4.527-7.855C20.789 13.474 21 10.161 21 7z"/></svg>