<svg xmlns="http://www.w3.org/2000/svg" viewBox="0 0 24 24"><path fill="#D8A580" d="M22 4.5C22 2.615 13.505 0 12 0S2 2.615 2 4.5c0 1.344 1.85 2.061 2.856 2.351l-.28.839C4.243 7.947 3.5 8.62 3.5 9.5c0 .205.134.424.352.648L3.406 13.8h.004c-.348.54-.41 1.185-.41 1.699 0 .96.893 3.114 2.16 3.454C6.702 22.302 9.003 24 12 24s5.297-1.698 6.84-5.046C20.108 18.614 21 16.46 21 15.5c0-.514-.062-1.16-.41-1.699h.005l-.397-3.702c.19-.207.302-.409.302-.599 0-.88-.743-1.553-1.076-1.81l-.28-.839C20.151 6.561 22 5.844 22 4.5z"/><path fill="#5D4B3F" d="M3.906 9.705l-.5 4.096h17.189l-.439-4.096"/><path fill="#FCD3C0" d="M12 24c-2.996 0-5.297-1.698-6.84-5.046C3.892 18.614 3 16.46 3 15.5c0-.726.11-1.72 1.002-2.296.013-.887.076-2.398.19-3.081l.07-.418h15.477l.07.418c.113.683.176 2.194.189 3.08.891.576 1.002 1.57 1.002 2.297 0 .96-.893 3.114-2.16 3.454C17.298 22.302 14.997 24 12 24z"/><path fill="#5D4B3F" d="M4.002 13.204s.83 1.284.988 1.796c.153.5.093-4.854.093-4.854l-1.08-.109M19.999 13.204s-.83 1.284-.988 1.796c-.153.5-.093-4.854-.093-4.854l1.08-.109"/><circle cx="8.5" cy="14" r="1" fill="#333"/><circle cx="15.5" cy="14" r="1" fill="#333"/><path fill="#1C2B39" d="M4.576 7.69C4.243 7.947 3.5 8.62 3.5 9.5c0 1.43 5.969 3.5 8.5 3.5s8.5-2.07 8.5-3.5c0-.88-.743-1.553-1.076-1.81 0 0-3.174.81-7.424.81s-7.424-.81-7.424-.81z"/><path fill="#010101" d="M12 12.75c-2.49 0-8.29-2.001-8.482-3.427-.007.059-.018.116-.018.177 0 1.43 5.969 3.5 8.5 3.5s8.5-2.07 8.5-3.5c0-.06-.011-.118-.018-.177-.193 1.426-5.993 3.427-8.482 3.427z" opacity=".2"/><path fill="#075EAB" d="M22 4.5C22 2.615 13.505 0 12 0S2 2.615 2 4.5c0 1.344 1.85 2.061 2.856 2.351l-.28.839S7.75 8.5 12 8.5s7.424-.81 7.424-.81l-.28-.839C20.151 6.561 22 5.844 22 4.5z"/><path fill="#010101" d="M4.653 7.459l-.077.23S7.75 8.5 12 8.5s7.424-.81 7.424-.81l-.077-.231c-.485.116-3.462.791-7.347.791s-6.862-.675-7.347-.791z" opacity=".1"/><path fill="#FFF" d="M12 .25c1.48 0 9.695 2.526 9.974 4.402C21.98 4.6 22 4.554 22 4.5 22 2.615 13.505 0 12 0S2 2.615 2 4.5c0 .054.02.1.026.152C2.306 2.776 10.521.25 12 .25z" opacity=".2"/><path fill="#5D4B3F" d="M16.556 18.327a1.18 1.18 0 0 1-1.407-.207 2.188 2.188 0 0 0-1.542-.62h-3.214c-.609 0-1.154.238-1.542.62a1.18 1.18 0 0 1-1.407.207C6.017 17.528 5.536 17 5 16c0 0-.07 2.01.16 2.954C6.702 22.302 9.003 24 12 24s5.297-1.698 6.84-5.046C19.07 18.01 19 16 19 16c-.536 1-1.017 1.528-2.444 2.327z"/><path fill="#010101" d="M18.84 18.704c-1.543 3.348-3.844 5.046-6.84 5.046s-5.297-1.698-6.84-5.046c-.137-.557-.167-1.48-.17-2.147-.003.664.015 1.764.17 2.397C6.702 22.302 9.003 24 12 24s5.297-1.698 6.84-5.046c.155-.633.173-1.733.17-2.397-.003.667-.033 1.59-.17 2.147z" opacity=".1"/><path fill="#D8A580" d="M13 20h-2a.5.5 0 1 1 0-1h2a.5.5 0 1 1 0 1z"/><g opacity=".1"><path fill="#010101" d="M10.5 19.5a.5.5 0 0 1 .5-.5h2a.5.5 0 0 1 .5.5h-3z"/><path fill="#010101" d="M10.5 19.5a.5.5 0 0 1 .5-.5h2a.5.5 0 0 1 .5.5h-3z" opacity=".1"/></g><path fill="#FFF" d="M13.68 5.036a.501.501 0 0 0-.646.283c-.02.052-.17.388-.534.567V4h.5a.5.5 0 1 0 0-1h-.5v-.5a.5.5 0 1 0-1 0V3H11a.5.5 0 1 0 0 1h.5v1.886a1.16 1.16 0 0 1-.534-.566.5.5 0 0 0-.935.355C10.053 5.73 10.546 7 12 7s1.948-1.27 1.968-1.324a.498.498 0 0 0-.288-.64z"/><linearGradient id="a" x1="8.607" x2="18.416" y1="6.71" y2="16.519" gradientUnits="userSpaceOnUse"><stop offset="0" stop-color="#010101" stop-opacity=".1"/><stop offset="1" stop-color="#010101" stop-opacity="0"/></linearGradient><path fill="url(#a)" d="M20.59 13.801h.005l-.397-3.702C18.965 11.444 14.194 13 12 13c-2.165 0-6.833-1.514-8.142-2.847l-.007.003 12.362 12.362c1.031-.838 1.914-2.016 2.628-3.564C20.107 18.614 21 16.46 21 15.5c0-.514-.062-1.16-.41-1.699z"/><linearGradient id="b" x1=".93" x2="21.073" y1="6.638" y2="16.031" gradientUnits="userSpaceOnUse"><stop offset="0" stop-color="#FFF" stop-opacity=".2"/><stop offset="1" stop-color="#FFF" stop-opacity="0"/></linearGradient><path fill="url(#b)" d="M22 4.5C22 2.615 13.505 0 12 0S2 2.615 2 4.5c0 1.344 1.85 2.061 2.856 2.351l-.28.839C4.243 7.947 3.5 8.62 3.5 9.5c0 .205.134.424.352.648L3.406 13.8h.004c-.348.54-.41 1.185-.41 1.699 0 .96.893 3.114 2.16 3.454C6.702 22.302 9.003 24 12 24s5.297-1.698 6.84-5.046C20.108 18.614 21 16.46 21 15.5c0-.514-.062-1.16-.41-1.699h.005l-.397-3.702c.19-.207.302-.409.302-.599 0-.88-.743-1.553-1.076-1.81l-.28-.839C20.151 6.561 22 5.844 22 4.5z"/></svg>