<svg xmlns="http://www.w3.org/2000/svg" viewBox="0 0 24 24"><path fill="#5D4B3F" d="M4.063 9.578l-.49 4.097h16.825l-.43-4.097"/><path fill="#FCD3C0" d="M12 24c-2.996 0-5.297-1.698-6.84-5.046C3.892 18.614 3 16.46 3 15.5c0-.726.11-1.72 1.002-2.296.013-.887.076-2.398.19-3.081l.07-.418h15.477l.07.418c.113.683.176 2.194.189 3.08.891.576 1.002 1.57 1.002 2.297 0 .96-.893 3.114-2.16 3.454C17.298 22.302 14.997 24 12 24z"/><path fill="#5D4B3F" d="M3.966 13.17s.83 1.285.987 1.797c.154.5.094-4.854.094-4.854l-1.081-.109M20.094 13.056s-.83 1.284-.987 1.796c-.153.5-.094-4.854-.094-4.854l1.081-.108"/><path fill="#010101" d="M18.84 18.704c-1.543 3.348-3.844 5.046-6.84 5.046s-5.297-1.698-6.84-5.046c-1.25-.335-2.13-2.428-2.155-3.407-.003.069-.005.138-.005.203 0 .96.893 3.114 2.16 3.454C6.702 22.302 9.003 24 12 24s5.297-1.698 6.84-5.046C20.108 18.614 21 16.46 21 15.5c0-.065-.002-.134-.005-.203-.025.98-.906 3.072-2.154 3.407z" opacity=".1"/><path fill="#333" d="M8.502 15c-.551 0-1-.449-1-1s.449-1 1-1 1 .449 1 1-.449 1-1 1zM15.502 15c-.551 0-1-.449-1-1s.449-1 1-1 1 .449 1 1-.449 1-1 1z"/><path fill="#4E4E4E" d="M19 5H5C2.047 5 1 6.886 1 8.5 1 10.595 2.25 13 12 13s11-2.405 11-4.5C23 6.886 21.953 5 19 5z"/><path fill="#010101" d="M12 12.75c-9.096 0-10.802-2.088-10.992-4.068C1.083 10.732 2.53 13 12 13s10.917-2.268 10.992-4.318c-.19 1.98-1.896 4.068-10.992 4.068z" opacity=".1"/><path fill="#333" d="M13.354 18.146l-.5-.5a.5.5 0 0 0-.354-.146h-1a.5.5 0 0 0-.354.146l-.5.5A.5.5 0 0 0 11 19h2a.5.5 0 0 0 .354-.854z"/><path fill="#FFF" d="M5 5.25h14c2.902 0 3.958 1.821 3.993 3.417.002-.056.007-.112.007-.167C23 6.886 21.953 5 19 5H5C2.047 5 1 6.886 1 8.5c0 .055.005.111.007.167C1.042 7.07 2.097 5.25 5 5.25z" opacity=".2"/><path fill="#4E4E4E" d="M13.5 0h-3A5.507 5.507 0 0 0 5 5.5v2c0 .417.337 2.5 7 2.5s7-2.083 7-2.5v-2C19 2.468 16.533 0 13.5 0z"/><path fill="#FFF" d="M13.5 0h-3A5.507 5.507 0 0 0 5 5.5v.25C5 2.718 7.467.25 10.5.25h3c3.033 0 5.5 2.468 5.5 5.5V5.5C19 2.468 16.533 0 13.5 0z" opacity=".2"/><path fill="#333" d="M12.002 7.61C6.768 7.61 5.362 6.36 5 5.838v1.644C5 7.902 5.338 10 12.002 10s7.002-2.098 7.002-2.518V5.838c-.361.523-1.768 1.772-7.002 1.772z"/><linearGradient id="a" x1="10.081" x2="17.21" y1="5.783" y2="12.912" gradientUnits="userSpaceOnUse"><stop offset="0" stop-color="#010101" stop-opacity=".1"/><stop offset="1" stop-color="#010101" stop-opacity="0"/></linearGradient><path fill="url(#a)" d="M19 7.5c0 .417-.337 2.5-7 2.5-3.328 0-5.077-.52-5.995-1.092l4.053 4.053c.61.024 1.249.039 1.942.039 6.316 0 9.055-1.011 10.208-2.292L19 7.5z"/><linearGradient id="b" x1="8.511" x2="17.631" y1="8.476" y2="17.595" gradientUnits="userSpaceOnUse"><stop offset="0" stop-color="#010101" stop-opacity=".1"/><stop offset="1" stop-color="#010101" stop-opacity="0"/></linearGradient><path fill="url(#b)" d="M20.218 11.96C18.58 12.587 16.02 13 12 13c-3.993 0-6.545-.407-8.185-1.028l-.023.007 11.297 11.298c1.534-.794 2.79-2.238 3.752-4.323C20.107 18.614 21 16.46 21 15.5c0-.602-.083-1.385-.617-1.964l-.165-1.576z"/><linearGradient id="c" x1="1.417" x2="21.101" y1="6.794" y2="15.972" gradientUnits="userSpaceOnUse"><stop offset="0" stop-color="#FFF" stop-opacity=".2"/><stop offset="1" stop-color="#FFF" stop-opacity="0"/></linearGradient><path fill="url(#c)" d="M23 8.5C23 6.886 21.953 5 19 5h-.025A5.506 5.506 0 0 0 13.5 0h-3a5.506 5.506 0 0 0-5.475 5H5C2.047 5 1 6.886 1 8.5c0 1.23.447 2.564 2.779 3.459l-.193 1.612C3.081 14.146 3 14.91 3 15.5c0 .96.893 3.114 2.16 3.454C6.702 22.302 9.003 24 12 24s5.297-1.698 6.84-5.046C20.108 18.614 21 16.46 21 15.5c0-.602-.083-1.385-.617-1.964l-.165-1.576C22.553 11.065 23 9.73 23 8.5z"/></svg>