<svg xmlns="http://www.w3.org/2000/svg" viewBox="0 0 24 24"><path fill="#EE3325" d="M18.94 1.763a.5.5 0 0 0-.195-.199C18.63 1.5 15.915 0 12 0S5.37 1.5 5.255 1.564a.5.5 0 0 0-.195.2C4.976 1.918 3 5.625 3 8.5V12c0 1.11 1.037 5.226 2.6 7.3C7.952 22.42 10.105 24 12 24s4.049-1.581 6.4-4.7c1.563-2.074 2.6-6.19 2.6-7.3V8.5c0-2.874-1.976-6.58-2.06-6.737z"/><path fill="#FFF" d="M18.94 1.763a.5.5 0 0 0-.195-.199C18.63 1.5 15.915 0 12 0S5.37 1.5 5.255 1.564a.5.5 0 0 0-.195.2C4.976 1.918 3 5.625 3 8.5v.25c0-2.874 1.976-6.58 2.06-6.737a.5.5 0 0 1 .195-.199C5.37 1.75 8.085.25 12 .25s6.63 1.5 6.745 1.564a.5.5 0 0 1 .195.2C19.024 2.168 21 5.875 21 8.75V8.5c0-2.874-1.976-6.58-2.06-6.737z" opacity=".2"/><path fill="#010101" d="M12 23.75c-1.896 0-4.049-1.581-6.4-4.7-1.563-2.074-2.6-6.19-2.6-7.3V12c0 1.11 1.037 5.226 2.6 7.3C7.952 22.42 10.105 24 12 24s4.049-1.581 6.4-4.7c1.563-2.074 2.6-6.19 2.6-7.3v-.25c0 1.11-1.037 5.226-2.6 7.3-2.351 3.119-4.504 4.7-6.4 4.7z" opacity=".1"/><path fill="#010101" d="M3 12c0 1.11 1.037 5.226 2.6 7.3.24.318.476.609.71.894l1.007-3.017L6.131 4.893 5.06 1.763C4.976 1.92 3 5.626 3 8.5V12zM21 12c0 1.11-1.037 5.226-2.6 7.3-.24.318-.476.609-.71.894l-1.007-3.017 1.186-12.284 1.071-3.13C19.024 1.92 21 5.626 21 8.5V12z" opacity=".1"/><path fill="#010101" d="M17.986 5.384l-.117-.49-.49.12c-.665.166-2.872.781-3.333 1.776C13.593 7.767 13 11.575 13 12.5c0 1.26 1.14 3.243 3.254 4.436l.429.241.52-.883C18.086 14.81 19 13.272 19 11.5c0-1.85-.972-5.943-1.014-6.116z"/><path fill="#FFF" d="M13.5 12.5s1.395 1 2.5 1 1.5-1.406 1.5-1.406-.6-.582-1.705-.582-2.295.988-2.295.988z"/><path fill="#010101" d="M6.014 5.384l.117-.49.49.12c.665.166 2.872.781 3.333 1.776.453.977 1.046 4.785 1.046 5.71 0 1.26-1.14 3.243-3.254 4.436l-.429.241-.52-.883C5.914 14.81 5 13.272 5 11.5c0-1.85.972-5.943 1.014-6.116z"/><path fill="#FFF" d="M10.5 12.5s-1.395 1-2.5 1-1.5-1.406-1.5-1.406.6-.582 1.705-.582 2.295.988 2.295.988z"/><linearGradient id="a" x1="2.587" x2="20.445" y1="7.013" y2="15.341" gradientUnits="userSpaceOnUse"><stop offset="0" stop-color="#FFF" stop-opacity=".2"/><stop offset="1" stop-color="#FFF" stop-opacity="0"/></linearGradient><path fill="url(#a)" d="M18.94 1.763a.5.5 0 0 0-.195-.199C18.63 1.5 15.915 0 12 0S5.37 1.5 5.255 1.564a.5.5 0 0 0-.195.2C4.976 1.918 3 5.625 3 8.5V12c0 1.11 1.037 5.226 2.6 7.3C7.952 22.42 10.105 24 12 24s4.049-1.581 6.4-4.7c1.563-2.074 2.6-6.19 2.6-7.3V8.5c0-2.874-1.976-6.58-2.06-6.737z"/></svg>