<svg xmlns="http://www.w3.org/2000/svg" viewBox="0 0 24 24"><path fill="#F3F3F3" d="M16.589 20.946c.633.363 1.294.554 1.911.554 1.074 0 1.91-.509 2.64-1.652a.507.507 0 0 0 .48.138c.824-.207 2.38-1.2 2.38-3.486 0-1.118-.283-1.889-.615-2.406.307-.572.615-1.434.615-2.594 0-1.606-.868-3.191-2-3.982V7.5C22 3.314 17.86 1 15 1c-1.576 0-2.58.3-3 .459C11.58 1.301 10.576 1 9 1 6.14 1 2 3.314 2 7.5v.018c-1.132.79-2 2.376-2 3.982 0 1.16.308 2.022.615 2.594C.283 14.61 0 15.382 0 16.5c0 2.286 1.556 3.28 2.379 3.485a.5.5 0 0 0 .48-.137C3.59 20.99 4.426 21.5 5.5 21.5c.608 0 1.258-.186 1.883-.537"/><path fill="#010101" d="M21.621 19.735a.507.507 0 0 1-.48-.137c-.73 1.143-1.567 1.652-2.641 1.652-.617 0-1.278-.191-1.911-.554l-9.206.017c-.625.351-1.275.537-1.883.537-1.074 0-1.91-.509-2.64-1.652a.5.5 0 0 1-.48.138c-.81-.203-2.32-1.174-2.37-3.38-.002.05-.01.092-.01.144 0 2.286 1.556 3.28 2.379 3.485a.5.5 0 0 0 .48-.137C3.59 20.99 4.426 21.5 5.5 21.5c.608 0 1.258-.186 1.883-.537l9.206-.017c.633.363 1.294.554 1.911.554 1.074 0 1.91-.509 2.64-1.652a.507.507 0 0 0 .48.138c.824-.207 2.38-1.2 2.38-3.486 0-.052-.008-.093-.01-.143-.05 2.205-1.56 3.176-2.369 3.378z" opacity=".1"/><path fill="#FCD3C0" d="M19.519 12.512c-.042-3.83-.92-6.193-2.613-7.024-2.214-1.085-3.437-.546-4.246-.19-.263.116-.489.216-.66.216s-.398-.1-.66-.215c-.81-.358-2.032-.897-4.242.185-1.695.83-2.575 3.195-2.617 7.028-.837.56-.941 1.526-.941 2.23 0 .931.835 3.016 2.02 3.354l.038.095C6.11 19.506 7.47 23 12 23s5.89-3.494 6.402-4.809l.037-.095c1.186-.338 2.021-2.423 2.021-3.353 0-.705-.104-1.671-.941-2.23z"/><path fill="#FFF" d="M2 7.768V7.75c0-4.186 4.14-6.5 7-6.5 1.576 0 2.58.3 3 .459.42-.158 1.424-.459 3-.459 2.86 0 7 2.314 7 6.5v.018c1.103.77 1.948 2.294 1.992 3.858 0-.044.008-.081.008-.126 0-1.606-.868-3.191-2-3.982V7.5C22 3.314 17.86 1 15 1c-1.576 0-2.58.3-3 .459C11.58 1.301 10.576 1 9 1 6.14 1 2 3.314 2 7.5v.018c-1.132.79-2 2.376-2 3.982 0 .045.007.082.008.126C.052 10.063.897 8.538 2 7.768z" opacity=".2"/><g fill="#333"><circle cx="8.5" cy="13" r="1"/><circle cx="15.5" cy="13" r="1"/></g><path fill="#D67567" d="M10 17.5v1c0 1.103 1 2.5 2 2.5s2-1.397 2-2.5v-1h-4z"/><path fill="#010101" d="M12 20.75c-1 0-2-1.397-2-2.5v.25c0 1.103 1 2.5 2 2.5s2-1.397 2-2.5v-.25c0 1.103-1 2.5-2 2.5z" opacity=".1"/><path fill="#F3F3F3" d="M15.354 17.146C15.236 17.03 14.174 16 13 16c-.46 0-.779.092-1 .22-.221-.128-.54-.22-1-.22-1.173 0-2.236 1.03-2.354 1.146A.5.5 0 009 18h6a.5.5 0 00.354-.854zM7 11.999a.5.5 0 01-.354-.853C6.764 11.03 7.826 10 9 10a.5.5 0 110 1c-.645 0-1.408.616-1.647.854A.5.5 0 017 12z"/><path fill="#010101" d="M18.44 17.846l-.038.095C17.89 19.256 16.53 22.75 12 22.75s-5.89-3.494-6.402-4.809l-.037-.095c-1.169-.333-1.992-2.357-2.017-3.306a6.341 6.341 0 0 0-.004.203c0 .93.835 3.015 2.02 3.353l.038.095C6.11 19.506 7.47 23 12 23s5.89-3.494 6.402-4.809l.037-.095c1.186-.338 2.021-2.423 2.021-3.353 0-.065-.002-.134-.004-.203-.025.95-.848 2.973-2.017 3.306z" opacity=".1"/><path fill="#F3F3F3" d="M17 11.999a.5.5 0 01-.353-.145C16.407 11.616 15.645 11 15 11a.5.5 0 110-1c1.173 0 2.236 1.03 2.354 1.146A.5.5 0 0117 12zM4.721 9.594c-.246 2.031.31 3.354.498 4.75S4.03 12.297 3.937 11M19.279 9.594c.246 2.031-.31 3.354-.498 4.75S19.97 12.297 20.063 11"/><linearGradient id="a" x1="1.589" x2="23.994" y1="7.019" y2="17.466" gradientUnits="userSpaceOnUse"><stop offset="0" stop-color="#FFF" stop-opacity=".2"/><stop offset="1" stop-color="#FFF" stop-opacity="0"/></linearGradient><path fill="url(#a)" d="M24 11.5c0-1.606-.868-3.191-2-3.982V7.5C22 3.314 17.86 1 15 1c-1.576 0-2.58.3-3 .459C11.58 1.301 10.576 1 9 1 6.14 1 2 3.314 2 7.5v.018c-1.132.79-2 2.376-2 3.982 0 1.16.308 2.022.615 2.594C.283 14.61 0 15.382 0 16.5c0 2.286 1.556 3.28 2.379 3.485a.5.5 0 0 0 .48-.137C3.59 20.99 4.426 21.5 5.5 21.5c.563 0 1.161-.166 1.743-.468C8.213 22.094 9.694 23 12 23c2.306 0 3.788-.907 4.758-1.97.581.303 1.18.47 1.742.47 1.074 0 1.91-.509 2.64-1.652a.507.507 0 0 0 .48.138c.824-.207 2.38-1.2 2.38-3.486 0-1.118-.283-1.889-.615-2.406.307-.572.615-1.434.615-2.594z"/></svg>