<svg xmlns="http://www.w3.org/2000/svg" viewBox="0 0 24 24"><path fill="#BF6B29" d="M20.5 18.702c0-.393.242-.871.522-1.426.436-.86.978-1.931.978-3.358C22 9.554 19.282 1 13 1c-1.57 0-2.398.618-2.737.96C4.249 2.146 2 9.354 2 13.919c0 1.427.542 2.498.978 3.358.28.555.522 1.033.522 1.426 0 1.097-.456 1.674-.854 2.054l-.44.421.525.32c1.068.653 1.787.528 2.215.453.081-.015.215-.025.22-.02-.069.126-.166.321-.166.6v.663l.658-.209c.778-.247 2.191-.023 3.407.163h5.87l.082-.006c1.135-.18 2.548-.406 3.325-.157l.658.21v-.664c0-.26-.085-.449-.172-.61.042-.005.146.016.226.03.428.074 1.147.2 2.215-.452l.524-.32-.44-.422c-.397-.38-.853-.957-.853-2.054z"/><path fill="#010101" d="M3.485 18.593c.002-.05.015-.088.015-.14 0-.394-.242-.872-.522-1.427-.43-.847-.956-1.902-.972-3.296-.001.062-.006.127-.006.188 0 1.427.542 2.498.978 3.358.255.506.47.945.507 1.317zM5.247 21.681a1.83 1.83 0 00-.3.019c-.43.075-1.148.2-2.216-.452l-.365-.223-.16.152.525.32c1.068.653 1.787.528 2.215.453.032-.006.183-.015.22-.02.034-.104.045-.184.08-.249zM21.022 17.026c-.28.555-.522 1.033-.522 1.426 0 .053.013.09.015.14.037-.371.252-.81.507-1.316.436-.86.978-1.931.978-3.358 0-.056-.006-.12-.007-.178-.019 1.389-.543 2.441-.97 3.286zM15.017 22.89l-.082.007h-5.87c-1.216-.186-2.63-.41-3.407-.163l-.658.21v.25l.658-.21c.778-.247 2.191-.023 3.407.163h5.87l.082-.006c1.135-.18 2.548-.406 3.325-.157l.658.21v-.25l-.658-.21c-.777-.249-2.19-.023-3.325.157zM21.269 21.248c-1.068.652-1.787.526-2.215.452-.08-.014-.3-.05-.342-.045.042.079.084.164.116.26.036.007.191.028.226.035.428.074 1.147.2 2.215-.452l.524-.32-.159-.153-.365.223z" opacity=".1"/><path fill="#FCD3C0" d="M19.143 13.714c-1.666-.375-4.486-2.4-5.225-5.13-2.037 2.618-7.04 4.713-8.892 5.13-.775.175-.941 1.007-.941 2.057 0 .9.95 3.086 2 3.086.41.876 2.252 5.143 6 5.143s5.59-4.267 6-5.143c1.05 0 2-2.186 2-3.086 0-1.05-.167-1.882-.942-2.057z"/><path fill="#010101" d="M18.085 18.607c-.41.876-2.253 5.143-6 5.143s-5.59-4.267-6-5.143c-1.036 0-1.97-2.121-1.996-3.043-.001.07-.004.136-.004.207 0 .9.95 3.086 2 3.086.41.876 2.252 5.143 6 5.143s5.59-4.267 6-5.143c1.05 0 2-2.186 2-3.086 0-.07-.003-.138-.005-.207-.026.922-.96 3.043-1.995 3.043z" opacity=".1"/><path fill="#333" d="M8.585 14h-1a.5.5 0 100 1 1 1 0 101-1zM14.585 15a1 1 0 002 0 .5.5 0 100-1h-1c-.552 0-1 .449-1 1z"/><path fill="#9F3A58" d="M11.5 0C8.313 0 4.206 2.584 3.12 3.619 2.356 4.35 2 5.47 2 6.939c0 .315.115.586.383.768.288.195.717.274 1.22.274 1.419 0 3.432-.634 4.549-1.08 2.396-.96 5.814-4.004 5.814-4.92C13.966 1.155 12.707 0 11.5 0z"/><path fill="#FFF" d="M13.953 1.83C13.774.936 12.584 0 11.5 0 8.313 0 4.206 2.584 3.12 3.619 2.356 4.35 2 5.47 2 6.939c0 .02.022-.181.03-.296.087-1.199.425-2.138 1.09-2.774C4.207 2.834 8.314.25 11.5.25c1.002 0 2.08.738 2.409 1.486l.044.093z" opacity=".2"/><path fill="#010101" d="M8.152 6.65c-1.117.446-3.13 1.08-4.55 1.08-.502 0-.93-.079-1.219-.274C2.19 7.325 2.075 7.21 2.02 7 2.004 6.937 2 6.87 2 6.939c0 .315.115.585.383.767.288.195.717.275 1.22.275 1.419 0 3.432-.635 4.549-1.081 2.396-.959 5.814-4.004 5.814-4.92 0-.042-.017-.088-.023-.131-.243 1.03-3.485 3.878-5.791 4.8z" opacity=".1"/><circle cx="6.466" cy="1.981" r="1" fill="#1C2B39"/><path fill="#010101" d="M20.5 18.702c0-.393.242-.871.522-1.426.436-.86.978-1.931.978-3.358 0-3.935-2.22-11.257-7.26-12.661 1.09 2.089.638 5.815-.822 7.326.739 2.73 3.559 4.756 5.225 5.131.775.175.942 1.007.942 2.057 0 .9-.95 3.086-2 3.086-.295.629-1.333 3-3.278 4.29h.128l.082-.006c1.135-.18 2.548-.406 3.325-.157l.658.21v-.664c0-.26-.085-.449-.172-.61.042-.005.146.016.226.03.428.074 1.147.2 2.215-.452l.524-.32-.44-.422c-.397-.38-.853-.957-.853-2.054z" opacity=".1"/><linearGradient id="a" x1="7.876" x2="12.433" y1="3.796" y2="8.353" gradientUnits="userSpaceOnUse"><stop offset="0" stop-color="#010101" stop-opacity=".1"/><stop offset="1" stop-color="#010101" stop-opacity="0"/></linearGradient><path fill="url(#a)" d="M14.74 1.257a6.98 6.98 0 0 0-1.203-.214c.262.311.43.646.43.938 0 .916-3.419 3.96-5.815 4.92-1.117.446-3.13 1.08-4.55 1.08-.173 0-.322-.024-.475-.044-.048.124-.097.247-.142.371l4.545 4.545c2.212-.932 4.994-2.478 6.388-4.27 1.46-1.51 1.912-5.237.821-7.326z"/><linearGradient id="b" x1=".857" x2="23.111" y1="7.976" y2="18.353" gradientUnits="userSpaceOnUse"><stop offset="0" stop-color="#FFF" stop-opacity=".2"/><stop offset="1" stop-color="#FFF" stop-opacity="0"/></linearGradient><path fill="url(#b)" d="M20.5 18.702c0-.393.242-.871.522-1.426.436-.86.978-1.931.978-3.358 0-4.234-2.57-12.39-8.46-12.872C13.06.474 12.282 0 11.5 0c-1.422 0-3.054.5-4.486 1.167A.973.973 0 0 0 6.466.98a1 1 0 0 0-.998.992c-1.075.623-1.932 1.25-2.347 1.646C2.355 4.35 2 5.47 2 6.939c0 .315.115.586.383.768.189.127.453.191.743.23C2.35 9.951 2 12.135 2 13.917c0 1.428.542 2.499.978 3.36.28.554.522 1.032.522 1.425 0 1.097-.456 1.674-.854 2.054l-.44.421.525.32c1.068.653 1.787.528 2.215.453.081-.015.215-.025.22-.02-.069.126-.166.32-.166.6v.663l.658-.209c.778-.247 2.191-.023 3.407.163h.298c.764.507 1.665.853 2.722.853s1.957-.346 2.722-.853h.128l.082-.006c1.135-.18 2.548-.406 3.325-.157l.658.21v-.664c0-.26-.085-.449-.172-.61.042-.005.146.016.226.03.428.074 1.147.2 2.215-.452l.524-.32-.44-.422c-.397-.38-.853-.957-.853-2.054z"/></svg>