<svg xmlns="http://www.w3.org/2000/svg" viewBox="0 0 24 24"><path fill="#BF6B29" d="M13 0c-1.174 0-1.861.32-2.157.502C6.163.604 1 5.274 1 11.5c0 6.345 1.976 10.082 2.06 10.237l.057.107.1.068c.112.077 1.215.757 5.467 1l.074.005c1.836.145 4.818 0 6.484 0l.074-.004c4.252-.244 5.355-.924 5.467-1l.1-.07.057-.106C21.024 21.582 23 17.845 23 11.5 23 5.023 17.625 0 13 0z"/><path fill="#FFF" d="M10.843.752C11.14.57 11.826.25 13 .25c4.608 0 9.959 4.989 9.997 11.432 0-.062.003-.12.003-.182C23 5.023 17.625 0 13 0c-1.174 0-1.861.32-2.157.502C6.163.604 1 5.274 1 11.5c0 .062.003.12.003.182C1.041 5.491 6.181.854 10.843.752z" opacity=".2"/><path fill="#FEE5D8" d="M19.5 13.714c-2.241-.478-4-7.547-4.094-8.308.147 1.19-8.298 7.752-10.906 8.308-.816.174-1 1.007-1 2.057 0 .9 1.009 3.086 2.125 3.086C6.06 19.733 8.019 24 12 24s5.94-4.267 6.375-5.143c1.116 0 2.125-2.186 2.125-3.086 0-1.05-.184-1.883-1-2.057z"/><path fill="#333" d="M8.5 14.5c-.551 0-1-.449-1-1s.449-1 1-1 1 .449 1 1-.449 1-1 1zM15.5 14.5c-.551 0-1-.449-1-1s.449-1 1-1 1 .449 1 1-.449 1-1 1z"/><path fill="#010101" d="M18.375 18.607c-.435.876-2.394 5.143-6.375 5.143s-5.94-4.267-6.375-5.143c-1.1 0-2.092-2.12-2.12-3.042-.002.069-.005.136-.005.206 0 .9 1.009 3.086 2.125 3.086C6.06 19.733 8.019 24 12 24s5.94-4.267 6.375-5.143c1.116 0 2.125-2.186 2.125-3.086 0-.07-.003-.137-.005-.206-.028.922-1.02 3.042-2.12 3.042z" opacity=".1"/><path fill="#BF6B29" d="M13 0c-1.174 0-1.861.32-2.157.502C6.163.604 1 5.274 1 11.5c0 6.345 1.976 10.082 2.06 10.237l.057.107.1.068c.112.077 1.215.757 5.467 1l.074.005c-1.844-1.326-2.838-3.468-3.133-4.06-1.116 0-2.125-2.186-2.125-3.086 0-1.05.203-1.808 1-2.057 4.658-1.451 9.48-4.359 10.802-6.229.428 1.957 2.327 5.83 4.198 6.23.816.173 1 1.006 1 2.056 0 .9-1.009 3.086-2.125 3.086-.295.592-1.29 2.734-3.133 4.06l.074-.004c4.252-.244 5.355-.924 5.467-1l.1-.07.057-.106C21.024 21.582 23 17.845 23 11.5 23 5.023 17.625 0 13 0z"/><path fill="#010101" d="M20.883 21.844l.057-.107C21.024 21.582 23 17.845 23 11.5c0-4.282-2.353-7.918-5.282-9.897.205 2.552-2.168 4.731-2.414 5.892.433 1.96 2.328 5.82 4.196 6.22.816.173 1 1.006 1 2.056 0 .9-1.009 3.086-2.125 3.086-.295.592-1.29 2.734-3.133 4.06l.074-.004c4.252-.244 5.355-.924 5.467-1l.1-.07z" opacity=".1"/><path fill="#495966" d="M15.5 13c-1.043 0-1.936.514-2.31 1.241C12.89 14.113 12.51 14 12 14s-.891.113-1.19.241C10.437 13.514 9.544 13 8.5 13c-1.379 0-2.5.897-2.5 2s1.121 2 2.5 2c1.262 0 2.297-.754 2.466-1.727.158-.105.49-.273 1.034-.273.547 0 .88.17 1.034.272.168.973 1.203 1.728 2.466 1.728 1.379 0 2.5-.897 2.5-2s-1.121-2-2.5-2zm-7 3c-.813 0-1.5-.458-1.5-1s.687-1 1.5-1 1.5.458 1.5 1-.687 1-1.5 1zm7 0c-.813 0-1.5-.458-1.5-1s.687-1 1.5-1 1.5.458 1.5 1-.687 1-1.5 1z"/><linearGradient id="a" x1="7" x2="10" y1="15" y2="15" gradientUnits="userSpaceOnUse"><stop offset="0" stop-color="#FFF" stop-opacity=".4"/><stop offset="1" stop-color="#FFF" stop-opacity="0"/></linearGradient><path fill="url(#a)" d="M8.5 14c-.813 0-1.5.458-1.5 1s.687 1 1.5 1 1.5-.458 1.5-1-.687-1-1.5-1z"/><linearGradient id="b" x1="14" x2="17" y1="15" y2="15" gradientUnits="userSpaceOnUse"><stop offset="0" stop-color="#FFF" stop-opacity=".4"/><stop offset="1" stop-color="#FFF" stop-opacity="0"/></linearGradient><path fill="url(#b)" d="M15.5 14c-.813 0-1.5.458-1.5 1s.687 1 1.5 1 1.5-.458 1.5-1-.687-1-1.5-1z"/><linearGradient id="c" x1="10.31" x2="16.38" y1="13.458" y2="19.527" gradientUnits="userSpaceOnUse"><stop offset="0" stop-color="#010101" stop-opacity=".1"/><stop offset="1" stop-color="#010101" stop-opacity="0"/></linearGradient><path fill="url(#c)" d="M17.914 14.5h-.003c.053.16.089.326.089.5 0 1.103-1.121 2-2.5 2-1.263 0-2.298-.755-2.466-1.728C12.88 15.17 12.547 15 12 15c-.545 0-.876.168-1.034.273C10.797 16.246 9.762 17 8.5 17c-.74 0-1.4-.264-1.857-.674l-.018.007 7.302 7.302c2.698-1.047 4.09-4.058 4.448-4.778.783 0 1.504-1.072 1.87-2.025L17.915 14.5z"/><linearGradient id="d" x1="1.677" x2="22.927" y1="7.587" y2="17.496" gradientUnits="userSpaceOnUse"><stop offset="0" stop-color="#FFF" stop-opacity=".2"/><stop offset="1" stop-color="#FFF" stop-opacity="0"/></linearGradient><path fill="url(#d)" d="M13 0c-1.174 0-1.861.32-2.157.502C6.163.604 1 5.274 1 11.5c0 6.345 1.976 10.082 2.06 10.237l.057.107.1.068c.112.077 1.215.757 5.467 1l.074.005C9.639 23.55 10.712 24 12 24s2.361-.45 3.242-1.083l.074-.004c4.252-.244 5.355-.924 5.467-1l.1-.07.057-.106C21.024 21.582 23 17.845 23 11.5 23 5.023 17.625 0 13 0z"/></svg>