<svg xmlns="http://www.w3.org/2000/svg" viewBox="0 0 24 24"><path fill="#FFF" d="M11.292 1.751l.501-.501H12c7.023 0 8.952 5.524 8.996 8.88 0-.044.004-.086.004-.13 0-3.343-1.896-9-9-9h-.207l-.501.501C3.813 1.608 3 7.468 3 10c0 .033.003.066.003.1.032-2.604.948-8.244 8.289-8.349z" opacity=".2"/><path fill="#FCD3C0" d="M4.483 12.518C5.08 8.66 7.849 5.5 10 5.5h.5l1 .5c.217-.097 1.822 1.5 4 1.5 2.927 0 3.87 3.296 4.04 5.033.854.556.96 1.526.96 2.233 0 .927-.839 3.006-2.03 3.343l-.038.096C17.918 19.516 16.551 23 12 23s-5.918-3.484-6.432-4.795a10.113 10.113 0 0 0-.038-.096c-1.191-.337-2.03-2.416-2.03-3.343 0-.714.107-1.695.983-2.248z"/><path fill="#010101" d="M5.53 17.86l.038.095C6.082 19.266 7.449 22.75 12 22.75s5.918-3.484 6.432-4.795l.038-.096c1.173-.332 2-2.35 2.025-3.296.003.069.005.138.005.203 0 .927-.839 3.006-2.03 3.343l-.038.096C17.918 19.516 16.551 23 12 23s-5.918-3.484-6.432-4.795a8.662 8.662 0 0 0-.038-.096c-1.191-.337-2.03-2.416-2.03-3.343 0-.065.002-.134.005-.203.024.947.852 2.964 2.025 3.296z" opacity=".1"/><path fill="#D67567" d="M9.825 7.105L8 9.378l.99.136L8.788 11l1.826-2.273-.991-.136z"/><path fill="#4E4E4E" d="M19.943 12c-.124-.248.248-.623 0-.5l-2.127 1.254A2.495 2.495 0 0 0 15.443 11c-1 0-1.859.594-2.258 1.444-.31-.242-.719-.444-1.242-.444s-.933.202-1.242.444A2.497 2.497 0 0 0 8.443 11a2.495 2.495 0 0 0-2.374 1.754L4.443 11.5c-.247-.122-.376-.248-.5 0-.123.247-.247.376 0 .5l2.033 1.826A2.495 2.495 0 0 0 8.443 16a2.496 2.496 0 0 0 2.483-2.337c.108-.173.46-.663 1.017-.663.558 0 .911.493 1.016.663A2.496 2.496 0 0 0 15.443 16c1.267 0 2.305-.95 2.467-2.174L20.443 12c.247-.124-.377.247-.5 0zm-11.5 3c-.827 0-1.5-.673-1.5-1.5s.673-1.5 1.5-1.5 1.5.673 1.5 1.5-.673 1.5-1.5 1.5zm7 0c-.827 0-1.5-.673-1.5-1.5s.673-1.5 1.5-1.5 1.5.673 1.5 1.5-.673 1.5-1.5 1.5z"/><path fill="#5D4B3F" d="M18.062 9.581a4.75 4.75 0 0 0-3.114-1.128c-2.178 0-3.949-1.343-3.967-1.356L10.855 7s-.337.008-.35.01c-1.847.08-4.387 1.328-5.435 4.053-.277 1.284-.143 2.583-.143 2.583l.026.458c-.18-.334-.362-.895-.515-1.554-.413.277-.648.65-.779 1.044l-.166-.54C3.377 12.678 3 11.349 3 10c0-2.532.813-8.392 8.292-8.499L11.793 1H12c7.104 0 9 5.657 9 9 0 1.349-.377 2.678-.493 3.054l-.166.541a1.989 1.989 0 0 0-.647-.94c-.103.427-.225.621-.423.99 0 0 .43-2.288-1.209-4.064z"/><path fill="#010101" d="M14.948 8.453a4.75 4.75 0 0 1 3.114 1.128c1.638 1.776 1.209 4.065 1.209 4.065.198-.37.32-.564.423-.992.328.264.531.593.647.941l.166-.541c.116-.376.493-1.705.493-3.054 0-2.446-1.025-6.123-4.353-7.924-.844 2.19-5.47 4.694-5.792 4.924l.126.097c.018.013 1.789 1.356 3.967 1.356z" opacity=".1"/><linearGradient id="a" x1="11.249" x2="17.344" y1="11.99" y2="18.085" gradientUnits="userSpaceOnUse"><stop offset="0" stop-color="#010101" stop-opacity=".1"/><stop offset="1" stop-color="#010101" stop-opacity="0"/></linearGradient><path fill="url(#a)" d="M19.618 12.594l-1.708 1.232A2.495 2.495 0 0 1 15.443 16a2.496 2.496 0 0 1-2.484-2.337c-.105-.17-.458-.663-1.016-.663-.557 0-.91.49-1.017.663A2.496 2.496 0 0 1 8.443 16a2.453 2.453 0 0 1-1.5-.517l7.21 7.21c2.857-.877 3.857-3.412 4.28-4.488.012-.034.025-.065.037-.096 1.191-.337 2.03-2.416 2.03-3.343 0-.683-.105-1.608-.882-2.172z"/><linearGradient id="b" x1="7.083" x2="9.802" y1="12.866" y2="14.134" gradientUnits="userSpaceOnUse"><stop offset="0" stop-color="#FFF" stop-opacity=".3"/><stop offset="1" stop-color="#FFF" stop-opacity="0"/></linearGradient><circle cx="8.443" cy="13.5" r="1.5" fill="url(#b)"/><linearGradient id="c" x1="14.083" x2="16.802" y1="12.866" y2="14.134" gradientUnits="userSpaceOnUse"><stop offset="0" stop-color="#FFF" stop-opacity=".3"/><stop offset="1" stop-color="#FFF" stop-opacity="0"/></linearGradient><circle cx="15.443" cy="13.5" r="1.5" fill="url(#c)"/><linearGradient id="d" x1="2.98" x2="20.373" y1="7.617" y2="15.728" gradientUnits="userSpaceOnUse"><stop offset="0" stop-color="#FFF" stop-opacity=".2"/><stop offset="1" stop-color="#FFF" stop-opacity="0"/></linearGradient><path fill="url(#d)" d="M21 10c0-3.343-1.896-9-9-9h-.207l-.501.501C3.813 1.608 3 7.468 3 10c0 1.349.377 2.678.493 3.054l.166.54.002-.004c-.134.401-.161.821-.161 1.176 0 .927.839 3.006 2.03 3.343l.038.096C6.082 19.516 7.449 23 12 23s5.918-3.484 6.432-4.795l.038-.096c1.191-.337 2.03-2.416 2.03-3.343 0-.353-.026-.772-.16-1.172l.167-.54c.116-.376.493-1.705.493-3.054z"/></svg>