<svg xmlns="http://www.w3.org/2000/svg" viewBox="0 0 24 24"><path fill="#E72D2B" d="M20.58 9.415a1.448 1.448 0 0 0-.58-.337c-.01-1.397-.14-4.925-1.146-5.932C18.115 2.408 15.439 0 12 0S5.885 2.408 5.146 3.146C4.14 4.153 4.011 7.681 4 9.078c-.188.058-.397.16-.58.337C3.229 9.6 3 9.939 3 10.5c0 1.044.482 5.846.503 6.05.017.17.12.32.273.397l.72.36c-.008 1.22.063 3.459.65 4.047.12.119.268.306.442.522C6.268 22.722 7.297 24 8.5 24c.836 0 1.479-.368 1.87-.677.268-.211.588-.323.926-.323h1.408c.338 0 .658.112.926.323.391.309 1.034.677 1.87.677 1.203 0 2.231-1.278 2.912-2.124.174-.216.322-.403.442-.522.587-.588.658-2.828.65-4.047l.72-.36a.498.498 0 0 0 .273-.397c.02-.204.503-5.006.503-6.05 0-.56-.229-.9-.42-1.085z"/><path fill="#010101" d="M15.622 23.75c-.865 0-1.53-.368-1.936-.677a1.568 1.568 0 0 0-.957-.323H11.27c-.35 0-.68.112-.957.323-.406.309-1.07.677-1.936.677-1.023 0-1.921-.863-2.6-1.64C6.452 22.937 7.401 24 8.5 24c.836 0 1.479-.368 1.87-.677.268-.211.588-.323.926-.323h1.408c.338 0 .658.112.926.323.391.309 1.034.677 1.87.677 1.098 0 2.047-1.062 2.723-1.89-.68.777-1.578 1.64-2.601 1.64z" opacity=".1"/><path fill="#F9C612" d="M17.924 8.216l.914-1.829c-.136-1.18-.361-2.203-.692-2.533a11.353 11.353 0 0 0-2.871-2.035C14.217 4.693 13.792 4.526 12 4.526s-2.217.167-3.275-2.707a11.353 11.353 0 0 0-2.871 2.035c-.33.33-.556 1.353-.692 2.533l.914 1.829-.558 1.674a5.88 5.88 0 0 0 .246 4.373c.657 1.389 1.38 3.271 1.38 4.829l-.485 1.456 1.457.971 1.456-.97h4.856l1.456.97 1.457-.97-.486-1.457c0-1.558.724-3.44 1.38-4.83a5.88 5.88 0 0 0 .247-4.372l-.558-1.674z"/><path fill="#FFF" d="M17.34 9.381l.486 1.457s.223.485-1.456.485c-2.428 0-2.428-1.226-2.428-1.226l3.399-.716zM6.66 9.381l-.486 1.457s-.223.485 1.456.485c2.428 0 2.428-1.226 2.428-1.226l-3.399-.716z"/><path fill="#010101" d="M15.884 19.82l-.97-.971H9.086l-.971.971-.971-.728.97.97.972-.97h5.826l.971.97.971-.97z" opacity=".2"/><linearGradient id="a" x1="15.89" x2="18.176" y1="16.529" y2="18.815" gradientUnits="userSpaceOnUse"><stop offset="0" stop-color="#010101" stop-opacity=".1"/><stop offset="1" stop-color="#010101" stop-opacity="0"/></linearGradient><path fill="url(#a)" d="M16.904 18.384c.167-1.614.903-3.155 1.342-4.149.09-.191.173-.393.24-.592-3.294 3.032-4.058 6.905-4.058 6.905l1.456.971 1.457-.97-.486-1.457c0-.23.02-.467.049-.708z"/><path fill="#010101" d="M6.66 9.381s4.126.971 5.34.971 5.34-.971 5.34-.971l1.498-2.994-1.497 2.751s-4.127.971-5.341.971-5.34-.97-5.34-.97L5.161 6.386 6.66 9.381z" opacity=".1"/><linearGradient id="b" x1="168.775" x2="171.067" y1="16.515" y2="18.807" gradientTransform="matrix(-1 0 0 1 176.885 0)" gradientUnits="userSpaceOnUse"><stop offset="0" stop-color="#010101" stop-opacity=".1"/><stop offset="1" stop-color="#010101" stop-opacity="0"/></linearGradient><path fill="url(#b)" d="M7.1 18.381c-.194-1.561-.889-3.171-1.35-4.146a6.273 6.273 0 0 1-.243-.614c3.293 3.032 4.065 6.927 4.065 6.927l-1.456.971-1.457-.97.486-1.457c0-.23-.015-.47-.045-.71z"/><path fill="#EE3325" d="M12 0c-1.352 0-2.579.376-3.624.873l.35.946C9.782 4.693 10.207 4.526 12 4.526s2.217.167 3.275-2.707l.349-.946C14.579.376 13.352 0 12 0z"/><path fill="#010101" d="M8.725 1.82C9.783 4.692 10.208 4.525 12 4.525s2.217.167 3.275-2.707l.105-.285C14.322 4.41 13.792 4.276 12 4.276s-2.306.177-3.363-2.698l.088.241z" opacity=".1"/><path fill="#FFF" d="M3.42 9.665c.183-.177.392-.279.58-.337.01-1.397.14-4.925 1.146-5.932C5.885 2.658 8.561.25 12 .25s6.115 2.408 6.854 3.146C19.86 4.403 19.989 7.931 20 9.328c.187.058.397.16.58.337.186.18.402.508.415 1.04.003-.077.005-.149.005-.205 0-.56-.229-.9-.42-1.085a1.448 1.448 0 0 0-.58-.337c-.01-1.397-.14-4.925-1.146-5.932C18.115 2.408 15.439 0 12 0S5.885 2.408 5.146 3.146C4.14 4.153 4.011 7.681 4 9.078c-.188.058-.397.16-.58.337C3.229 9.6 3 9.939 3 10.5c0 .056.002.128.005.204.013-.53.23-.86.415-1.04z" opacity=".2"/><linearGradient id="c" x1="10.318" x2="18.582" y1="6.825" y2="15.089" gradientUnits="userSpaceOnUse"><stop offset="0" stop-color="#3E2823" stop-opacity=".1"/><stop offset="1" stop-color="#3E2823" stop-opacity=".02"/></linearGradient><path fill="url(#c)" d="M17.924 8.216L17.34 9.38s-4.127.971-5.341.971-5.34-.971-5.34-.971L17.097 19.82l-.243-.728c0-1.558.724-3.44 1.38-4.83a5.88 5.88 0 0 0 .247-4.372l-.558-1.674z"/><linearGradient id="d" x1="2.695" x2="21.071" y1="8.161" y2="16.729" gradientUnits="userSpaceOnUse"><stop offset="0" stop-color="#FFF" stop-opacity=".2"/><stop offset="1" stop-color="#FFF" stop-opacity="0"/></linearGradient><path fill="url(#d)" d="M20.58 9.415a1.448 1.448 0 0 0-.58-.337c-.01-1.397-.14-4.925-1.146-5.932C18.115 2.408 15.439 0 12 0S5.885 2.408 5.146 3.146C4.14 4.153 4.011 7.681 4 9.078c-.188.058-.397.16-.58.337C3.229 9.6 3 9.939 3 10.5c0 1.044.482 5.846.503 6.05.017.17.12.32.273.397l.72.36c-.008 1.22.063 3.459.65 4.047.12.119.268.306.442.522C6.268 22.722 7.297 24 8.5 24c.836 0 1.479-.368 1.87-.677.268-.211.588-.323.926-.323h1.408c.338 0 .658.112.926.323.391.309 1.034.677 1.87.677 1.203 0 2.231-1.278 2.912-2.124.174-.216.322-.403.442-.522.587-.588.658-2.828.65-4.047l.72-.36a.498.498 0 0 0 .273-.397c.02-.204.503-5.006.503-6.05 0-.56-.229-.9-.42-1.085z"/></svg>