<svg xmlns="http://www.w3.org/2000/svg" viewBox="0 0 24 24"><path fill="#55332A" d="M5.5 22.5A.5.5 0 015 22V8a.5.5 0 111 0v14a.5.5 0 01-.5.5zM18.5 22a.5.5 0 01-.5-.5v-14a.5.5 0 111 0v14a.5.5 0 01-.5.5z"/><path fill="#48241B" d="M16.896 6.901a.992.992 0 0 0-.238-.068l-2-.32-.16-.013H9.502l-.16.013-2 .32a.992.992 0 0 0-.238.068c-.267.116-1.604.83-1.604 3.599v13a.5.5 0 0 0 .5.5h1a.5.5 0 0 0 .5-.5v-4.2c.574.448 1.28.865 2.057 1.18.158.837.443 2.472.443 3.02a.5.5 0 1 0 1 0c0-.845.302-2.5 1-2.5.748 0 1 1.717 1 2.5a.5.5 0 1 0 1 0c0-.548.285-2.183.443-3.02A8.679 8.679 0 0 0 16.5 19.3v4.2a.5.5 0 0 0 .5.5h1a.5.5 0 0 0 .5-.5v-13c0-2.768-1.337-3.483-1.604-3.599z"/><path fill="#F79572" d="M12 20c-1.87 0-3.62-1.17-4.5-2.037V10.5c0-1.148.295-1.606.38-1.729l1.7-.271h4.84l1.673.268c.132.159.407.625.407 1.732v7.463C15.62 18.83 13.87 20 12 20z"/><linearGradient id="a" x1="8.135" x2="16.306" y1="10.508" y2="13.893" gradientUnits="userSpaceOnUse"><stop offset="0" stop-color="#303C42" stop-opacity=".2"/><stop offset="1" stop-color="#303C42" stop-opacity=".02"/></linearGradient><path fill="url(#a)" d="M16.5 17.963V10.5c0-1.107-.275-1.573-.407-1.732l-.207-.034L7.5 10.5l8.164 8.164c.327-.237.61-.479.836-.701z"/><path fill="#48241B" d="M8.215 16.927c-.23-.153.42-1.427 1.785-1.427.596 0 .91-.093 1.022-.148A.5.5 0 0112 15.5c0 .374-.26 1-2 1-.837 0-1.696.485-1.785.427zM12 19.5a.501.501 0 01-.475-.342l-.5-1.5a.5.5 0 01.317-.632c.263-.088 1.056-.087 1.316 0a.5.5 0 01.317.632l-.5 1.5A.501.501 0 0112 19.5z"/><path fill="#624138" d="M4.5 24a.5.5 0 0 1-.5-.5v-14a.5.5 0 1 1 1 0v14a.5.5 0 0 1-.5.5z"/><path fill="#48241B" d="M19.5 24a.5.5 0 0 1-.5-.5v-14a.5.5 0 1 1 1 0v14a.5.5 0 0 1-.5.5z"/><circle cx="4.5" cy="19" r="1" fill="#A03C22"/><circle cx="4.5" cy="21" r="1" fill="#FFDEAD"/><circle cx="19.5" cy="16" r="1" fill="#F9C612"/><radialGradient id="b" cx="19.5" cy="16" r="1" gradientUnits="userSpaceOnUse"><stop offset="0" stop-color="#FFF"/><stop offset="1" stop-color="#FFF" stop-opacity="0"/></radialGradient><circle cx="19.5" cy="16" r="1" fill="url(#b)" fill-opacity=".84" opacity=".2"/><path fill="#3E2723" d="M9 13c-.552 0-1-.449-1-1a.5.5 0 0 1 .5-.5h1a.5.5 0 0 1 .5.5c0 .551-.448 1-1 1z"/><circle cx="15" cy="12" r="1" fill="#3E2723"/><linearGradient id="c" x1="10.599" x2="16.289" y1="12.956" y2="15.313" gradientUnits="userSpaceOnUse"><stop offset="0" stop-color="#3E2723" stop-opacity=".02"/><stop offset="1" stop-color="#3E2723" stop-opacity=".2"/></linearGradient><path fill="url(#c)" d="M16.093 8.768L14.42 8.5H12V20c1.87 0 3.62-1.17 4.5-2.037V10.5c0-1.107-.275-1.573-.407-1.732z"/><path fill="#EE3325" d="M14.5 8h-5c-1.542 0-2.984.667-3.887 1.263A6.63 6.63 0 0 0 5.5 10.5v1l1.639-.643C7.157 10.85 9.043 10 12 10c2.955 0 4.85.852 4.861.857l1.639.643v-1a6.63 6.63 0 0 0-.113-1.237C17.484 8.667 16.042 8 14.5 8z"/><linearGradient id="d" x1="6.795" x2="16.13" y1="8.17" y2="12.036" gradientUnits="userSpaceOnUse"><stop offset="0" stop-color="#3E2723" stop-opacity=".3"/><stop offset=".5" stop-color="#3E2723" stop-opacity=".02"/><stop offset="1" stop-color="#3E2723" stop-opacity=".3"/></linearGradient><path fill="url(#d)" d="M14.5 8h-5c-1.542 0-2.984.667-3.887 1.263A6.63 6.63 0 0 0 5.5 10.5v1l1.639-.643C7.157 10.85 9.043 10 12 10c2.955 0 4.85.852 4.861.857l1.639.643v-1a6.63 6.63 0 0 0-.113-1.237C17.484 8.667 16.042 8 14.5 8z"/><path fill="#303C42" d="M18.387 9.263C17.484 8.667 16.042 8 14.5 8h-5c-1.542 0-2.984.667-3.887 1.263A6.63 6.63 0 0 0 5.5 10.5v.25c0-.476.046-.878.113-1.237C6.516 8.917 7.958 8.25 9.5 8.25h5c1.542 0 2.984.667 3.887 1.263.067.36.113.761.113 1.237v-.25a6.63 6.63 0 0 0-.113-1.237z" opacity=".16"/><path fill="#303C42" d="M12 10c-2.957 0-4.843.849-4.861.857L5.5 11.5v.25l1.639-.643c.018-.008 1.904-.857 4.861-.857 2.955 0 4.85.852 4.861.857l1.639.643v-.25l-1.639-.643C16.85 10.852 14.955 10 12 10z" opacity=".16"/><path fill="#313C42" d="M4 10.417C4.745 9.597 7.322 8.125 9.24 8 10.093 6.875 12 2 12 2S7.961 1 4.598 1 0 4 0 4.938s4 5.479 4 5.479z"/><path fill="#E57373" d="M20 10.417c-.745-.82-3.322-2.292-5.24-2.417C13.907 6.875 12 2 12 2s4.039-1 7.402-1S24 4 24 4.938s-4 5.479-4 5.479z"/><path fill="#834F3F" d="M19.402 1c-.871 0-1.787.068-2.667.167C16.25.77 14.9 0 12 0 9.1 0 7.73.768 7.244 1.165A24.083 24.083 0 0 0 4.598 1C1.235 1 0 4 0 4.938s4 5.479 4 5.479C4.745 9.597 7.322 8.125 9.24 8h5.52c1.918.125 4.495 1.596 5.24 2.417 0 0 4-4.542 4-5.48S22.765 1 19.402 1z"/><path fill="#FFF" d="M7.244 1.415C7.73 1.018 9.1.25 12 .25c2.9 0 4.25.77 4.735 1.167v-.25C16.25.77 14.9 0 12 0 9.1 0 7.73.768 7.244 1.165v.25z" opacity=".2"/><path fill="#48241B" d="M15.785 16.927c.23-.153-.42-1.427-1.785-1.427-.596 0-.91-.093-1.022-.148A.5.5 0 0 0 12 15.5c0 .374.26 1 2 1 .837 0 1.696.485 1.785.427z"/><path fill="#663426" d="M4 10.417C4.745 9.597 7.322 8.125 9.24 8 9.976 7.03 12 2.241 12 2.241V2S7.961 1 4.598 1 0 4 0 4.938s4 5.479 4 5.479zM20 10.417c-.745-.82-3.322-2.292-5.24-2.417C14.125 7.163 12 2.241 12 2.241V2s4.039-1 7.402-1S24 4 24 4.938s-4 5.479-4 5.479z"/><path fill="#FFF" d="M19.402 1C16.04 1 12 2 12 2S7.961 1 4.598 1 0 4 0 4.938c0 .017.01.045.014.065C.15 3.911 1.43 1.25 4.598 1.25c3.084 0 6.817.851 7.402.991.585-.14 4.318-.991 7.402-.991 3.168 0 4.447 2.66 4.584 3.753.003-.02.014-.048.014-.066C24 4 22.765 1 19.402 1z" opacity=".2"/><path fill="#010101" d="M14.867 7.75H9.133c-1.958.123-4.566 1.541-5.392 2.369l.259.298C4.745 9.597 7.322 8.125 9.24 8h5.52c1.918.125 4.495 1.596 5.24 2.417l.259-.298c-.826-.828-3.434-2.246-5.392-2.369z" opacity=".1"/><radialGradient id="e" cx="4.116" cy="18.568" r="1.926" gradientUnits="userSpaceOnUse"><stop offset="0" stop-color="#FFF"/><stop offset="1" stop-color="#FFF" stop-opacity="0"/></radialGradient><circle cx="4.5" cy="19" r="1" fill="url(#e)" fill-opacity=".84" opacity=".2"/><radialGradient id="f" cx="4.116" cy="20.568" r="1.926" gradientUnits="userSpaceOnUse"><stop offset="0" stop-color="#FFF"/><stop offset="1" stop-color="#FFF" stop-opacity="0"/></radialGradient><circle cx="4.5" cy="21" r="1" fill="url(#f)" fill-opacity=".84" opacity=".75"/><linearGradient id="g" x1="-.864" x2="22.907" y1="6.293" y2="17.377" gradientUnits="userSpaceOnUse"><stop offset="0" stop-color="#FFF" stop-opacity=".2"/><stop offset="1" stop-color="#FFF" stop-opacity="0"/></linearGradient><path fill="url(#g)" d="M20 15.153v-4.736s4-4.542 4-5.48S22.765 1 19.402 1c-.871 0-1.787.068-2.667.167C16.25.77 14.9 0 12 0 9.1 0 7.73.768 7.244 1.165A24.083 24.083 0 0 0 4.598 1C1.235 1 0 4 0 4.938s4 5.479 4 5.479v7.737c-.293.174-.5.48-.5.846s.207.672.5.846v.308c-.293.174-.5.48-.5.846s.207.672.5.846V23.5a.5.5 0 1 0 1 0V22a.5.5 0 0 0 .5.5v1a.5.5 0 0 0 .5.5h1a.5.5 0 0 0 .5-.5v-4.2c.574.448 1.28.865 2.057 1.18.158.837.443 2.472.443 3.02a.5.5 0 1 0 1 0c0-.845.302-2.5 1-2.5.748 0 1 1.717 1 2.5a.5.5 0 1 0 1 0c0-.548.285-2.183.443-3.02A8.679 8.679 0 0 0 16.5 19.3v4.2a.5.5 0 0 0 .5.5h1a.5.5 0 0 0 .5-.5V22a.5.5 0 0 0 .5-.5v2a.5.5 0 1 0 1 0v-6.653c.294-.174.5-.48.5-.847a.986.986 0 0 0-.5-.847z"/></svg>