<svg xmlns="http://www.w3.org/2000/svg" viewBox="0 0 24 24"><path fill="#FCD3C0" d="M16.278 14.75h.22c2.26 0 3.085-2.66 3.228-3.192l.017-.063-.016-.064c-.102-.394-.56-1.681-2.229-1.681-1.833 0-4.769 2.339-5.498 2.944-.73-.605-3.665-2.944-5.498-2.944-1.668 0-2.127 1.287-2.229 1.681l-.016.064.017.063c.143.533.968 3.192 3.227 3.192h.221l.932 8.337C9.712 23.68 11.079 24 12 24c1.053 0 2.377-.37 3.345-.908l.932-8.342z"/><linearGradient id="a" x1="6.814" x2="15.997" y1="9.65" y2="18.833" gradientUnits="userSpaceOnUse"><stop offset="0" stop-color="#3E2823" stop-opacity=".1"/><stop offset="1" stop-color="#3E2823" stop-opacity=".02"/></linearGradient><path fill="url(#a)" d="M16.278 14.75h.22c2.26 0 3.085-2.66 3.228-3.192l.017-.063-.016-.064c-.102-.394-.56-1.681-2.229-1.681-1.833 0-4.769 2.339-5.498 2.944-.73-.605-3.665-2.944-5.498-2.944-1.668 0-2.127 1.287-2.229 1.681l-.016.064.017.063c.143.533.968 3.192 3.227 3.192h.221l.932 8.337C9.712 23.68 11.079 24 12 24c1.053 0 2.377-.37 3.345-.908l.932-8.342z"/><path fill="#EF393E" d="M20.498 11.389V8c0-4.261-3.97-7.999-8.496-8H12C7.473.001 3.504 3.74 3.504 8v3.389c-.172.417-.456 1.594-.496 4.835l.246.341c.36.3.652.66.866 1.075.379.732.98 1.922 1.609 3.253.583 1.233 1.455 1.834 2.083 2.121l.404.184-.936-7.95-.195-.023c-2.558-.311-3.296-3.537-3.327-3.674.13-.857.872-2.301 2.745-2.301 1.882 0 5.499 3.25 5.499 3.25s3.614-3.25 5.497-3.25c1.873 0 2.615 1.444 2.744 2.301-.03.137-.768 3.363-3.326 3.674l-.195.024-.936 7.95.404-.185c.628-.287 1.5-.888 2.083-2.12.628-1.332 1.23-2.522 1.61-3.254.213-.415.504-.776.865-1.075l.246-.341c-.04-3.24-.324-4.418-.496-4.835z"/><linearGradient id="b" x1="5.045" x2="17.36" y1="5.05" y2="17.364" gradientUnits="userSpaceOnUse"><stop offset="0" stop-color="#3E2823" stop-opacity=".02"/><stop offset="1" stop-color="#3E2823" stop-opacity=".2"/></linearGradient><path fill="url(#b)" d="M20.498 11.389V8c0-4.261-3.97-7.999-8.496-8H12C7.473.001 3.504 3.74 3.504 8v3.389c-.172.417-.456 1.594-.496 4.835l.246.341c.36.3.652.66.866 1.075.379.732.98 1.922 1.609 3.253.583 1.233 1.455 1.834 2.083 2.121l.404.184-.936-7.95-.195-.023c-2.558-.311-3.296-3.537-3.327-3.674.13-.857.872-2.301 2.745-2.301 1.882 0 5.499 3.25 5.499 3.25s3.614-3.25 5.497-3.25c1.873 0 2.615 1.444 2.744 2.301-.03.137-.768 3.363-3.326 3.674l-.195.024-.936 7.95.404-.185c.628-.287 1.5-.888 2.083-2.12.628-1.332 1.23-2.522 1.61-3.254.213-.415.504-.776.865-1.075l.246-.341c-.04-3.24-.324-4.418-.496-4.835z"/><path fill="#D8A580" d="M13 20h-2a.5.5 0 1 1 0-1h2a.5.5 0 1 1 0 1z"/><circle cx="8.5" cy="12.5" r="1" fill="#333"/><path fill="#E4E1DC" d="M20.991 16.067l-.256.19a3.693 3.693 0 0 0-1.076 1.269c-.379.733-.983 1.926-1.613 3.26-.553 1.173-1.382 1.737-1.96 2l.761-6.47c1.068.26 2.505.09 2.505.09s-1.01-.673-1.625-1.132c2.113-.802 2.73-3.534 2.76-3.669l.02-.095-.016-.094C20.348 10.58 19.537 9 17.498 9c-.825 0-1.79.393-2.696.873.113-1.382 1.528-4.81 1.528-4.81s-2.924 2.1-4.33 5.425c-1.404-3.325-4.328-5.425-4.328-5.425s1.415 3.43 1.527 4.811C8.294 9.394 7.33 9 6.502 9c-2.04 0-2.85 1.58-2.993 2.416l-.016.094.02.095c.03.135.647 2.867 2.76 3.67-.615.458-1.625 1.131-1.625 1.131s1.437.17 2.505-.09l.761 6.47c-.578-.263-1.407-.827-1.96-2a103.826 103.826 0 0 0-1.613-3.26 3.693 3.693 0 0 0-1.076-1.268l-.256-.191s-.014.853-.007.967a.695.695 0 0 0 .026.124.414.414 0 0 0 .032.078c.01.017.965 1.806 1.99 3.977 1.142 2.423 3.22 2.677 3.311 2.69l.647.097-1.062-9.5H7.5c-2.072 0-2.844-2.478-2.986-3.007.093-.362.501-1.493 1.987-1.493C8.493 10 12 13.02 12 13.02S15.506 10 17.498 10c1.486 0 1.894 1.131 1.987 1.493-.142.53-.914 3.007-2.986 3.007h-.445L14.992 24l.647-.096c.09-.014 2.169-.268 3.311-2.69a99.32 99.32 0 0 1 1.99-3.978s.018-.032.032-.078a.695.695 0 0 0 .026-.124c.007-.114-.007-.967-.007-.967z"/><path fill="#4F3B80" d="M20.991 16.067l-.256.19a3.693 3.693 0 0 0-1.076 1.269c-.379.733-.983 1.926-1.613 3.26-.553 1.173-1.382 1.737-1.96 2l.761-6.47c1.068.26 2.505.09 2.505.09s-1.01-.673-1.625-1.132c2.113-.802 2.73-3.534 2.76-3.669l.02-.095-.016-.094C20.348 10.58 19.537 9 17.498 9c-.825 0-1.79.393-2.696.873.113-1.382 1.528-4.81 1.528-4.81s-2.924 2.1-4.33 5.425c-1.404-3.325-4.328-5.425-4.328-5.425s1.415 3.43 1.527 4.811C8.294 9.394 7.33 9 6.502 9c-2.04 0-2.85 1.58-2.993 2.416l-.016.094.02.095c.03.135.647 2.867 2.76 3.67-.615.458-1.625 1.131-1.625 1.131s1.437.17 2.505-.09l.761 6.47c-.578-.263-1.407-.827-1.96-2a103.826 103.826 0 0 0-1.613-3.26 3.693 3.693 0 0 0-1.076-1.268l-.256-.191s-.014.853-.007.967a.695.695 0 0 0 .026.124.414.414 0 0 0 .032.078c.01.017.965 1.806 1.99 3.977 1.142 2.423 3.22 2.677 3.311 2.69l.647.097-1.062-9.5H7.5c-2.072 0-2.844-2.478-2.986-3.007.093-.362.501-1.493 1.987-1.493C8.493 10 12 13.02 12 13.02S15.506 10 17.498 10c1.486 0 1.894 1.131 1.987 1.493-.142.53-.914 3.007-2.986 3.007h-.445L14.992 24l.647-.096c.09-.014 2.169-.268 3.311-2.69a99.32 99.32 0 0 1 1.99-3.978s.018-.032.032-.078a.695.695 0 0 0 .026-.124c.007-.114-.007-.967-.007-.967z"/><linearGradient id="c" x1="11.891" x2="17.957" y1="5.5" y2="11.566" gradientUnits="userSpaceOnUse"><stop offset="0" stop-color="#010101" stop-opacity=".1"/><stop offset="1" stop-color="#010101" stop-opacity="0"/></linearGradient><path fill="url(#c)" d="M9.669 6.913c.82.911 1.721 2.127 2.333 3.575.123-.29.26-.568.403-.839L9.669 6.912zm10.83 4.476V9.23L16.33 5.063s-1.414 3.428-1.527 4.81C15.708 9.393 16.673 9 17.5 9c2.035 0 2.845 1.574 2.991 2.41l.013-.007-.005-.014z"/><path fill="#010101" d="M20.998 16.784a.695.695 0 01-.026.124c-.014.046-.032.078-.032.078-.01.017-.965 1.806-1.99 3.977-1.142 2.423-3.22 2.677-3.31 2.69l-.618.093-.029.254.646-.096c.091-.014 2.17-.268 3.312-2.69a99.322 99.322 0 011.989-3.978s.018-.032.032-.078a.695.695 0 00.026-.124c.002-.038.002-.16.001-.302v.052zM19.485 11.493c.015-.05-.01-.215 0-.25-.093-.362-.501-1.493-1.987-1.493-1.992 0-5.498 3.02-5.498 3.02S8.493 9.75 6.502 9.75c-1.486 0-1.894 1.131-1.987 1.493.01.035-.015.2 0 .25.12-.535.635-1.493 1.987-1.493C8.493 10 12 13.02 12 13.02S15.506 10 17.498 10c1.352 0 1.82.925 1.987 1.493zM8.362 23.654c-.09-.014-2.169-.268-3.31-2.69a99.32 99.32 0 00-1.99-3.978s-.018-.032-.033-.078a.695.695 0 01-.025-.124l-.001-.052c-.001.142-.002.264 0 .302a.695.695 0 00.026.124.414.414 0 00.033.078c.01.017.965 1.806 1.99 3.977 1.141 2.423 3.22 2.677 3.31 2.69L9.01 24l-.029-.254-.618-.092z" opacity=".1"/><circle cx="15.5" cy="12.5" r="1" fill="#333"/><path fill="#FFF" d="M12 .25h.001c4.528.001 8.497 3.739 8.497 8V8c0-4.261-3.97-7.999-8.496-8H12C7.473.001 3.504 3.74 3.504 8v.25c0-4.261 3.97-7.999 8.496-8z" opacity=".2"/><linearGradient id="d" x1="2.719" x2="21.179" y1="8.116" y2="16.724" gradientUnits="userSpaceOnUse"><stop offset="0" stop-color="#FFF" stop-opacity=".2"/><stop offset="1" stop-color="#FFF" stop-opacity="0"/></linearGradient><path fill="url(#d)" d="M20.991 16.067c-.048-3.113-.324-4.269-.493-4.678V8c0-4.261-3.97-7.999-8.496-8H12C7.473.001 3.504 3.74 3.504 8v3.389c-.169.41-.445 1.565-.492 4.68l-.003-.002s-.014.853-.007.967a.695.695 0 0 0 .026.124.414.414 0 0 0 .032.078c.01.017.965 1.806 1.99 3.977 1.142 2.423 3.22 2.677 3.311 2.69l.647.097-.089-.789c1.015.506 2.233.789 3.082.789.963 0 2.142-.318 3.079-.783l-.088.783.647-.096c.09-.014 2.169-.268 3.312-2.69a99.322 99.322 0 0 1 1.989-3.978s.018-.032.032-.078a.695.695 0 0 0 .026-.124c.007-.114-.007-.967-.007-.967z"/></svg>