<svg xmlns="http://www.w3.org/2000/svg" viewBox="0 0 24 24"><path fill="#7D726D" d="M20.992 11.719L21 10c0-4.962-4.038-9-9-9s-9 4.038-9 9.002l.008 1.717C2 12.679 2 14.037 2 14.5c0 1.157.616 3.536 2.088 4.354.215.559.963 1.848 3.423 2.586l8.907.021.07-.02c2.461-.739 3.21-2.028 3.424-2.587C21.384 18.036 22 15.657 22 14.5c0-.463 0-1.82-1.008-2.781z"/><path fill="#FCD3C0" d="M5 11v4.828c0 1.824.584 3.533 1.644 4.81C7.944 22.207 9.746 23 12 23s4.056-.794 5.356-2.361C18.416 19.36 19 17.652 19 15.829V11H5z"/><path fill="#010101" d="M12 22.75c-2.254 0-4.056-.794-5.356-2.361C5.584 19.11 5 17.402 5 15.579v.25c0 1.823.584 3.532 1.644 4.81C7.944 22.206 9.746 23 12 23s4.056-.794 5.356-2.361C18.416 19.36 19 17.652 19 15.829v-.25c0 1.823-.584 3.532-1.644 4.81-1.3 1.567-3.102 2.361-5.356 2.361z" opacity=".1"/><path fill="#303C42" d="M17.448 9.347A11.62 11.62 0 0 0 14.632 9H9.368c-.95 0-1.896.117-2.817.347A2.046 2.046 0 0 0 5 11.334v.166C5 13.43 6.57 15 8.5 15c.753 0 1.499-.249 2.1-.7l.8-.6a1.03 1.03 0 0 1 1.2 0l.8.6c.601.451 1.347.7 2.1.7 1.93 0 3.5-1.57 3.5-3.5v-.166c0-.942-.638-1.759-1.552-1.987z"/><linearGradient id="a" x1="5.867" x2="17.902" y1="9.019" y2="14.631" gradientUnits="userSpaceOnUse"><stop offset="0" stop-color="#FFF" stop-opacity=".2"/><stop offset="1" stop-color="#FFF" stop-opacity="0"/></linearGradient><path fill="url(#a)" d="M17.448 9.347A11.62 11.62 0 0 0 14.632 9H9.368c-.95 0-1.896.117-2.817.347A2.046 2.046 0 0 0 5 11.334v.166C5 13.43 6.57 15 8.5 15c.753 0 1.499-.249 2.1-.7l.8-.6a1.03 1.03 0 0 1 1.2 0l.8.6c.601.451 1.347.7 2.1.7 1.93 0 3.5-1.57 3.5-3.5v-.166c0-.942-.638-1.759-1.552-1.987z"/><linearGradient id="b" x1="10.364" x2="17.504" y1="10.588" y2="17.727" gradientUnits="userSpaceOnUse"><stop offset="0" stop-color="#010101" stop-opacity=".1"/><stop offset="1" stop-color="#010101" stop-opacity="0"/></linearGradient><path fill="url(#b)" d="M15.5 15a3.519 3.519 0 0 1-2.1-.7l-.8-.6a1.03 1.03 0 0 0-1.2 0l-.8.6c-.601.451-1.347.7-2.1.7a3.49 3.49 0 0 1-2.474-1.026l8.59 8.59a6.26 6.26 0 0 0 2.74-1.925C18.416 19.36 19 17.652 19 15.829V11.5c0 1.93-1.57 3.5-3.5 3.5z"/><path fill="#313C42" d="M16.5 19.5h-2a.5.5 0 1 1 0-1h2c1.378 0 2.5-1.122 2.5-2.5a.5.5 0 1 1 1 0c0 1.93-1.57 3.5-3.5 3.5z"/><path fill="#313C42" d="M14 20h-1c-.551 0-1-.449-1-1s.449-1 1-1h1c.551 0 1 .449 1 1s-.449 1-1 1z"/><path fill="#010101" d="M14.062 19.75h-1.125c-.362 0-.678-.162-.884-.43A.98.98 0 0 0 13 20h1c.445 0 .829-.298.958-.701a1.14 1.14 0 0 1-.896.451z" opacity=".2"/><path fill="#FFF" d="M12.937 18.25h1.125c.363 0 .687.184.892.451A1.009 1.009 0 0 0 14 18h-1c-.445 0-.827.302-.956.705a1.14 1.14 0 0 1 .893-.455z" opacity=".2"/><path fill="#4F4640" d="M20.992 11.719L21 10c0-4.962-4.038-9-9-9s-9 4.038-9 9.002l.008 1.717C2 12.679 2 14.037 2 14.5c0 1.157.616 3.536 2.088 4.354.211.55.947 1.804 3.313 2.547a6.61 6.61 0 0 1-.757-.762C5.584 19.36 5 17.652 5 15.829v-4.495c0-.942.638-1.76 1.552-1.987A11.62 11.62 0 0 1 9.368 9h5.264c.95 0 1.896.117 2.816.347A2.045 2.045 0 0 1 19 11.334v4.494c0 1.824-.584 3.533-1.644 4.81-.234.283-.49.531-.757.763 2.366-.743 3.102-1.997 3.313-2.547C21.384 18.036 22 15.657 22 14.5c0-.463 0-1.82-1.008-2.781z"/><path fill="#FFF" d="M19 11.334c0-.942-.638-1.759-1.552-1.987A11.62 11.62 0 0 0 14.632 9H9.368c-.95 0-1.896.117-2.817.347A2.046 2.046 0 0 0 5 11.334v.166c0 .013.004.025.004.038.02-.922.65-1.717 1.547-1.941.92-.23 1.868-.347 2.817-.347h5.264c.95 0 1.896.117 2.816.347a2.043 2.043 0 0 1 1.548 1.941c0-.013.004-.025.004-.038v-.166z" opacity=".2"/><path fill="#010101" d="M15.5 14.75a3.519 3.519 0 0 1-2.1-.7l-.8-.6a1.03 1.03 0 0 0-1.2 0l-.8.6c-.601.451-1.347.7-2.1.7a3.502 3.502 0 0 1-3.496-3.462c0 .016-.004.03-.004.046v.166C5 13.43 6.57 15 8.5 15c.753 0 1.499-.249 2.1-.7l.8-.6a1.03 1.03 0 0 1 1.2 0l.8.6c.601.451 1.347.7 2.1.7 1.93 0 3.5-1.57 3.5-3.5v-.166c0-.016-.003-.03-.004-.046A3.502 3.502 0 0 1 15.5 14.75z" opacity=".2"/><path fill="#FFF" d="M12 1.25c4.955 0 8.988 4.027 8.999 8.98L21 10c0-4.962-4.038-9-9-9s-9 4.038-9 9.002l.001.23C3.012 5.276 7.045 1.25 12 1.25z" opacity=".2"/><linearGradient id="c" x1="3.1" x2="21.68" y1="7.793" y2="16.457" gradientUnits="userSpaceOnUse"><stop offset="0" stop-color="#FFF" stop-opacity=".2"/><stop offset="1" stop-color="#FFF" stop-opacity="0"/></linearGradient><path fill="url(#c)" d="M20.992 11.719L21 10c0-4.962-4.038-9-9-9s-9 4.038-9 9.002l.008 1.717C2 12.679 2 14.037 2 14.5c0 1.157.616 3.536 2.088 4.354.211.55.947 1.804 3.313 2.547C8.613 22.457 10.152 23 12 23c1.848 0 3.386-.543 4.6-1.599 2.365-.743 3.1-1.997 3.312-2.547C21.384 18.036 22 15.657 22 14.5c0-.463 0-1.82-1.008-2.781z"/></svg>