<svg xmlns="http://www.w3.org/2000/svg" viewBox="0 0 24 24"><path fill="#FCD3C0" d="M19.837 15.741A.987.987 0 0 1 19.5 15v-2.5a.5.5 0 0 0-.5-.5c-1.294 0-4.446-2.966-6.128-4.835a.501.501 0 0 0-.853.197c-.907 3.175-7.07 4.636-7.132 4.65a.5.5 0 0 0-.387.488V15c0 .283-.12.546-.337.741a.499.499 0 0 0-.11.6c.28.545.835 1.412 1.612 1.615C7.693 22.12 10.225 23 12 23s4.307-.88 6.335-5.044c.777-.203 1.332-1.07 1.612-1.614a.499.499 0 0 0-.11-.6z"/><path fill="#5D4B3F" d="M12 1C7.812 1 4.552 4.104 3.888 8.722a.505.505 0 0 0 .002.153l.617 3.707a.502.502 0 0 0 .605.405c.258-.06 5.888-1.393 7.555-4.571C13.982 9.804 17.207 13 19 13a.5.5 0 0 0 .493-.418l.617-3.707a.505.505 0 0 0 .002-.153C19.448 4.104 16.188 1 12 1z"/><path fill="#FFF" d="M3.897 8.92C4.578 4.33 7.828 1.25 12 1.25s7.422 3.08 8.103 7.67l.007-.045a.505.505 0 0 0 .002-.153C19.448 4.104 16.188 1 12 1S4.552 4.104 3.888 8.722a.505.505 0 0 0 .002.153l.007.045z" opacity=".1"/><path fill="#333" d="M8.5 12.5h-1a.5.5 0 100 1c0 .551.449 1 1 1s1-.449 1-1-.449-1-1-1zM16.5 12.5h-1c-.551 0-1 .449-1 1s.449 1 1 1 1-.449 1-1a.5.5 0 100-1z"/><path fill="#010101" d="M19.947 16.092c-.28.544-.835 1.41-1.612 1.614-2.028 4.164-4.56 5.044-6.335 5.044s-4.307-.88-6.335-5.044c-.777-.203-1.332-1.07-1.612-1.614-.02-.039-.01-.081-.018-.122a.48.48 0 00.018.372c.28.544.835 1.41 1.612 1.614C7.693 22.12 10.225 23 12 23s4.307-.88 6.335-5.044c.777-.203 1.332-1.07 1.612-1.614a.48.48 0 00.018-.372c-.009.041.002.083-.018.122zM19 13a.5.5 0 00.493-.418l.617-3.707a.505.505 0 00.002-.153c-.541-3.765-2.808-6.522-5.896-7.413.214 1.955-1.122 6.405-1.549 7.107C13.982 9.804 17.207 13 19 13z" opacity=".1"/><path fill="#5D4B3F" d="M21 8h-.5c-1.103 0-2 .897-2 2v5c0 1.103.897 2 2 2h.5c1.103 0 2-.897 2-2v-5c0-1.103-.897-2-2-2zM3.5 8H3c-1.103 0-2 .897-2 2v5c0 1.103.897 2 2 2h.5c1.103 0 2-.897 2-2v-5c0-1.103-.897-2-2-2z"/><path fill="#010101" d="M21 16.75h-.5c-1.103 0-2-.897-2-2V15c0 1.103.897 2 2 2h.5c1.103 0 2-.897 2-2v-.25c0 1.103-.897 2-2 2zM3.5 16.75H3c-1.103 0-2-.897-2-2V15c0 1.103.897 2 2 2h.5c1.103 0 2-.897 2-2v-.25c0 1.103-.897 2-2 2z" opacity=".1"/><path fill="#FFF" d="M21 8h-.5c-1.103 0-2 .897-2 2v.25c0-1.103.897-2 2-2h.5c1.103 0 2 .897 2 2V10c0-1.103-.897-2-2-2zM3.5 8H3c-1.103 0-2 .897-2 2v.25c0-1.103.897-2 2-2h.5c1.103 0 2 .897 2 2V10c0-1.103-.897-2-2-2z" opacity=".1"/><linearGradient id="a" x1="2.081" x2="22.407" y1="7.238" y2="16.716" gradientUnits="userSpaceOnUse"><stop offset="0" stop-color="#FFF" stop-opacity=".2"/><stop offset="1" stop-color="#FFF" stop-opacity="0"/></linearGradient><path fill="url(#a)" d="M21 8h-.5c-.176 0-.343.03-.506.073C19.129 3.817 15.988 1 12 1S4.871 3.817 4.006 8.073A1.977 1.977 0 0 0 3.5 8H3c-1.103 0-2 .897-2 2v5c0 1.103.897 2 2 2h.5c.296 0 .575-.069.828-.185.31.478.763.99 1.337 1.141C7.693 22.12 10.225 23 12 23s4.307-.88 6.335-5.044c.574-.15 1.027-.663 1.337-1.14.253.115.532.184.828.184h.5c1.103 0 2-.897 2-2v-5c0-1.103-.897-2-2-2z"/></svg>