<svg xmlns="http://www.w3.org/2000/svg" viewBox="0 0 24 24"><path fill="#4E4E4E" d="M23.817 18.897L21 10.915V10c0-4.363-3.117-8.086-7.5-8.86h-3a.486.486 0 0 0-.088.008A8.982 8.982 0 0 0 3 10v.915L.183 18.896A3.19 3.19 0 0 0 0 19.963a3.175 3.175 0 0 0 2.477 3.121C4.327 23.502 7.48 24 12 24s7.673-.498 9.523-.916A3.175 3.175 0 0 0 24 19.963c0-.365-.062-.724-.183-1.066z"/><path fill="#333" d="M23.559 21.59L19.04 11.2a.547.547 0 0 1-.03-.098c-.16-.765-.494-1.3-1.023-1.635-.98-.623-2.687-.615-5.373.02a.483.483 0 0 1-.115.013h-1a.483.483 0 0 1-.115-.014c-2.686-.634-4.394-.642-5.373-.02-.529.337-.863.871-1.023 1.636a.547.547 0 0 1-.03.097L.441 21.59c-.048-.082-.087-.169-.128-.256a3.149 3.149 0 0 0 2.164 1.751C4.327 23.502 7.48 24 12 24s7.673-.498 9.523-.916a3.149 3.149 0 0 0 2.164-1.75c-.04.086-.08.173-.128.256z"/><linearGradient id="a" x1="1.404" x2="1.735" y1="14.829" y2="14.966" gradientUnits="userSpaceOnUse"><stop offset="0" stop-color="#3E2723" stop-opacity=".2"/><stop offset="1" stop-color="#3E2723" stop-opacity=".02"/></linearGradient><path fill="url(#a)" d="M3 10.915L.183 18.896l-.001.003z"/><linearGradient id="b" x1="23.803" x2="23.813" y1="21.033" y2="21.037" gradientUnits="userSpaceOnUse"><stop offset="0" stop-color="#3E2723" stop-opacity=".2"/><stop offset="1" stop-color="#3E2723" stop-opacity=".02"/></linearGradient><path fill="url(#b)" d="M23.85 20.917z"/><linearGradient id="c" x1="23.923" x2="23.95" y1="20.548" y2="20.559" gradientUnits="userSpaceOnUse"><stop offset="0" stop-color="#3E2723" stop-opacity=".2"/><stop offset="1" stop-color="#3E2723" stop-opacity=".02"/></linearGradient><path fill="url(#c)" d="M23.919 20.65c.014-.064.03-.126.04-.191-.01.064-.026.128-.04.191z"/><linearGradient id="d" x1="124.6" x2="124.759" y1="21.425" y2="21.49" gradientTransform="matrix(-1 0 0 1 148.313 0)" gradientUnits="userSpaceOnUse"><stop offset="0" stop-color="#3E2723" stop-opacity=".2"/><stop offset="1" stop-color="#3E2723" stop-opacity=".02"/></linearGradient><path fill="url(#d)" d="M23.559 21.59l-.012-.027c.045-.078.102-.148.14-.23-.04.087-.08.174-.128.257z"/><path fill="#303C42" d="M10.411 9.026c-2.132-.416-3.544-.353-4.4.19-.528.337-.862.871-1.022 1.636a.547.547 0 0 1-.03.097L.441 21.34a3.22 3.22 0 0 1-.432-1.487c0 .037-.009.073-.009.11 0 .594.162 1.149.441 1.628L4.96 11.2a.547.547 0 0 0 .03-.098c.16-.765.494-1.3 1.023-1.635.923-.588 2.506-.607 4.935-.076a1.5 1.5 0 0 1-.536-.365z" opacity=".16"/><path fill="#333" d="M12.5 0h-1c-.827 0-1.5.673-1.5 1.5V8c0 .827.673 1.5 1.5 1.5h1c.827 0 1.5-.673 1.5-1.5V1.5c0-.827-.673-1.5-1.5-1.5z"/><path fill="#303C42" d="M18.932 12.878l.008.011.037-.114a.488.488 0 0 0 .014-.223c-.006.111-.023.22-.06.326z" opacity=".16"/><path fill="#4E4E4E" d="M16 19.5c-.038 0-.071.018-.108.022L13.5 16.333V15.5c0-.827-.673-1.5-1.5-1.5s-1.5.673-1.5 1.5v.833l-2.392 3.189c-.037-.004-.07-.022-.108-.022a1.001 1.001 0 0 0 0 2 .986.986 0 0 0 .846-.5h6.308c.174.293.48.5.846.5a1.001 1.001 0 0 0 0-2z"/><path fill="#FFF" d="M12 14.25c.827 0 1.5.673 1.5 1.5v-.25c0-.827-.673-1.5-1.5-1.5s-1.5.673-1.5 1.5v.25c0-.827.673-1.5 1.5-1.5z" opacity=".05"/><path fill="#303C42" d="M16 21.25a.986.986 0 0 1-.846-.5H8.846a.986.986 0 0 1-.846.5.99.99 0 0 1-.975-.875c-.005.043-.025.08-.025.125 0 .551.448 1 1 1a.986.986 0 0 0 .846-.5h6.308c.174.293.48.5.846.5.552 0 1-.449 1-1 0-.044-.02-.082-.025-.125a.99.99 0 0 1-.975.875z" opacity=".16"/><radialGradient id="e" cx="13.159" cy="10.082" r="7.18" gradientUnits="userSpaceOnUse"><stop offset="0" stop-color="#FFF"/><stop offset="1" stop-color="#FFF" stop-opacity="0"/></radialGradient><path fill="url(#e)" fill-opacity=".15" d="M16.5 10c-1.478 0-3.083.502-3.15.523A.5.5 0 0 0 13 11v2a.5.5 0 0 0 .2.4c.06.045 1.482 1.1 2.8 1.1 1.358 0 3-.892 3-2 0-1.565-.935-2.5-2.5-2.5z"/><radialGradient id="f" cx="157.159" cy="10.082" r="7.18" gradientTransform="matrix(-1 0 0 1 168 0)" gradientUnits="userSpaceOnUse"><stop offset="0" stop-color="#FFF"/><stop offset="1" stop-color="#FFF" stop-opacity="0"/></radialGradient><path fill="url(#f)" fill-opacity=".15" d="M7.5 10c1.478 0 3.083.502 3.15.523A.5.5 0 0 1 11 11v2a.5.5 0 0 1-.2.4c-.06.045-1.482 1.1-2.8 1.1-1.358 0-3-.892-3-2 0-1.565.935-2.5 2.5-2.5z"/><linearGradient id="g" x1="13.251" x2="14.825" y1="18.897" y2="19.549" gradientUnits="userSpaceOnUse"><stop offset="0" stop-color="#303C42" stop-opacity=".3"/><stop offset="1" stop-color="#303C42" stop-opacity=".02"/></linearGradient><path fill="url(#g)" d="M13.5 18l1.5 2h-1.5z"/><linearGradient id="h" x1="11.144" x2="12.659" y1="18.145" y2="18.773" gradientUnits="userSpaceOnUse"><stop offset="0" stop-color="#303C42" stop-opacity=".3"/><stop offset="1" stop-color="#303C42" stop-opacity=".02"/></linearGradient><path fill="url(#h)" d="M11.5 17h1v3h-1z"/><linearGradient id="i" x1="9.531" x2="10.545" y1="18.909" y2="19.329" gradientUnits="userSpaceOnUse"><stop offset="0" stop-color="#303C42" stop-opacity=".3"/><stop offset="1" stop-color="#303C42" stop-opacity=".02"/></linearGradient><path fill="url(#i)" d="M10.5 20H9l1.5-2z"/><path fill="#303C42" d="M21.523 22.834c-1.85.418-5.004.916-9.523.916s-7.673-.498-9.523-.916C1.06 22.514.067 21.291.01 19.838c-.002.042-.011.083-.011.125a3.175 3.175 0 0 0 2.477 3.121C4.327 23.502 7.48 24 12 24s7.673-.498 9.523-.916A3.175 3.175 0 0 0 24 19.963c0-.042-.009-.083-.01-.125-.056 1.453-1.05 2.676-2.467 2.996z" opacity=".16"/><path fill="#FFF" d="M13.974 1.245c.015.084.026.168.026.255v.001c4.116.96 7 4.555 7 8.749V10c0-4.203-2.896-7.803-7.026-8.755zM10.027 1.234A8.975 8.975 0 003 10v.25a8.975 8.975 0 017.001-8.76L10 1.5l.027-.266z" opacity=".1"/><path fill="#303C42" d="M23.99 19.852a3.22 3.22 0 0 1-.431 1.488L19.04 10.95a.547.547 0 0 1-.03-.098c-.16-.765-.494-1.3-1.023-1.635-.855-.544-2.267-.607-4.4-.191a1.5 1.5 0 0 1-.535.365c2.429-.531 4.012-.512 4.935.076.529.336.863.87 1.023 1.635a.547.547 0 0 0 .03.097l4.518 10.39c.28-.478.441-1.033.441-1.626 0-.038-.008-.074-.01-.111z" opacity=".16"/><path fill="#FFF" d="M12.5 0h-1c-.827 0-1.5.673-1.5 1.5v.25c0-.827.673-1.5 1.5-1.5h1c.827 0 1.5.673 1.5 1.5V1.5c0-.827-.673-1.5-1.5-1.5z" opacity=".1"/><linearGradient id="j" x1="4.605" x2="20.4" y1="13.951" y2="20.493" gradientUnits="userSpaceOnUse"><stop offset="0" stop-color="#3E2723" stop-opacity=".2"/><stop offset="1" stop-color="#3E2723" stop-opacity=".02"/></linearGradient><path fill="url(#j)" d="M23.559 21.59L19.04 11.2a.547.547 0 0 1-.03-.098c-.16-.765-.494-1.3-1.023-1.635-.98-.623-2.687-.615-5.373.02a.483.483 0 0 1-.115.013h-1a.483.483 0 0 1-.115-.014c-2.686-.634-4.394-.642-5.373-.02-.529.337-.863.871-1.023 1.636a.547.547 0 0 1-.03.097L.441 21.59c-.048-.082-.087-.169-.128-.256a3.149 3.149 0 0 0 2.164 1.751C4.327 23.502 7.48 24 12 24s7.673-.498 9.523-.916a3.149 3.149 0 0 0 2.164-1.75c-.04.086-.08.173-.128.256z"/><linearGradient id="k" x1="2.46" x2="24.568" y1="9.161" y2="19.47" gradientUnits="userSpaceOnUse"><stop offset="0" stop-color="#FFF" stop-opacity=".2"/><stop offset="1" stop-color="#FFF" stop-opacity="0"/></linearGradient><path fill="url(#k)" d="M23.817 18.897L21 10.915V10c0-4.203-2.896-7.803-7.026-8.755A1.5 1.5 0 0 0 12.5 0h-1a1.5 1.5 0 0 0-1.473 1.234A8.975 8.975 0 0 0 3 10v.915L.183 18.896A3.19 3.19 0 0 0 0 19.963a3.175 3.175 0 0 0 2.477 3.121C4.327 23.502 7.48 24 12 24s7.673-.498 9.523-.916A3.175 3.175 0 0 0 24 19.963c0-.365-.062-.724-.183-1.066z"/></svg>