<svg xmlns="http://www.w3.org/2000/svg" viewBox="0 0 24 24"><path fill="#E6E6E5" d="M21.497 13.023c-.036-2.87-.39-4.25-.497-4.602-.014-2.266-.594-4.346-1.597-5.716C18.043.846 14.613 0 12 0S5.957.846 4.597 2.705C3.594 4.075 3.014 6.155 3 8.42c-.106.352-.46 1.732-.497 4.602C.926 13.177 0 14.078 0 15.5c0 1.891 1.9 3.838 3.014 4.363C3.134 21.473 4.068 24 7 24c2.117 0 3.294-.669 4.073-1.112.382-.217.683-.388.927-.388s.545.171.927.388C13.707 23.331 14.883 24 17 24c2.932 0 3.865-2.528 3.986-4.137C22.1 19.338 24 17.39 24 15.5c0-1.422-.926-2.323-2.503-2.477z"/><radialGradient id="a" cx="3.491" cy="14.601" r="17.953" gradientUnits="userSpaceOnUse"><stop offset="0" stop-color="#FFF"/><stop offset="1" stop-color="#FFF" stop-opacity="0"/></radialGradient><path fill="url(#a)" fill-opacity=".51" d="M6.5 17.25c1.562 0 2.656-2.5 5.5-2.5s3.937 2.5 5.5 2.5c1.649 0 3.392 1.196 3.471 2.755.005-.047.012-.096.015-.142C20.986 18.25 19.187 17 17.5 17c-1.563 0-2.656-2.5-5.5-2.5S8.062 17 6.5 17c-1.688 0-3.486 1.25-3.486 2.863.003.046.01.095.015.142.08-1.559 1.822-2.755 3.471-2.755z"/><path fill="#303C42" d="M20.986 19.613c-.12 1.61-1.054 4.137-3.986 4.137-2.117 0-3.294-.669-4.073-1.112-.382-.217-.683-.388-.927-.388s-.545.171-.927.388c-.78.443-1.956 1.112-4.073 1.112-2.932 0-3.865-2.528-3.986-4.137C1.92 19.098.08 17.212.012 15.354c-.002.05-.012.095-.012.146 0 1.891 1.9 3.838 3.014 4.363C3.134 21.473 4.068 24 7 24c2.117 0 3.294-.669 4.073-1.112.382-.217.683-.388.927-.388s.545.171.927.388C13.707 23.331 14.883 24 17 24c2.932 0 3.865-2.528 3.986-4.137C22.1 19.338 24 17.39 24 15.5c0-.051-.01-.096-.012-.146-.068 1.858-1.909 3.744-3.002 4.259z" opacity=".16"/><path fill="#F2F1F1" d="M21 8.421c-.014-2.266-.594-4.346-1.597-5.716C18.043.846 14.613 0 12 0S5.957.846 4.597 2.705C3.594 4.075 3.014 6.155 3 8.42v.25c.014-2.266.594-4.346 1.597-5.716C5.957 1.096 9.387.25 12 .25s6.043.846 7.403 2.705c1.003 1.37 1.583 3.45 1.597 5.716v-.25z"/><path fill="#37474F" d="M17.5 17c-1.563 0-2.656-3.5-5.5-3.5S8.062 17 6.5 17c1.562 0 2.656-2.5 5.5-2.5s3.937 2.5 5.5 2.5zM10.506 9c-.15-.002-3.696-.036-5.185.533a.5.5 0 00-.321.484c.001.034.13 3.483 1.5 3.483 4.237 0 4.497-3.934 4.499-3.973A.498.498 0 0010.506 9zM18.679 9.533c-1.49-.57-5.038-.534-5.185-.533a.501.501 0 00-.493.527c.002.04.262 3.973 4.499 3.973 1.37 0 1.499-3.449 1.5-3.483a.5.5 0 00-.321-.484z"/><path fill="#010101" d="M5.321 9.783c1.489-.57 5.035-.535 5.185-.533a.501.501 0 01.36.158.491.491 0 01.117.263c.011-.084.016-.14.016-.144A.498.498 0 0010.506 9c-.15-.002-3.696-.036-5.185.533a.5.5 0 00-.321.484l.012.207a.494.494 0 01.31-.441zM13.135 9.408a.501.501 0 01.36-.158c.146-.001 3.694-.036 5.184.533.184.07.297.246.309.44l.012-.206a.5.5 0 00-.321-.484c-1.49-.57-5.038-.534-5.185-.533a.501.501 0 00-.493.527c0 .004.005.06.016.144a.491.491 0 01.118-.263z" opacity=".1"/><path fill="#37474F" d="M8.554 20.003c-.496-.053-1.07-.216-1.18-.335l-.09-.108C7.03 19.243 6.775 19 6 19c-.607 0-1 .393-1 1 0 1.805 1.398 2 2 2 1.582 0 2-.981 2-1.5a.5.5 0 00-.446-.497zM18 19c-.775 0-1.03.243-1.284.56l-.09.108c-.11.118-.683.28-1.18.335A.5.5 0 0015 20.5c0 .519.418 1.5 2 1.5.602 0 2-.195 2-2 0-.607-.393-1-1-1zM11.5 17.5h1v3h-1zM13 18.5h1v2h-1zM10 18.5h1v2h-1zM21.195 9.28A7.758 7.758 0 0021 8.422a13.088 13.088 0 00-.084-1.362C18.223 6.277 15.89 6 12 6s-6.223.277-8.916 1.059c-.049.444-.081.898-.084 1.362-.04.133-.115.411-.195.86C5.243 8.64 8.752 8 12 8s6.757.641 9.195 1.28z"/><path fill="#FFF" fill-opacity=".24" d="M3.084 7.309C5.777 6.527 8.11 6.25 12 6.25s6.223.277 8.916 1.059c.049.444.049.194 0-.25C18.223 6.277 15.89 6 12 6s-6.223.277-8.916 1.059c-.049.444-.049.694 0 .25z"/><path fill="#303C42" d="M12 7.75c-3.227 0-6.709.633-9.145 1.268-.016.081-.033.166-.05.263C5.243 8.64 8.752 8 12 8s6.757.641 9.195 1.28a11.043 11.043 0 0 0-.05-.262C18.709 8.383 15.227 7.75 12 7.75z" opacity=".16"/><path fill="#FFF" fill-opacity=".24" d="M2.503 13.023C.926 13.177 0 14.078 0 15.5c0 .035.011.07.012.104.064-1.335.97-2.183 2.49-2.33C4.033 13.273 6 17 6 17s-1.375-3.977-3.497-3.977z"/><path fill="#303C42" d="M21.497 13.023C23.074 13.177 24 14.078 24 15.5c0 .035-.011.07-.012.104-.064-1.335-.97-2.183-2.49-2.33C19.967 13.273 18 17 18 17s1.375-3.977 3.497-3.977z" opacity=".16"/><linearGradient id="b" x1="1.98" x2="23.211" y1="8.029" y2="17.929" gradientUnits="userSpaceOnUse"><stop offset="0" stop-color="#FFF" stop-opacity=".2"/><stop offset="1" stop-color="#FFF" stop-opacity="0"/></linearGradient><path fill="url(#b)" d="M21.497 13.023c-.036-2.87-.39-4.25-.497-4.602-.014-2.266-.594-4.346-1.597-5.716C18.043.846 14.613 0 12 0S5.957.846 4.597 2.705C3.594 4.075 3.014 6.155 3 8.42c-.106.352-.46 1.732-.497 4.602C.926 13.177 0 14.078 0 15.5c0 1.891 1.9 3.838 3.014 4.363C3.134 21.473 4.068 24 7 24c2.117 0 3.294-.669 4.073-1.112.382-.217.683-.388.927-.388s.545.171.927.388C13.707 23.331 14.883 24 17 24c2.932 0 3.865-2.528 3.986-4.137C22.1 19.338 24 17.39 24 15.5c0-1.422-.926-2.323-2.503-2.477z"/></svg>