<svg xmlns="http://www.w3.org/2000/svg" viewBox="0 0 24 24"><path fill="#F16464" d="M23.243 20.321C21.828 17.59 21 15.58 21 12c0-4.033-2.86-10-9-10h-.207l-.502.502C5.847 2.62 3 7.338 3 12c0 3.58-1.022 5.554-2.437 8.286L0 21.762l.51.202c.08.033 1.849.787 8.253.987h6.489c6.39-.2 8.158-.919 8.239-.951l.509-.203-.757-1.476z"/><path fill="#010101" d="M23.49 21.75c-.08.032-1.849.751-8.238.95l-.007.001H8.763c-6.404-.2-8.173-.954-8.254-.987l-.402-.16-.107.208.51.202c.08.033 1.849.787 8.253.987h6.489c6.39-.2 8.158-.919 8.239-.951l.509-.203-.107-.207-.402.16z" opacity=".1"/><path fill="#FCD3C0" d="M19.059 13.714c-1.667-.375-4.487-2.4-5.226-5.13-2.036 2.618-7.04 4.713-8.892 5.13C4.167 13.89 4 14.721 4 15.771c0 .9.95 3.086 2 3.086.41.876 2.253 5.143 6 5.143s5.59-4.267 6-5.143c1.05 0 2-2.186 2-3.086 0-1.05-.167-1.882-.941-2.057z"/><path fill="#010101" d="M18 18.607c-.41.876-2.253 5.143-6 5.143s-5.59-4.267-6-5.143c-1.036 0-1.97-2.121-1.995-3.043-.002.07-.005.136-.005.207 0 .9.95 3.086 2 3.086.41.876 2.253 5.143 6 5.143s5.59-4.267 6-5.143c1.05 0 2-2.186 2-3.086 0-.07-.003-.138-.005-.207-.025.922-.96 3.043-1.995 3.043z" opacity=".1"/><path fill="#FFF" d="M3 12.25c0-4.662 2.847-9.38 8.29-9.498l.503-.502H12c6.14 0 9 5.967 9 10V12c0-4.033-2.86-10-9-10h-.207l-.502.502C5.847 2.62 3 7.338 3 12v.25z" opacity=".2"/><path fill="#333" d="M8.5 14h-1a.5.5 0 100 1c0 .551.449 1 1 1s1-.449 1-1-.449-1-1-1zM14.5 15c0 .551.449 1 1 1s1-.449 1-1a.5.5 0 100-1h-1c-.551 0-1 .449-1 1z"/><path fill="#010101" d="M23.243 20.321C21.828 17.59 21 15.58 21 12c0-2.948-1.536-6.919-4.755-8.848-.245 2.723-1.72 4.485-2.412 5.431.74 2.73 3.56 4.756 5.226 5.131.774.175.941 1.007.941 2.057 0 .9-.95 3.086-2 3.086-.28.597-1.228 2.772-2.99 4.094h.242c6.39-.2 8.158-.919 8.239-.951l.509-.203-.757-1.476z" opacity=".1"/><path fill="#1B4689" d="M18.487 6.392L17.5 1c0-.002-2.85.5-5.5.5S6.5.997 6.5 1l-.99 5.392A.505.505 0 0 0 5.5 6.5c0 1.641 3.27 2.5 6.5 2.5s6.5-.859 6.5-2.5a.505.505 0 0 0-.012-.108z"/><path fill="#010101" d="M18.484 6.372c-.16 1.56-3.337 2.378-6.485 2.378s-6.324-.818-6.485-2.378l-.003.02a.505.505 0 0 0-.012.108c0 1.641 3.27 2.5 6.5 2.5s6.5-.859 6.5-2.5a.505.505 0 0 0-.012-.108l-.003-.02z" opacity=".1"/><path fill="#FFF" d="M12 6.207l-.353-.353C10.812 5.018 9.513 5 9.5 5l.001-1c.063 0 1.406.01 2.5.839C13.096 4.01 14.439 4 14.501 4l.002 1c-.013 0-1.313.018-2.149.854L12 6.207z"/><path fill="#075EAB" d="M12 0C9.35 0 6.499.313 6.499 1s2.851 1 5.5 1S17.5 1.687 17.5 1 14.649 0 12 0z"/><linearGradient id="a" x1="2.946" x2="25.309" y1="8.564" y2="18.991" gradientUnits="userSpaceOnUse"><stop offset="0" stop-color="#FFF" stop-opacity=".2"/><stop offset="1" stop-color="#FFF" stop-opacity="0"/></linearGradient><path fill="url(#a)" d="M23.243 20.321C21.828 17.59 21 15.58 21 12c0-2.278-.914-5.172-2.815-7.26L17.5 1c0-.687-2.851-1-5.5-1S6.499.313 6.499 1v.002l-.69 3.765C3.956 6.6 3 9.307 3 12c0 3.58-1.022 5.554-2.437 8.286L0 21.762l.51.202c.08.033 1.849.787 8.253.987h.228C9.812 23.567 10.809 24 12 24s2.188-.433 3.01-1.049h.242c6.39-.2 8.158-.919 8.239-.951l.509-.203-.757-1.476z"/></svg>