<svg xmlns="http://www.w3.org/2000/svg" viewBox="0 0 24 24"><path fill="#C6CCD0" d="M21 8.83C21 5 17.795 1.5 12 1.5v21.064c.365.163 1.042.436 1.5.436.771 0 3-1.152 3-2.932 0-.588.098-1.954 1-1.954 2.066 0 2.5-1.329 2.5-2.444 0-1-.214-1.611-.4-1.953.432-.674 1.4-2.458 1.4-4.887z"/><path fill="#FFF" d="M20.994 8.96c0-.045.006-.085.006-.13C21 5 17.795 1.5 12 1.5v.25c5.734 0 8.927 3.428 8.994 7.21z" opacity=".2"/><path fill="#5D4B3F" d="M13.416 4.277A.5.5 0 0 0 13.5 4c0-2.244-1.146-2.882-1.276-2.947A.508.508 0 0 0 12 1C9.285 1 4 2.588 4 5.5v7c0 .202 1.05 3.387 1.146 3.292.117-.118 1.479-1.12 1.479-2.292C6.625 12.312 10.38 9 12 9a.5.5 0 0 0 .354-.146C12.698 8.509 13.5 7.639 13.5 7c0-.496-.485-1.134-.863-1.555l.779-1.168z"/><path fill="#FFF" d="M12.351 1.25c.07 0 .136.02.2.045a1.715 1.715 0 0 0-.327-.242A.508.508 0 0 0 12 1C9.552 1 5.025 2.295 4.158 4.685c1.14-2.231 5.694-3.435 8.193-3.435z" opacity=".2"/><path fill="#E53A35" d="M16.99 11.5l.5 1.5s.23.5-1.5.5c-2.5 0-2.5-1.263-2.5-1.263l3.5-.737z"/><path fill="#010101" d="M14.313 18c0 .501-.005.75-.313.874V18.5h-1v.49c-.148.004-.315.007-.5.008V18.5H12v2h.5v-.503c.175 0 .342-.005.5-.01v.513h1v-.603c.873-.174 1.313-.64 1.313-1.897 0-.94.99-.998 1.187-1v-1c-.879 0-2.188.532-2.188 2z" opacity=".1"/><path fill="#FCD3C0" d="M8.784 7.362C8.263 6.827 7.923 6.5 7.5 6.5c-.918 0-1.387 2.818-1.5 4-.11 1.159-.48 4.438-.48 4.438s-.27-.918-.666-2.084c-.396-1.167-.764-.704-.764-.704C3.118 12.716 3 13.751 3 14.5c0 .958.889 3.104 2.15 3.452l.038.094c.516 1.275 1.888 4.665 6.283 4.927h.029a.503.503 0 0 0 .5-.5V9c-1.62 0-2.505-.908-3.216-1.638z"/><path fill="#010101" d="M17.5 17.864c-.902 0-1 1.366-1 1.954 0 1.78-2.229 2.932-3 2.932-.458 0-1.135-.273-1.5-.436v.25c.365.163 1.042.436 1.5.436.771 0 3-1.152 3-2.932 0-.588.098-1.954 1-1.954 2.066 0 2.5-1.329 2.5-2.444 0-.046-.006-.08-.007-.124-.032 1.086-.503 2.318-2.493 2.318zM11.5 22.724l-.03-.001c-4.394-.262-5.766-3.652-6.282-4.927a10.047 10.047 0 01-.038-.094c-1.243-.343-2.12-2.426-2.145-3.404-.002.068-.005.137-.005.202 0 .958.889 3.104 2.15 3.452l.038.094c.516 1.275 1.888 4.665 6.283 4.927h.029a.503.503 0 00.5-.5v-.25a.5.5 0 01-.5.5zM12 14.5v2h1zM17.068 11.734l-.078-.234-3.5.737s.002.099.055.239l3.523-.742z" opacity=".1"/><path fill="#333" d="M8.5 14a1 1 0 1 1 .001-2.001A1 1 0 0 1 8.5 14z"/><path fill="#5D4B3F" d="M9.5 13h-2a.5.5 0 1 1 0-1h2a.5.5 0 1 1 0 1z"/><linearGradient id="a" x1="2.721" x2="20.244" y1="7.711" y2="15.882" gradientUnits="userSpaceOnUse"><stop offset="0" stop-color="#FFF" stop-opacity=".2"/><stop offset="1" stop-color="#FFF" stop-opacity="0"/></linearGradient><path fill="url(#a)" d="M21 8.83c0-3.656-2.926-7.003-8.23-7.3-.255-.31-.491-.45-.546-.477A.508.508 0 0 0 12 1C9.285 1 4 2.588 4 5.5v6.715c-.882.576-1 1.562-1 2.285 0 .958.889 3.104 2.15 3.452l.038.094c.516 1.275 1.888 4.665 6.283 4.927h.029a.503.503 0 0 0 .5-.5v.09c.365.164 1.042.437 1.5.437.771 0 3-1.152 3-2.932 0-.588.098-1.954 1-1.954 2.066 0 2.5-1.329 2.5-2.444 0-1-.214-1.611-.4-1.953.432-.674 1.4-2.458 1.4-4.887z"/></svg>