<svg xmlns="http://www.w3.org/2000/svg" viewBox="0 0 24 24"><path fill="#E6E6E5" d="M19.898 2.441C18.49 1.53 15.591 0 12 0S5.51 1.53 4.101 2.441C3.421 2.881 3 3.705 3 4.591V13c0 3.998 5.5 10 8.642 9.972a.459.459 0 0 0 .358-.158.43.43 0 0 0 .328.159l.03-.001C15.5 23 21 16.998 21 13V4.592c0-.887-.422-1.71-1.102-2.15z"/><path fill="#010101" d="M12.358 22.722h-.03a.43.43 0 0 1-.328-.158.459.459 0 0 1-.358.158C8.5 22.75 3 16.748 3 12.75V13c0 3.998 5.5 10 8.642 9.972a.459.459 0 0 0 .358-.158.43.43 0 0 0 .328.159l.03-.001C15.5 23 21 16.998 21 13v-.25c0 3.998-5.5 10-8.642 9.972z" opacity=".1"/><path fill="#FFF" d="M19.898 2.441C18.49 1.53 15.591 0 12 0S5.51 1.53 4.101 2.441C3.421 2.881 3 3.705 3 4.591v.25c0-.886.422-1.71 1.101-2.15C5.511 1.78 8.41.25 12 .25s6.49 1.53 7.898 2.441c.68.44 1.102 1.264 1.102 2.15v-.25c0-.886-.422-1.71-1.102-2.15z" opacity=".2"/><path fill="#1A1A1A" d="M9.854 8.646C9.788 8.58 9.174 8 8 8s-1.788.58-1.854.646a.5.5 0 0 0 0 .708C6.212 9.42 6.826 10 8 10s1.788-.58 1.854-.646a.5.5 0 0 0 0-.708z"/><path fill="#010101" d="M6.146 8.896c.066-.066.68-.646 1.854-.646s1.788.58 1.854.646c.063.064.099.144.121.229C9.986 9.084 10 9.043 10 9a.5.5 0 0 0-.146-.354C9.788 8.58 9.174 8 8 8s-1.788.58-1.854.646A.5.5 0 0 0 6 9c0 .043.014.084.025.125a.492.492 0 0 1 .121-.229z" opacity=".1"/><path fill="#E6E6E5" d="M12 15c-.845 0-1.216-.525-1.438-.839-.048-.068-.114-.162-.145-.185-.276 0-.459-.212-.459-.488S10.224 13 10.5 13c.466 0 .714.352.879.584.199.281.308.416.621.416s.422-.135.621-.416c.165-.232.413-.584.879-.584a.5.5 0 0 1 .062.996 2.41 2.41 0 0 0-.125.165c-.221.314-.592.839-1.437.839z"/><path fill="#1A1A1A" d="M10.19 16H7.81L6.8 13.983c-.1.008-.199.017-.3.017-.333 0-.615-.054-.874-.13l1.427 2.854A.501.501 0 0 0 7.5 17h3c.19 0 .362-.107.447-.276L11.81 15s-.664-.206-.9-.435L10.19 16z"/><path fill="#010101" d="M13.562 13.746a2.41 2.41 0 0 0-.125.165c-.221.314-.592.839-1.437.839s-1.216-.525-1.438-.839c-.048-.068-.114-.162-.145-.185a.437.437 0 0 1-.434-.342c-.009.034-.025.067-.025.104 0 .276.183.488.46.488.03.023.096.117.144.185.222.314.593.839 1.438.839s1.216-.525 1.437-.839c.04-.056.09-.127.125-.165A.5.5 0 0 0 14 13.5c0-.043-.014-.08-.024-.12a.495.495 0 0 1-.414.366z" opacity=".1"/><path fill="#1A1A1A" d="M12.579 19.46l.368-.736A.499.499 0 0 0 12.5 18h-1a.5.5 0 0 0-.447.724l.368.737c-.19.34-.421.974-.421 2.039 0 1.105.53 2.179.553 2.224a.501.501 0 0 0 .894 0c.023-.045.553-1.119.553-2.224 0-1.065-.231-1.7-.421-2.04z"/><radialGradient id="a" cx="5.932" cy="11.916" r="1.916" gradientUnits="userSpaceOnUse"><stop offset="0" stop-color="#EF8B73" stop-opacity=".4"/><stop offset=".142" stop-color="#EF8F77" stop-opacity=".343"/><stop offset=".317" stop-color="#F19A83" stop-opacity=".273"/><stop offset=".51" stop-color="#F3AD98" stop-opacity=".196"/><stop offset=".716" stop-color="#F7C9B9" stop-opacity=".114"/><stop offset=".93" stop-color="#FDEEE8" stop-opacity=".028"/><stop offset="1" stop-color="#FFF" stop-opacity="0"/></radialGradient><circle cx="5.932" cy="11.916" r="1.916" fill="url(#a)"/><path fill="#010101" d="M6.5 13.75c-1.764 0-2.434-1.182-2.489-2.343-.001.034-.011.058-.011.093 0 1.209.657 2.5 2.5 2.5 1.105 0 2.178-.53 2.224-.553 0 0-1.292.303-2.224.303z" opacity=".1"/><path fill="#1A1A1A" d="M10.145 7.928l.949-1.05s-1.9-2-4.1-1.89c-1.202.06-2.26.49-2.584 1.835.123-.053.944-.83 1.71-.868 1.747-.087 2.747.817 4.025 1.973zM13.864 7.928l-.949-1.05s1.9-2 4.1-1.89c1.202.06 2.26.49 2.584 1.835-.123-.053-.944-.83-1.71-.868-1.747-.087-2.747.817-4.025 1.973zM13.818 16H16.2l1.008-2.017c.1.008.2.017.301.017.333 0 .615-.054.874-.13l-1.427 2.854a.501.501 0 01-.447.276h-3a.501.501 0 01-.447-.276L12.2 15s.664-.206.9-.435L13.818 16z"/><radialGradient id="b" cx="-240.077" cy="11.916" r="1.916" gradientTransform="matrix(-1 0 0 1 -222 0)" gradientUnits="userSpaceOnUse"><stop offset="0" stop-color="#EF8B73" stop-opacity=".4"/><stop offset=".142" stop-color="#EF8F77" stop-opacity=".343"/><stop offset=".317" stop-color="#F19A83" stop-opacity=".273"/><stop offset=".51" stop-color="#F3AD98" stop-opacity=".196"/><stop offset=".716" stop-color="#F7C9B9" stop-opacity=".114"/><stop offset=".93" stop-color="#FDEEE8" stop-opacity=".028"/><stop offset="1" stop-color="#FFF" stop-opacity="0"/></radialGradient><circle cx="18.077" cy="11.916" r="1.916" fill="url(#b)"/><path fill="#010101" d="M17.509 13.75c1.764 0 2.434-1.182 2.489-2.343.001.034.011.058.011.093 0 1.209-.657 2.5-2.5 2.5-1.105 0-2.178-.53-2.224-.553 0 0 1.292.303 2.224.303z" opacity=".1"/><path fill="#1A1A1A" d="M14.155 8.646c.066-.066.68-.646 1.854-.646s1.788.58 1.854.646a.5.5 0 0 1 0 .708c-.066.066-.68.646-1.854.646s-1.788-.58-1.854-.646a.5.5 0 0 1 0-.708z"/><path fill="#010101" d="M17.863 8.896c-.066-.066-.68-.646-1.854-.646s-1.788.58-1.854.646a.492.492 0 0 0-.121.229c-.011-.041-.025-.082-.025-.125a.5.5 0 0 1 .146-.354c.066-.066.68-.646 1.854-.646s1.788.58 1.854.646a.5.5 0 0 1 .146.354c0 .043-.014.084-.025.125a.492.492 0 0 0-.121-.229z" opacity=".1"/><linearGradient id="c" x1="11.866" x2="14.284" y1="19.619" y2="22.037" gradientUnits="userSpaceOnUse"><stop offset="0" stop-color="#010101" stop-opacity=".1"/><stop offset="1" stop-color="#010101" stop-opacity="0"/></linearGradient><path fill="url(#c)" d="M12.947 18.724l-.368.737c.19.34.421.974.421 2.039 0 .526-.12 1.04-.249 1.445.968-.132 2.108-.753 3.228-1.654l-3.054-3.054c.092.148.1.331.022.487z"/><linearGradient id="d" x1="1.795" x2="20.537" y1="6.564" y2="15.304" gradientUnits="userSpaceOnUse"><stop offset="0" stop-color="#FFF" stop-opacity=".2"/><stop offset="1" stop-color="#FFF" stop-opacity="0"/></linearGradient><path fill="url(#d)" d="M19.898 2.441C18.49 1.53 15.591 0 12 0S5.51 1.53 4.101 2.441C3.421 2.881 3 3.705 3 4.591V13c0 3.836 5.059 9.502 8.244 9.93.143.453.297.77.309.794a.501.501 0 0 0 .894 0c.012-.024.166-.34.309-.793C15.94 22.502 21 16.836 21 13V4.592c0-.887-.422-1.71-1.102-2.15z"/></svg>