<svg xmlns="http://www.w3.org/2000/svg" viewBox="0 0 24 24"><path fill="#F7C214" d="M12 1C8.318 1 4.248 2.9 4.012 7.07a.5.5 0 0 0 .07.284L10 16.5c.09.151 1.5 2 1.5 2h1s.91-1.849 1-2l6.418-9.146a.5.5 0 0 0 .07-.284C19.752 2.9 15.682 1 12 1z"/><path fill="#FFF" d="M12 1.25c3.63 0 7.63 1.851 7.968 5.901.003-.028.021-.052.02-.08C19.752 2.898 15.682 1 12 1S4.248 2.9 4.012 7.07c-.001.029.017.053.02.081C4.37 3.101 8.369 1.25 12 1.25z" opacity=".2"/><path fill="#FCD3C0" d="M12.5 18.5h-1S9.469 17 6.5 17c.378.757.613 1.8.76 2.804.126.872.186 1.71.214 2.31C8.24 23.097 9.505 24 12 24s3.76-.903 4.526-1.886c.028-.6.088-1.438.215-2.31.146-1.004.38-2.047.759-2.804-2.969 0-5 1.5-5 1.5z"/><linearGradient id="a" x1="8.603" x2="14.617" y1="15.7" y2="21.713" gradientUnits="userSpaceOnUse"><stop offset="0" stop-color="#010101" stop-opacity=".1"/><stop offset="1" stop-color="#010101" stop-opacity="0"/></linearGradient><path fill="url(#a)" d="M12.5 18.5h-1S9.469 17 6.5 17c.378.757.613 1.8.76 2.804.126.872.186 1.71.214 2.31C8.24 23.097 9.505 24 12 24s3.76-.903 4.526-1.886c.028-.6.088-1.438.215-2.31.146-1.004.38-2.047.759-2.804-2.969 0-5 1.5-5 1.5z"/><path fill="#010101" d="M12 23.75c-2.461 0-3.745-.845-4.534-1.789l.008.153C8.24 23.097 9.505 24 12 24s3.76-.903 4.526-1.886l.008-.153c-.79.944-2.073 1.789-4.534 1.789zM19.93 7.104L13.51 16.25c-.09.151-1 2-1 2h-1s-1.41-1.849-1.5-2L4.093 7.104c-.036-.061-.042-.133-.05-.203-.004.058-.016.111-.02.17a.5.5 0 00.07.283L10.01 16.5c.09.151 1.5 2 1.5 2h1s.91-1.849 1-2l6.419-9.146A.5.5 0 0020 7.07c-.004-.058-.016-.111-.02-.169-.008.07-.014.142-.05.203z" opacity=".1"/><path fill="#303C42" d="M17.5 17c-2.969 0-5 1.5-5 1.5s.031-2.563.5-3.5v-2s6.708-3.375 10-13v8c0 2.333-4 7.333-4 12l-2.5 3s0-4 1-6zM6.5 17c2.969 0 5 1.5 5 1.5s-.031-2.563-.5-3.5v-2S4.292 9.625 1 0v8c0 2.333 4 7.333 4 12l2.5 3s0-4-1-6z"/><path fill="#010101" d="M17.614 16.743c-2.943 0-5.073 1.477-5.108 1.503-.005.158-.006.254-.006.254s2.108-1.531 5-1.5c.037-.087.073-.176.114-.257zM16.504 22.746c-.004.157-.004.254-.004.254l2.5-3c0-4.667 4-9.667 4-12v-.25c0 2.333-4 7.333-4 12l-2.496 2.996z" opacity=".1"/><path fill="#FFF" d="M6.55 14.014c.19.34 1.15.985 1.966.985h.265c.266.001.562.003.72-.017-.165-.307-1.15-.983-1.985-.983H7.25a7.309 7.309 0 00-.7.015zM14.531 14.982c.158.02.451.018.72.017h.265c.836 0 1.82-.676 1.984-.983a6.652 6.652 0 00-.719-.017h-.265c-.836 0-1.82.676-1.985.983z"/><path fill="#010101" d="M6.386 16.743c2.943 0 5.073 1.477 5.108 1.503.005.158.006.254.006.254s-2.108-1.531-5-1.5c-.037-.087-.073-.176-.114-.257zM7.496 22.746c.004.157.004.254.004.254L5 20c0-4.667-4-9.667-4-12v-.25c0 2.333 4 7.333 4 12l2.496 2.996z" opacity=".1"/><linearGradient id="b" x1="-.86" x2="21.586" y1="3.988" y2="14.454" gradientUnits="userSpaceOnUse"><stop offset="0" stop-color="#FFF" stop-opacity=".2"/><stop offset="1" stop-color="#FFF" stop-opacity="0"/></linearGradient><path fill="url(#b)" d="M19.898 6.308C19.24 2.668 15.45 1 12 1S4.76 2.668 4.102 6.308A26.97 26.97 0 0 1 1 0v8c0 2.333 4 7.333 4 12l2.5 3-.026-.886C8.24 23.097 9.505 24 12 24s3.76-.903 4.526-1.886v-.002A21.92 21.92 0 0 0 16.5 23l2.5-3c0-4.667 4-9.667 4-12V0a26.97 26.97 0 0 1-3.102 6.308z"/></svg>