<?xml version="1.0" encoding="UTF-8" standalone="no"?><!-- Generator: Gravit.io --><svg xmlns="http://www.w3.org/2000/svg" xmlns:xlink="http://www.w3.org/1999/xlink" style="isolation:isolate" viewBox="0 0 601.548 443.061" width="601.548pt" height="443.061pt"><path d=" M 244.053 287.493 L 131.848 362.543 L 21.34 197.325 L 133.546 122.276 L 244.053 287.493 Z " fill="rgb(239,238,237)"/><path d=" M 186.086 279.659 L 184.813 287.54 L 129.034 279.504 L 130.308 271.624 L 186.086 279.659 Z " fill="rgb(216,217,217)"/><path d=" M 157.995 251.546 L 165.999 252.7 L 157.125 307.617 L 149.121 306.464 L 157.995 251.546 Z " fill="rgb(216,217,217)"/><path d=" M 106.618 181.745 C 106.698 181.865 95.454 189.526 81.507 198.855 C 67.554 208.187 56.182 215.653 56.103 215.533 C 56.023 215.414 67.265 207.754 81.217 198.422 C 95.164 189.093 106.539 181.626 106.618 181.745 Z " fill="rgb(216,217,217)"/><path d=" M 147.882 171.387 C 147.962 171.507 129.263 184.154 106.123 199.631 C 82.974 215.115 64.15 227.565 64.07 227.445 C 63.99 227.326 82.685 214.681 105.833 199.199 C 128.974 183.721 147.802 171.267 147.882 171.387 Z " fill="rgb(216,217,217)"/><path d=" M 156.153 183.753 C 156.234 183.873 137.535 196.52 114.394 211.997 C 91.246 227.481 72.421 239.931 72.341 239.812 C 72.261 239.692 90.956 227.048 114.105 211.565 C 137.245 196.087 156.073 183.634 156.153 183.753 Z " fill="rgb(216,217,217)"/><path d=" M 164.425 196.119 C 164.505 196.239 145.806 208.886 122.666 224.364 C 99.517 239.847 80.692 252.297 80.612 252.178 C 80.533 252.059 99.227 239.414 122.376 223.931 C 145.516 208.453 164.345 196 164.425 196.119 Z " fill="rgb(216,217,217)"/><path d=" M 172.696 208.486 C 172.776 208.606 154.077 221.253 130.937 236.73 C 107.788 252.213 88.964 264.664 88.884 264.544 C 88.804 264.425 107.499 251.781 130.647 236.298 C 153.788 220.82 172.616 208.367 172.696 208.486 Z " fill="rgb(216,217,217)"/><path d=" M 601.548 371.759 L 507.314 434.787 L 414.508 296.033 L 508.741 233.004 L 601.548 371.759 Z " fill="rgb(239,238,237)"/><path d=" M 552.865 365.179 L 551.796 371.798 L 504.952 365.049 L 506.022 358.431 L 552.865 365.179 Z " fill="rgb(216,217,217)"/><path d=" M 529.275 341.57 L 535.996 342.537 L 528.543 388.659 L 521.821 387.691 L 529.275 341.57 Z " fill="rgb(216,217,217)"/><path d=" M 486.126 282.949 C 486.206 283.068 476.774 289.517 465.06 297.352 C 453.342 305.19 443.781 311.444 443.701 311.324 C 443.621 311.204 453.053 304.756 464.771 296.919 C 476.483 289.084 486.046 282.828 486.126 282.949 Z " fill="rgb(216,217,217)"/><path d=" M 520.78 274.249 C 520.86 274.368 505.167 285.005 485.733 298.004 C 466.292 311.007 450.473 321.449 450.393 321.328 C 450.313 321.209 466.003 310.575 485.443 297.572 C 504.878 284.573 520.7 274.129 520.78 274.249 Z " fill="rgb(216,217,217)"/><path d=" M 527.728 284.635 C 527.808 284.754 512.113 295.391 492.68 308.39 C 473.239 321.393 457.419 331.833 457.339 331.714 C 457.26 331.595 472.949 320.96 492.391 307.957 C 511.824 294.958 527.648 284.515 527.728 284.635 Z " fill="rgb(216,217,217)"/><path d=" M 534.674 295.021 C 534.754 295.14 519.061 305.777 499.626 318.776 C 480.186 331.779 464.366 342.219 464.286 342.1 C 464.206 341.981 479.896 331.346 499.337 318.343 C 518.771 305.344 534.594 294.901 534.674 295.021 Z " fill="rgb(216,217,217)"/><path d=" M 541.62 305.406 C 541.7 305.526 526.007 316.162 506.573 329.161 C 487.132 342.164 471.313 352.605 471.233 352.486 C 471.152 352.366 486.842 341.732 506.283 328.728 C 525.717 315.73 541.54 305.286 541.62 305.406 Z " fill="rgb(216,217,217)"/><path d=" M 278.69 279.728 L 175.872 224.739 L 256.841 73.342 L 359.66 128.331 L 278.69 279.728 Z " fill="rgb(239,238,237)"/><path d=" M 261.089 232.368 L 254.565 234.602 L 238.008 188.828 L 244.531 186.594 L 261.089 232.368 Z " fill="rgb(216,217,217)"/><path d=" M 271.09 199.53 L 273.466 206.098 L 228.007 221.667 L 225.631 215.098 L 271.09 199.53 Z " fill="rgb(216,217,217)"/><path d=" M 303.391 131.993 C 303.311 132.144 292.882 126.723 280.101 119.888 C 267.316 113.051 257.021 107.388 257.101 107.237 C 257.181 107.086 267.608 112.506 280.393 119.343 C 293.173 126.179 303.472 131.843 303.391 131.993 Z " fill="rgb(216,217,217)"/><path d=" M 328.064 159.226 C 327.983 159.377 310.724 150.304 289.52 138.963 C 268.307 127.618 251.183 118.303 251.263 118.153 C 251.343 118.002 268.599 127.074 289.811 138.418 C 311.016 149.759 328.144 159.076 328.064 159.226 Z " fill="rgb(216,217,217)"/><path d=" M 322.003 170.558 C 321.923 170.709 304.664 161.636 283.459 150.295 C 262.247 138.951 245.122 129.635 245.203 129.484 C 245.283 129.334 262.539 138.405 283.751 149.75 C 304.955 161.091 322.084 170.408 322.003 170.558 Z " fill="rgb(216,217,217)"/><path d=" M 315.942 181.89 C 315.862 182.041 298.604 172.968 277.399 161.627 C 256.187 150.282 239.062 140.967 239.142 140.816 C 239.223 140.666 256.478 149.737 277.69 161.082 C 298.895 172.422 316.024 181.74 315.942 181.89 Z " fill="rgb(216,217,217)"/><path d=" M 309.882 193.222 C 309.802 193.373 292.543 184.299 271.338 172.959 C 250.126 161.614 233.001 152.299 233.082 152.148 C 233.162 151.997 250.418 161.069 271.63 172.413 C 292.834 183.754 309.963 193.072 309.882 193.222 Z " fill="rgb(216,217,217)"/><path d=" M 310.421 43.983 L 307.838 43.983 L 307.838 0 L 310.421 0 L 310.421 43.983 Z " fill="rgb(195,197,197)"/><path d=" M 248.899 82.189 L 369.36 82.189 C 369.36 82.189 358.238 28.955 308.217 28.955 C 263.725 28.955 248.899 82.189 248.899 82.189 Z " fill="rgb(108,217,155)"/><path d=" M 311.421 -14 L 308.838 -14 L 308.838 29.983 L 311.421 29.983 L 311.421 -14 Z " fill="rgb(71,71,135)"/><path d=" M 577.333 439.828 C 577.333 439.972 448.082 440.089 288.68 440.089 C 129.223 440.089 0 439.972 0 439.828 C 0 439.685 129.223 439.568 288.68 439.568 C 448.082 439.568 577.333 439.685 577.333 439.828 Z " fill="rgb(44,61,67)"/><path d=" M 31.952 377.202 C 35.334 377.32 38.507 379.156 40.737 381.7 C 42.967 384.244 44.335 387.444 45.209 390.711 C 46.901 397.035 45.861 404.497 44.058 410.789 C 37.212 408.343 32.99 401.042 31.082 397.204 C 28.065 391.138 26.295 378.342 31.952 377.202 Z " fill="rgb(240,99,109)"/><path d=" M 53.908 418.453 C 51.748 415.353 51.697 411.04 53.405 407.668 C 55.112 404.296 58.393 401.865 62.006 400.755 C 63.676 400.243 65.614 400.027 67.067 400.997 C 68.426 401.905 69.013 403.685 68.838 405.31 C 68.663 406.934 67.839 408.42 66.869 409.734 C 63.54 414.241 59.492 417.992 53.908 418.453 Z " fill="rgb(240,99,109)"/><path d=" M 54.662 439.584 C 54.629 439.589 54.525 439.12 54.356 438.271 C 54.173 437.333 53.936 436.121 53.652 434.666 C 53.111 431.636 52.254 427.327 52.902 422.563 C 53.526 417.821 55.414 413.766 57.393 411.345 C 58.367 410.12 59.299 409.253 59.989 408.72 C 60.323 408.44 60.618 408.267 60.804 408.135 C 60.996 408.009 61.101 407.95 61.11 407.963 C 61.185 408.047 59.51 409.079 57.659 411.549 C 55.784 413.978 53.986 417.963 53.373 422.626 C 52.735 427.293 53.525 431.563 53.982 434.61 C 54.227 436.139 54.424 437.379 54.538 438.241 C 54.652 439.101 54.693 439.579 54.662 439.584 Z " fill="rgb(44,61,67)"/><path d=" M 34.16 386.827 C 34.175 386.82 34.27 386.998 34.436 387.345 C 34.618 387.739 34.852 388.243 35.141 388.868 C 35.746 390.196 36.597 392.127 37.627 394.522 C 39.69 399.311 42.447 405.967 45.325 413.385 C 48.201 420.807 50.653 427.582 52.359 432.509 C 53.213 434.973 53.886 436.972 54.334 438.36 C 54.542 439.017 54.71 439.547 54.84 439.961 C 54.951 440.328 55.002 440.525 54.986 440.53 C 54.971 440.535 54.89 440.35 54.75 439.993 C 54.598 439.586 54.402 439.065 54.16 438.42 C 53.64 436.995 52.922 435.029 52.043 432.622 C 50.257 427.725 47.757 420.973 44.882 413.557 C 42.007 406.144 39.301 399.472 37.319 394.652 C 36.344 392.282 35.548 390.345 34.972 388.942 C 34.716 388.302 34.509 387.785 34.348 387.383 C 34.211 387.025 34.146 386.832 34.16 386.827 Z " fill="rgb(44,61,67)"/><path d=" M 46.536 425.604 C 42.498 418.735 34.961 414.051 27.014 413.475 C 24.99 413.327 22.556 413.668 21.653 415.486 C 20.749 417.306 21.958 419.46 23.337 420.953 C 29.073 427.167 38.777 429.333 46.611 426.149" fill="rgb(240,99,109)"/><path d=" M 30.095 418.892 C 30.098 418.86 30.548 418.878 31.362 418.939 C 31.77 418.967 32.27 419.003 32.841 419.111 C 33.411 419.216 34.074 419.279 34.78 419.475 C 35.491 419.65 36.276 419.824 37.087 420.116 C 37.915 420.361 38.765 420.715 39.658 421.093 C 41.422 421.894 43.294 422.943 45.075 424.305 C 46.844 425.684 48.339 427.225 49.553 428.736 C 50.138 429.511 50.695 430.244 51.131 430.991 C 51.611 431.708 51.968 432.428 52.304 433.079 C 52.663 433.718 52.875 434.351 53.11 434.881 C 53.347 435.412 53.494 435.891 53.612 436.282 C 53.855 437.063 53.973 437.496 53.942 437.506 C 53.841 437.541 53.355 435.793 52.006 433.233 C 51.655 432.601 51.287 431.9 50.799 431.202 C 50.357 430.477 49.796 429.764 49.212 429.009 C 47.999 427.538 46.523 426.035 44.786 424.681 C 43.036 423.343 41.204 422.302 39.478 421.492 C 38.604 421.109 37.772 420.745 36.961 420.489 C 36.167 420.184 35.398 419.994 34.701 419.801 C 31.894 419.091 30.085 418.995 30.095 418.892 Z " fill="rgb(44,61,67)"/><path d=" M 577.333 439.828 C 577.333 439.972 448.082 440.089 288.68 440.089 C 129.223 440.089 0 439.972 0 439.828 C 0 439.685 129.223 439.568 288.68 439.568 C 448.082 439.568 577.333 439.685 577.333 439.828 Z " fill="rgb(44,61,67)"/><path d=" M 31.952 377.202 C 35.334 377.32 38.507 379.156 40.737 381.7 C 42.967 384.244 44.335 387.444 45.209 390.711 C 46.901 397.035 45.861 404.497 44.058 410.789 C 37.212 408.343 32.99 401.042 31.082 397.204 C 28.065 391.138 26.295 378.342 31.952 377.202 Z " fill="rgb(240,99,109)"/><path d=" M 53.908 418.453 C 51.748 415.353 51.697 411.04 53.405 407.668 C 55.112 404.296 58.393 401.865 62.006 400.755 C 63.676 400.243 65.614 400.027 67.067 400.997 C 68.426 401.905 69.013 403.685 68.838 405.31 C 68.663 406.934 67.839 408.42 66.869 409.734 C 63.54 414.241 59.492 417.992 53.908 418.453 Z " fill="rgb(240,99,109)"/><path d=" M 54.662 439.584 C 54.629 439.589 54.525 439.12 54.356 438.271 C 54.173 437.333 53.936 436.121 53.652 434.666 C 53.111 431.636 52.254 427.327 52.902 422.563 C 53.526 417.821 55.414 413.766 57.393 411.345 C 58.367 410.12 59.299 409.253 59.989 408.72 C 60.323 408.44 60.618 408.267 60.804 408.135 C 60.996 408.009 61.101 407.95 61.11 407.963 C 61.185 408.047 59.51 409.079 57.659 411.549 C 55.784 413.978 53.986 417.963 53.373 422.626 C 52.735 427.293 53.525 431.563 53.982 434.61 C 54.227 436.139 54.424 437.379 54.538 438.241 C 54.652 439.101 54.693 439.579 54.662 439.584 Z " fill="rgb(44,61,67)"/><path d=" M 34.16 386.827 C 34.175 386.82 34.27 386.998 34.436 387.345 C 34.618 387.739 34.852 388.243 35.141 388.868 C 35.746 390.196 36.597 392.127 37.627 394.522 C 39.69 399.311 42.447 405.967 45.325 413.385 C 48.201 420.807 50.653 427.582 52.359 432.509 C 53.213 434.973 53.886 436.972 54.334 438.36 C 54.542 439.017 54.71 439.547 54.84 439.961 C 54.951 440.328 55.002 440.525 54.986 440.53 C 54.971 440.535 54.89 440.35 54.75 439.993 C 54.598 439.586 54.402 439.065 54.16 438.42 C 53.64 436.995 52.922 435.029 52.043 432.622 C 50.257 427.725 47.757 420.973 44.882 413.557 C 42.007 406.144 39.301 399.472 37.319 394.652 C 36.344 392.282 35.548 390.345 34.972 388.942 C 34.716 388.302 34.509 387.785 34.348 387.383 C 34.211 387.025 34.146 386.832 34.16 386.827 Z " fill="rgb(44,61,67)"/><path d=" M 46.536 425.604 C 42.498 418.735 34.961 414.051 27.014 413.475 C 24.99 413.327 22.556 413.668 21.653 415.486 C 20.749 417.306 21.958 419.46 23.337 420.953 C 29.073 427.167 38.777 429.333 46.611 426.149" fill="rgb(240,99,109)"/><path d=" M 30.095 418.892 C 30.098 418.86 30.548 418.878 31.362 418.939 C 31.77 418.967 32.27 419.003 32.841 419.111 C 33.411 419.216 34.074 419.279 34.78 419.475 C 35.491 419.65 36.276 419.824 37.087 420.116 C 37.915 420.361 38.765 420.715 39.658 421.093 C 41.422 421.894 43.294 422.943 45.075 424.305 C 46.844 425.684 48.339 427.225 49.553 428.736 C 50.138 429.511 50.695 430.244 51.131 430.991 C 51.611 431.708 51.968 432.428 52.304 433.079 C 52.663 433.718 52.875 434.351 53.11 434.881 C 53.347 435.412 53.494 435.891 53.612 436.282 C 53.855 437.063 53.973 437.496 53.942 437.506 C 53.841 437.541 53.355 435.793 52.006 433.233 C 51.655 432.601 51.287 431.9 50.799 431.202 C 50.357 430.477 49.796 429.764 49.212 429.009 C 47.999 427.538 46.523 426.035 44.786 424.681 C 43.036 423.343 41.204 422.302 39.478 421.492 C 38.604 421.109 37.772 420.745 36.961 420.489 C 36.167 420.184 35.398 419.994 34.701 419.801 C 31.894 419.091 30.085 418.995 30.095 418.892 Z " fill="rgb(44,61,67)"/><path d=" M 484.027 105.475 C 481.087 106.152 479.655 109.535 479.377 112.539 C 479.099 115.544 479.482 118.717 478.22 121.458 C 476.799 124.543 473.407 126.817 473.294 130.211 C 473.226 132.281 474.454 134.227 474.396 136.296 C 474.299 139.696 470.832 142.264 470.65 145.66 C 470.52 148.105 472.149 150.451 471.757 152.868 C 471.451 154.75 469.987 156.232 469.368 158.034 C 468.134 161.627 470.602 165.582 473.817 167.605 C 477.4 169.858 481.988 170.44 486.02 169.152 C 490.052 167.864 493.452 164.729 495.065 160.816 C 496.844 156.497 496.455 151.634 496.068 146.979 C 494.863 132.474 493.968 117.943 493.383 103.399" fill="rgb(44,61,67)"/><path d=" M 475.491 156.664 C 475.428 156.606 476.295 156.349 476.834 155.066 C 477.096 154.438 477.23 153.595 477.177 152.625 C 477.143 151.648 476.81 150.585 476.447 149.387 C 476.112 148.198 475.676 146.82 475.926 145.286 C 476.178 143.729 477.292 142.451 478.309 141.194 C 478.82 140.557 479.335 139.896 479.659 139.142 C 480 138.397 480.072 137.544 479.816 136.744 C 479.299 135.11 477.698 133.909 476.963 132.022 C 476.599 131.077 476.595 130.039 476.803 129.104 C 477 128.16 477.383 127.304 477.768 126.487 C 478.551 124.859 479.413 123.366 479.755 121.782 C 480.456 118.61 480.129 115.582 480.607 113.095 C 481.039 110.603 482.092 108.729 483.135 107.766 C 483.643 107.268 484.135 107.003 484.456 106.825 C 484.798 106.678 484.979 106.61 484.985 106.626 C 485.019 106.682 484.244 106.92 483.278 107.909 C 482.314 108.884 481.347 110.717 480.969 113.156 C 480.771 114.369 480.741 115.733 480.691 117.197 C 480.64 118.66 480.594 120.249 480.222 121.891 C 479.874 123.555 478.988 125.107 478.229 126.706 C 477.477 128.277 476.786 130.119 477.451 131.841 C 478.086 133.543 479.697 134.752 480.302 136.591 C 480.598 137.506 480.501 138.52 480.115 139.34 C 479.748 140.174 479.203 140.856 478.682 141.496 C 477.636 142.76 476.59 143.963 476.351 145.362 C 476.101 146.754 476.486 148.097 476.802 149.285 C 477.137 150.475 477.46 151.595 477.468 152.612 C 477.494 153.62 477.325 154.498 477.021 155.147 C 476.719 155.8 476.306 156.203 475.996 156.409 C 475.688 156.62 475.491 156.664 475.491 156.664 Z " fill="rgb(67,96,105)"/><path d=" M 467.617 180.366 L 458.591 206.388 L 420.947 208.406 L 414.67 222.374 L 453.971 226.35 C 461.808 229.59 470.761 225.619 473.621 217.636 L 484.109 188.361 L 467.617 180.366 Z " fill="rgb(194,137,121)"/><path d=" M 545.481 425.698 C 545.481 425.698 517.894 338.079 517.309 335.235 C 516.779 332.664 527.32 269.612 528.648 253.293 L 491.373 254.683 C 491.373 254.683 491.372 254.782 491.37 254.954 L 475.526 255.833 L 489.717 435.027 L 506.87 435.027 L 505.169 375.576 C 515.746 403.972 530.903 432.91 530.903 432.91 L 545.481 425.698 Z " fill="rgb(194,137,121)"/><path d=" M 505.869 396.883 C 505.884 396.339 505.661 376.964 505.661 376.964 C 505.447 378.123 499.085 360.141 499.239 359.048 C 499.318 358.482 505.869 396.883 505.869 396.883 Z " fill="rgb(176,111,97)"/><path d=" M 498.514 350.534 C 498.474 350.534 498.437 350.92 498.403 351.62 C 498.366 352.321 498.358 353.337 498.426 354.591 C 498.45 355.22 498.516 355.905 498.597 356.64 C 498.691 357.373 498.791 358.159 498.961 358.974 C 499.272 360.61 499.752 362.379 500.363 364.195 C 501.608 367.819 502.983 370.99 503.959 373.29 C 504.421 374.339 504.818 375.242 505.152 375.999 C 505.445 376.634 505.625 376.979 505.661 376.964 C 505.698 376.95 505.588 376.577 505.358 375.916 C 505.129 375.255 504.778 374.306 504.332 373.139 C 503.451 370.8 502.137 367.605 500.903 364.013 C 500.298 362.214 499.81 360.476 499.476 358.87 C 499.294 358.071 499.178 357.299 499.066 356.578 C 498.965 355.856 498.877 355.182 498.828 354.562 C 498.71 353.325 498.656 352.317 498.625 351.619 C 498.591 350.922 498.553 350.535 498.514 350.534 Z " fill="rgb(176,111,97)"/><path d=" M 489.395 435.91 L 489.388 434.299 L 506.957 433.534 L 507.006 440.179 L 505.922 440.251 C 501.099 440.534 481.38 441.347 478.152 440.38 C 474.553 439.3 489.395 435.91 489.395 435.91 Z " fill="rgb(67,96,105)"/><path d=" M 507.251 439.777 C 507.251 439.784 507.148 439.795 506.95 439.81 C 506.691 439.826 506.407 439.845 506.087 439.866 C 505.224 439.906 504.163 439.955 502.911 440.014 C 500.228 440.119 496.519 440.217 492.422 440.236 C 488.323 440.253 484.613 440.188 481.93 440.106 C 480.677 440.058 479.615 440.018 478.752 439.985 C 478.432 439.967 478.148 439.951 477.889 439.937 C 477.691 439.924 477.588 439.913 477.588 439.907 C 477.588 439.899 477.692 439.895 477.89 439.895 C 478.15 439.897 478.434 439.9 478.754 439.903 C 479.618 439.917 480.68 439.935 481.933 439.955 C 484.616 440 488.324 440.041 492.421 440.024 C 496.516 440.005 500.223 439.932 502.906 439.864 C 504.159 439.832 505.221 439.805 506.084 439.783 C 506.404 439.777 506.689 439.772 506.948 439.767 C 507.147 439.766 507.25 439.769 507.251 439.777 Z " fill="rgb(44,61,67)"/><path d=" M 483.703 440.342 C 483.638 440.351 483.586 439.592 483.104 438.828 C 482.635 438.055 481.981 437.67 482.017 437.616 C 482.028 437.563 482.779 437.89 483.284 438.717 C 483.798 439.537 483.755 440.355 483.703 440.342 Z " fill="rgb(44,61,67)"/><path d=" M 488.851 437.707 C 488.802 437.739 488.554 437.439 488.298 437.038 C 488.041 436.638 487.873 436.287 487.923 436.255 C 487.972 436.224 488.22 436.524 488.476 436.924 C 488.733 437.326 488.9 437.675 488.851 437.707 Z " fill="rgb(44,61,67)"/><path d=" M 490.264 436.953 C 490.225 436.997 489.948 436.814 489.647 436.544 C 489.344 436.275 489.131 436.021 489.17 435.978 C 489.208 435.934 489.485 436.117 489.787 436.386 C 490.089 436.656 490.303 436.909 490.264 436.953 Z " fill="rgb(44,61,67)"/><path d=" M 491.152 435.3 C 491.153 435.359 490.745 435.412 490.241 435.42 C 489.736 435.427 489.327 435.386 489.326 435.327 C 489.325 435.269 489.733 435.216 490.238 435.208 C 490.742 435.201 491.151 435.242 491.152 435.3 Z " fill="rgb(44,61,67)"/><path d=" M 491.455 434.136 C 491.476 434.188 491.031 434.39 490.439 434.436 C 489.847 434.484 489.376 434.354 489.388 434.299 C 489.397 434.239 489.859 434.271 490.422 434.224 C 490.984 434.182 491.437 434.077 491.455 434.136 Z " fill="rgb(44,61,67)"/><path d=" M 488.253 436.185 C 488.254 436.208 487.823 436.262 487.129 436.181 C 486.783 436.141 486.373 436.061 485.933 435.922 C 485.713 435.845 485.484 435.787 485.247 435.643 C 485.136 435.569 485.012 435.465 484.968 435.294 C 484.921 435.126 485.01 434.937 485.136 434.845 C 486.208 434.284 487.285 434.885 487.686 435.438 C 487.906 435.721 488.008 435.996 488.055 436.187 C 488.101 436.378 488.098 436.488 488.085 436.49 C 488.046 436.504 488.008 436.048 487.57 435.534 C 487.355 435.282 487.027 435.036 486.608 434.913 C 486.211 434.797 485.647 434.768 485.27 435.009 C 485.092 435.142 485.162 435.352 485.361 435.469 C 485.546 435.588 485.785 435.659 485.993 435.737 C 486.419 435.881 486.816 435.975 487.151 436.034 C 487.824 436.15 488.253 436.15 488.253 436.185 Z " fill="rgb(44,61,67)"/><path d=" M 487.962 436.241 C 487.946 436.253 487.779 435.967 487.829 435.461 C 487.856 435.213 487.945 434.919 488.133 434.64 C 488.33 434.39 488.584 434.045 489.066 434.064 C 489.326 434.096 489.455 434.392 489.414 434.581 C 489.395 434.779 489.307 434.948 489.226 435.083 C 489.06 435.365 488.871 435.593 488.697 435.765 C 488.346 436.111 488.068 436.243 488.056 436.222 C 488.036 436.195 488.279 436.02 488.588 435.663 C 488.741 435.485 488.907 435.259 489.056 434.988 C 489.209 434.749 489.313 434.323 489.03 434.273 C 488.75 434.246 488.464 434.528 488.293 434.752 C 488.117 434.996 488.02 435.258 487.978 435.484 C 487.894 435.942 487.999 436.233 487.962 436.241 Z " fill="rgb(44,61,67)"/><path d=" M 506.876 434.994 C 506.873 435.034 506.376 434.949 505.586 435.045 C 504.804 435.135 503.716 435.46 502.773 436.216 C 501.829 436.975 501.277 437.966 501.021 438.711 C 500.757 439.461 500.733 439.965 500.693 439.96 C 500.68 439.959 500.674 439.833 500.691 439.608 C 500.709 439.381 500.762 439.055 500.878 438.664 C 501.105 437.888 501.656 436.842 502.64 436.051 C 503.624 435.262 504.764 434.95 505.571 434.896 C 505.978 434.867 506.308 434.885 506.532 434.917 C 506.757 434.949 506.879 434.982 506.876 434.994 Z " fill="rgb(44,61,67)"/><path d=" M 498.462 438.384 C 498.47 438.439 497.329 438.621 495.909 438.626 C 494.488 438.636 493.347 438.466 493.354 438.411 C 493.359 438.35 494.501 438.424 495.908 438.415 C 497.316 438.409 498.455 438.323 498.462 438.384 Z " fill="rgb(44,61,67)"/><path d=" M 501.887 438.347 C 501.93 438.389 501.794 438.589 501.679 438.851 C 501.56 439.113 501.5 439.346 501.441 439.342 C 501.384 439.342 501.349 439.067 501.485 438.765 C 501.62 438.462 501.85 438.304 501.887 438.347 Z " fill="rgb(44,61,67)"/><path d=" M 503.173 436.735 C 503.214 436.777 503.102 436.958 502.922 437.142 C 502.741 437.326 502.562 437.443 502.52 437.402 C 502.479 437.361 502.59 437.178 502.771 436.994 C 502.95 436.81 503.131 436.695 503.173 436.735 Z " fill="rgb(44,61,67)"/><path d=" M 505.017 435.994 C 505.005 436.054 504.773 436.052 504.517 436.144 C 504.258 436.229 504.075 436.372 504.029 436.333 C 503.983 436.301 504.129 436.052 504.448 435.944 C 504.766 435.833 505.035 435.94 505.017 435.994 Z " fill="rgb(44,61,67)"/><path d=" M 506.331 435.643 C 506.353 435.698 506.252 435.787 506.108 435.844 C 505.963 435.902 505.828 435.903 505.807 435.849 C 505.785 435.794 505.886 435.704 506.03 435.648 C 506.175 435.59 506.31 435.589 506.331 435.643 Z " fill="rgb(44,61,67)"/><path d=" M 530.56 434.361 L 529.893 432.894 L 545.608 424.998 L 548.373 431.04 L 547.414 431.551 C 543.131 433.784 525.475 442.603 522.134 443.042 C 518.408 443.532 530.56 434.361 530.56 434.361 Z " fill="rgb(67,96,105)"/><path d=" M 548.432 430.573 C 548.436 430.579 548.346 430.632 548.172 430.727 C 547.943 430.848 547.692 430.981 547.407 431.13 C 546.637 431.521 545.689 432 544.57 432.567 C 542.166 433.763 538.822 435.371 535.093 437.067 C 531.36 438.761 527.949 440.221 525.467 441.245 C 524.305 441.715 523.32 442.113 522.52 442.437 C 522.22 442.552 521.954 442.654 521.712 442.747 C 521.526 442.816 521.428 442.849 521.425 442.842 C 521.423 442.835 521.516 442.789 521.696 442.707 C 521.934 442.604 522.193 442.49 522.487 442.361 C 523.281 442.02 524.258 441.602 525.409 441.107 C 527.876 440.048 531.276 438.567 535.005 436.873 C 538.733 435.179 542.084 433.593 544.505 432.433 C 545.634 431.89 546.592 431.431 547.37 431.057 C 547.661 430.92 547.918 430.799 548.152 430.689 C 548.333 430.607 548.429 430.567 548.432 430.573 Z " fill="rgb(44,61,67)"/><path d=" M 527.183 440.735 C 527.127 440.769 526.768 440.099 526.016 439.599 C 525.272 439.086 524.516 439.002 524.526 438.938 C 524.517 438.885 525.335 438.875 526.135 439.423 C 526.94 439.961 527.235 440.725 527.183 440.735 Z " fill="rgb(44,61,67)"/><path d=" M 530.799 436.222 C 530.768 436.271 530.418 436.099 530.021 435.839 C 529.622 435.578 529.325 435.327 529.358 435.279 C 529.39 435.229 529.738 435.401 530.137 435.661 C 530.534 435.922 530.831 436.173 530.799 436.222 Z " fill="rgb(44,61,67)"/><path d=" M 531.779 434.956 C 531.762 435.012 531.435 434.958 531.049 434.836 C 530.662 434.714 530.363 434.57 530.382 434.514 C 530.4 434.458 530.727 434.512 531.112 434.634 C 531.498 434.756 531.797 434.9 531.779 434.956 Z " fill="rgb(44,61,67)"/><path d=" M 531.913 433.083 C 531.938 433.137 531.587 433.353 531.131 433.567 C 530.673 433.78 530.283 433.909 530.258 433.857 C 530.234 433.804 530.584 433.588 531.041 433.374 C 531.498 433.16 531.889 433.031 531.913 433.083 Z " fill="rgb(44,61,67)"/><path d=" M 531.712 431.898 C 531.752 431.937 531.43 432.303 530.907 432.587 C 530.387 432.874 529.904 432.948 529.893 432.894 C 529.877 432.834 530.312 432.674 530.806 432.402 C 531.302 432.132 531.671 431.852 531.712 431.898 Z " fill="rgb(44,61,67)"/><path d=" M 529.63 435.078 C 529.641 435.099 529.27 435.326 528.604 435.535 C 528.272 435.64 527.864 435.735 527.405 435.789 C 527.174 435.809 526.942 435.85 526.666 435.815 C 526.533 435.793 526.378 435.749 526.269 435.612 C 526.156 435.478 526.16 435.269 526.238 435.132 C 526.986 434.183 528.215 434.288 528.807 434.629 C 529.124 434.797 529.329 435.007 529.45 435.161 C 529.57 435.318 529.612 435.418 529.602 435.425 C 529.571 435.454 529.35 435.054 528.74 434.764 C 528.441 434.622 528.042 434.533 527.609 434.592 C 527.199 434.649 526.672 434.853 526.427 435.228 C 526.319 435.422 526.469 435.584 526.698 435.61 C 526.916 435.642 527.164 435.61 527.385 435.595 C 527.833 435.553 528.233 435.476 528.563 435.391 C 529.225 435.222 529.615 435.046 529.63 435.078 Z " fill="rgb(44,61,67)"/><path d=" M 529.388 435.249 C 529.378 435.267 529.109 435.074 528.947 434.592 C 528.87 434.355 528.831 434.049 528.888 433.718 C 528.966 433.409 529.057 432.991 529.503 432.811 C 529.754 432.733 530.34 433.238 530.381 433.427 C 530.443 433.615 530.084 433.518 530.067 433.676 C 530.03 434 529.951 434.285 529.863 434.514 C 529.685 434.973 529.486 435.207 529.466 435.194 C 529.437 435.176 529.587 434.917 529.722 434.465 C 529.788 434.24 529.848 433.965 529.872 433.658 C 529.914 433.377 529.834 432.946 529.557 433.016 C 529.289 433.107 529.144 433.48 529.079 433.755 C 529.02 434.049 529.038 434.328 529.092 434.552 C 529.202 435.003 529.418 435.226 529.388 435.249 Z " fill="rgb(44,61,67)"/><path d=" M 546.132 426.365 C 546.145 426.402 545.656 426.528 544.976 426.939 C 544.299 427.341 543.44 428.083 542.889 429.159 C 542.339 430.238 542.241 431.368 542.313 432.153 C 542.379 432.946 542.564 433.415 542.526 433.427 C 542.513 433.431 542.455 433.32 542.379 433.106 C 542.303 432.892 542.217 432.573 542.163 432.168 C 542.052 431.367 542.127 430.188 542.7 429.064 C 543.275 427.941 544.187 427.188 544.901 426.809 C 545.259 426.615 545.568 426.497 545.786 426.434 C 546.004 426.37 546.129 426.352 546.132 426.365 Z " fill="rgb(44,61,67)"/><path d=" M 539.844 432.903 C 539.873 432.95 538.908 433.582 537.615 434.17 C 536.322 434.761 535.212 435.074 535.195 435.021 C 535.176 434.962 536.247 434.563 537.527 433.977 C 538.809 433.396 539.814 432.849 539.844 432.903 Z " fill="rgb(44,61,67)"/><path d=" M 542.953 431.466 C 543.01 431.487 542.968 431.725 542.971 432.011 C 542.968 432.298 543.01 432.535 542.953 432.557 C 542.902 432.58 542.758 432.343 542.758 432.011 C 542.758 431.68 542.901 431.443 542.953 431.466 Z " fill="rgb(44,61,67)"/><path d=" M 543.466 429.469 C 543.521 429.49 543.493 429.701 543.404 429.944 C 543.316 430.185 543.198 430.365 543.144 430.344 C 543.089 430.325 543.116 430.112 543.205 429.87 C 543.294 429.628 543.411 429.449 543.466 429.469 Z " fill="rgb(44,61,67)"/><path d=" M 544.846 428.037 C 544.859 428.097 544.647 428.191 544.45 428.379 C 544.249 428.563 544.142 428.769 544.083 428.751 C 544.027 428.742 544.059 428.453 544.305 428.225 C 544.55 427.993 544.839 427.981 544.846 428.037 Z " fill="rgb(44,61,67)"/><path d=" M 545.901 427.179 C 545.943 427.22 545.888 427.343 545.778 427.454 C 545.67 427.566 545.548 427.622 545.506 427.581 C 545.464 427.54 545.519 427.417 545.627 427.306 C 545.736 427.195 545.859 427.138 545.901 427.179 Z " fill="rgb(44,61,67)"/><path d=" M 526.231 223.636 L 523.305 187.938 L 538.333 188.206 C 538.333 188.206 539.029 182.943 536.815 171.397 C 535.457 164.318 530.742 159.975 525.454 157.395 L 525.455 157.301 L 524.997 157.181 C 518.272 154.033 511.232 153.589 511.232 153.589 L 492.785 153.802 C 492.785 153.802 478.693 152.044 470.893 162.09 C 467.888 165.959 458.591 192.445 458.591 192.445 L 480.732 203.109 L 478.625 188.422 C 478.625 188.422 479.044 199.07 480.403 202.444 C 481.16 204.324 483.353 210.16 483.353 210.16 L 483.066 227.775 L 526.231 223.636 Z " fill="rgb(232,232,232)"/><path d=" M 516.053 182.756 L 513.316 194.422 L 539.147 194.422 L 537.447 174.864 L 516.053 182.756 Z " fill="rgb(232,232,232)"/><path d=" M 539.147 194.422 C 539.149 194.345 537.844 194.208 535.728 194.083 C 533.61 193.959 530.681 193.854 527.443 193.869 C 524.205 193.885 521.276 194.025 519.16 194.193 C 517.045 194.36 515.744 194.539 515.75 194.614 C 515.756 194.696 517.066 194.659 519.182 194.595 C 521.298 194.531 524.218 194.454 527.446 194.438 C 530.674 194.424 533.596 194.465 535.713 194.486 C 537.83 194.508 539.143 194.502 539.147 194.422 Z " fill="rgb(44,61,67)"/><path d=" M 514.94 174.768 C 514.861 174.771 514.834 175.905 514.854 177.736 C 514.873 179.566 514.94 182.093 515.048 184.883 C 515.156 187.673 515.286 190.198 515.408 192.025 C 515.53 193.851 515.646 194.979 515.725 194.976 C 515.803 194.973 515.83 193.839 515.811 192.009 C 515.791 190.179 515.726 187.651 515.617 184.861 C 515.509 182.071 515.379 179.546 515.256 177.72 C 515.134 175.894 515.019 174.766 514.94 174.768 Z " fill="rgb(44,61,67)"/><path d=" M 512.689 226.335 C 511.234 226.335 509.865 225.977 508.581 225.328 L 520.451 224.19 C 517.42 226.264 513.316 226.313 513.316 226.313 C 513.105 226.328 512.896 226.335 512.689 226.335 Z " fill="rgb(169,172,173)"/><path d=" M 508.581 225.328 C 496.036 218.99 491.435 184.872 491.435 184.872 L 522.918 219.496 L 522.918 221.397 C 522.338 222.597 521.453 223.504 520.451 224.19 L 508.581 225.328 Z " fill="rgb(187,74,82)"/><path d=" M 513.851 201.807 L 511.85 198.145 L 514.855 177.849 C 514.876 179.669 514.942 182.15 515.048 184.883 C 515.072 185.509 515.098 186.121 515.124 186.715 L 513.316 194.422 L 515.609 194.422 C 515.652 194.781 515.692 194.976 515.724 194.976 C 515.724 194.976 515.725 194.976 515.725 194.976 C 515.75 194.975 515.77 194.856 515.785 194.633 C 515.862 194.653 516.067 194.661 516.383 194.661 C 516.589 194.661 516.843 194.657 517.141 194.651 L 513.851 201.807 Z " fill="rgb(187,74,82)"/><path d=" M 515.609 194.422 L 513.316 194.422 L 515.124 186.715 C 515.214 188.771 515.314 190.608 515.408 192.025 C 515.48 193.09 515.548 193.918 515.609 194.422 Z " fill="rgb(187,74,82)"/><path d=" M 516.383 194.661 C 516.067 194.661 515.862 194.653 515.785 194.633 C 515.785 194.627 515.785 194.621 515.786 194.614 L 517.143 194.647 L 517.141 194.651 C 516.843 194.657 516.589 194.661 516.383 194.661 Z " fill="rgb(39,49,54)"/><path d=" M 515.724 194.976 C 515.692 194.976 515.652 194.781 515.609 194.422 C 515.548 193.918 515.48 193.09 515.408 192.025 C 515.314 190.608 515.214 188.771 515.124 186.715 C 515.098 186.121 515.072 185.509 515.048 184.883 C 514.942 182.15 514.876 179.669 514.855 177.849 L 514.94 177.277 L 515.75 194.614 L 515.786 194.614 C 515.785 194.621 515.785 194.627 515.785 194.633 C 515.77 194.856 515.75 194.975 515.725 194.976 C 515.725 194.976 515.724 194.976 515.724 194.976 Z " fill="rgb(39,49,54)"/><path d=" M 483.353 210.16 C 483.318 210.172 483.165 209.817 482.916 209.164 C 482.666 208.512 482.332 207.557 481.946 206.369 C 481.175 203.994 480.222 200.669 479.476 196.924 C 478.733 193.177 478.37 189.731 478.252 187.233 C 478.191 185.984 478.173 184.973 478.191 184.274 C 478.205 183.575 478.231 183.189 478.267 183.188 C 478.349 183.187 478.405 184.729 478.619 187.208 C 478.831 189.687 479.249 193.099 479.986 196.823 C 480.729 200.544 481.619 203.867 482.299 206.263 C 482.616 207.374 482.886 208.321 483.108 209.1 C 483.298 209.772 483.387 210.149 483.353 210.16 Z " fill="rgb(44,61,67)"/><path d=" M 489.878 222.393 C 489.74 222.434 489.341 221.516 488.986 220.342 C 488.631 219.167 488.454 218.181 488.592 218.139 C 488.73 218.098 489.129 219.016 489.484 220.191 C 489.84 221.365 490.016 222.351 489.878 222.393 Z " fill="rgb(44,61,67)"/><path d=" M 492.109 222.23 C 491.977 222.264 491.541 220.886 491.52 219.118 C 491.489 217.351 491.884 215.96 492.018 215.991 C 492.166 216.018 492.01 217.405 492.04 219.111 C 492.06 220.816 492.257 222.199 492.109 222.23 Z " fill="rgb(44,61,67)"/><path d=" M 481.182 203.596 C 481.118 203.725 475.965 201.28 469.674 198.137 C 463.381 194.992 458.333 192.339 458.398 192.211 C 458.462 192.082 463.614 194.526 469.907 197.671 C 476.197 200.814 481.246 203.468 481.182 203.596 Z " fill="rgb(44,61,67)"/><path d=" M 490.262 157.253 C 490.377 152.194 490.405 146.867 490.405 146.867 C 490.405 146.867 483.917 145.616 482.786 137.078 C 481.708 128.936 484.724 109.831 484.724 109.831 C 494.202 106.248 504.052 109.496 510.546 117.176 L 508.934 158.25 C 508.747 163.018 504.498 166.655 499.394 166.416 C 494.238 166.174 490.152 162.074 490.262 157.253 Z " fill="rgb(194,137,121)"/><path d=" M 484.232 125.1 C 484.196 125.675 484.654 126.18 485.254 126.227 C 485.854 126.275 486.368 125.848 486.403 125.273 C 486.439 124.698 485.981 124.193 485.382 124.145 C 484.781 124.097 484.267 124.525 484.232 125.1 Z " fill="rgb(44,61,67)"/><path d=" M 483.825 123.667 C 483.957 123.813 484.799 123.222 485.972 123.256 C 487.145 123.273 487.99 123.899 488.121 123.758 C 488.186 123.696 488.055 123.436 487.687 123.153 C 487.324 122.872 486.701 122.591 485.971 122.576 C 485.239 122.56 484.618 122.814 484.257 123.08 C 483.89 123.347 483.761 123.601 483.825 123.667 Z " fill="rgb(44,61,67)"/><path d=" M 496.137 125.841 C 496.102 126.416 496.56 126.92 497.16 126.969 C 497.759 127.016 498.275 126.59 498.31 126.014 C 498.345 125.439 497.887 124.934 497.287 124.886 C 496.688 124.838 496.172 125.266 496.137 125.841 Z " fill="rgb(44,61,67)"/><path d=" M 496.058 124.409 C 496.19 124.555 497.032 123.965 498.205 123.998 C 499.377 124.015 500.223 124.641 500.355 124.501 C 500.418 124.438 500.288 124.179 499.919 123.896 C 499.557 123.614 498.935 123.334 498.203 123.318 C 497.473 123.303 496.851 123.556 496.49 123.823 C 496.123 124.09 495.993 124.344 496.058 124.409 Z " fill="rgb(44,61,67)"/><path d=" M 491.575 133.001 C 491.582 132.935 490.856 132.79 489.678 132.609 C 489.379 132.57 489.097 132.503 489.052 132.297 C 488.986 132.079 489.12 131.759 489.275 131.414 C 489.575 130.697 489.89 129.944 490.22 129.156 C 491.534 125.939 492.494 123.291 492.363 123.239 C 492.233 123.187 491.063 125.752 489.748 128.969 C 489.432 129.763 489.129 130.519 488.841 131.242 C 488.718 131.58 488.513 131.961 488.654 132.414 C 488.73 132.64 488.945 132.808 489.136 132.865 C 489.326 132.929 489.495 132.936 489.643 132.949 C 490.831 133.044 491.568 133.068 491.575 133.001 Z " fill="rgb(44,61,67)"/><path d=" M 490.405 146.867 C 490.405 146.867 496.116 147.383 501.871 144.122 C 501.871 144.122 498.958 149.892 490.469 148.877 L 490.405 146.867 Z " fill="rgb(176,111,97)"/><path d=" M 499.814 121.024 C 499.573 121.391 498.681 121.228 497.681 121.048 C 496.685 120.847 495.795 120.67 495.706 120.24 C 495.607 119.828 496.64 119.258 497.974 119.513 C 499.308 119.766 500.058 120.677 499.814 121.024 Z " fill="rgb(44,61,67)"/><path d=" M 488.147 119.302 C 488.056 119.729 487.1 119.885 485.998 119.942 C 484.895 119.987 483.93 119.919 483.8 119.501 C 483.668 119.097 484.6 118.44 485.926 118.381 C 487.252 118.318 488.24 118.887 488.147 119.302 Z " fill="rgb(44,61,67)"/><path d=" M 491.594 135.81 C 491.346 135.742 491.068 135.882 490.944 136.107 C 490.796 136.374 490.864 136.742 491.098 136.939 C 491.331 137.136 491.705 137.141 491.943 136.951 C 492.183 136.76 492.26 136.395 492.12 136.123 C 491.98 135.852 491.637 135.704 491.343 135.789" fill="rgb(176,111,97)"/><path d=" M 491.868 135.926 C 491.921 135.879 491.681 135.591 491.168 135.702 C 490.932 135.755 490.621 135.968 490.526 136.331 C 490.433 136.673 490.518 137.117 490.88 137.394 C 491.255 137.659 491.707 137.604 492.005 137.401 C 492.324 137.191 492.415 136.807 492.365 136.567 C 492.262 136.04 491.872 135.956 491.861 136.03 C 491.817 136.096 491.997 136.278 491.963 136.59 C 491.945 136.743 491.873 136.885 491.725 136.957 C 491.58 137.037 491.35 137.036 491.218 136.935 C 491.08 136.838 491.009 136.619 491.038 136.451 C 491.059 136.284 491.171 136.158 491.307 136.081 C 491.585 135.924 491.832 135.998 491.868 135.926 Z " fill="rgb(44,61,67)"/><path d=" M 506.616 127.208 C 505.605 129.552 503.136 131.358 503.479 133.888 C 503.699 135.522 504.747 137.045 504.543 138.68 C 504.287 140.735 502.153 142.159 501.852 144.206 C 501.481 146.718 503.924 148.67 504.9 151.014 C 506.321 154.428 504.503 158.266 504.46 161.963 C 504.395 167.626 509.211 172.916 514.855 173.381 C 517.138 173.569 519.709 172.88 520.893 170.919 C 521.869 169.3 521.674 167.245 522.26 165.448 C 523.132 162.771 525.683 160.813 526.221 158.05 C 527.201 153.013 521.113 148.845 521.514 143.729 C 521.685 141.544 523.034 139.637 523.609 137.521 C 524.359 134.749 523.671 131.627 521.822 129.429 C 520.32 127.642 518.141 126.467 516.861 124.515 C 515.41 122.301 515.36 119.494 514.813 116.904 C 513.48 110.594 508.74 105.111 502.689 102.879 C 496.637 100.647 489.473 101.739 484.36 105.673 C 484.36 105.673 482.906 112.264 489.672 113.366 C 496.437 114.468 499.572 113.196 500.335 115.908 C 500.335 115.908 499.565 119.076 502.361 122.101 C 505.159 125.127 507.787 124.494 506.616 127.208 Z " fill="rgb(44,61,67)"/><path d=" M 517.412 172.92 C 517.409 172.938 517.198 172.915 516.795 172.855 C 516.393 172.793 515.803 172.659 515.074 172.391 C 513.629 171.863 511.583 170.713 509.839 168.516 C 508.973 167.428 508.161 166.107 507.614 164.555 C 507.054 163.012 506.734 161.263 506.704 159.421 C 506.661 157.577 506.923 155.645 507.426 153.711 C 507.677 152.742 508.003 151.777 508.383 150.818 C 508.757 149.855 509.217 148.927 509.481 147.945 C 509.765 146.966 509.727 145.966 509.471 145.012 C 509.21 144.057 508.766 143.161 508.333 142.274 C 507.898 141.388 507.454 140.504 507.168 139.564 C 506.877 138.632 506.769 137.627 506.958 136.69 C 507.357 134.806 508.501 133.412 509.176 131.982 C 509.891 130.564 510.114 129.067 510.081 127.722 C 509.96 124.998 508.799 122.984 507.852 121.823 C 506.863 120.66 506.114 120.218 506.152 120.169 C 506.152 120.169 506.945 120.543 508.005 121.691 C 509.021 122.837 510.275 124.879 510.449 127.706 C 510.509 129.099 510.296 130.677 509.565 132.17 C 508.875 133.653 507.771 135.057 507.43 136.781 C 507.078 138.518 507.9 140.307 508.791 142.048 C 509.227 142.936 509.689 143.855 509.971 144.876 C 510.251 145.89 510.292 147.035 509.983 148.08 C 509.699 149.129 509.23 150.069 508.864 151.01 C 508.49 151.95 508.168 152.895 507.919 153.842 C 507.42 155.733 507.155 157.619 507.185 159.414 C 507.196 163.018 508.434 166.17 510.128 168.288 C 511.789 170.456 513.752 171.626 515.149 172.202 C 516.564 172.775 517.425 172.861 517.412 172.92 Z " fill="rgb(67,96,105)"/><path d=" M 516.416 122.459 C 516.419 122.492 515.892 122.587 514.926 122.681 C 513.964 122.761 512.543 122.872 510.808 122.573 C 509.113 122.263 506.968 121.43 505.61 119.419 C 504.944 118.41 504.68 117.189 504.246 116.062 C 503.838 114.922 503.049 113.935 501.968 113.251 C 499.78 111.865 497.206 111.694 494.954 111.42 C 492.691 111.165 490.566 110.685 489.126 109.604 C 487.675 108.572 486.931 107.231 486.739 106.265 C 486.631 105.782 486.64 105.393 486.662 105.138 C 486.698 104.881 486.726 104.75 486.744 104.752 C 486.808 104.753 486.675 105.302 486.937 106.216 C 487.178 107.12 487.93 108.356 489.337 109.303 C 490.724 110.285 492.757 110.715 495.011 110.943 C 497.242 111.195 499.907 111.334 502.251 112.814 C 503.407 113.535 504.303 114.668 504.722 115.878 C 505.167 117.068 505.416 118.24 506.014 119.159 C 507.233 121.02 509.25 121.871 510.878 122.211 C 512.548 122.548 513.955 122.496 514.914 122.479 C 515.877 122.448 516.412 122.421 516.416 122.459 Z " fill="rgb(67,96,105)"/><path d=" M 513.935 114.315 C 513.941 114.341 513.531 114.468 512.763 114.488 C 512.001 114.509 510.86 114.374 509.606 113.777 C 508.98 113.48 508.338 113.054 507.748 112.485 C 507.148 111.919 506.656 111.187 506.196 110.415 C 505.294 108.894 504.427 107.018 502.557 106.242 C 500.725 105.457 498.707 105.632 496.954 105.75 C 495.184 105.925 493.525 105.976 492.172 105.71 C 490.81 105.473 489.788 104.909 489.222 104.387 C 488.935 104.128 488.74 103.898 488.633 103.727 C 488.521 103.558 488.47 103.467 488.484 103.456 C 488.526 103.424 488.765 103.778 489.351 104.23 C 489.933 104.681 490.916 105.164 492.233 105.347 C 493.55 105.557 495.135 105.473 496.913 105.272 C 498.675 105.133 500.753 104.912 502.768 105.766 C 503.764 106.19 504.577 106.938 505.155 107.749 C 505.744 108.56 506.166 109.408 506.61 110.173 C 507.052 110.938 507.505 111.638 508.052 112.178 C 508.593 112.724 509.187 113.145 509.771 113.448 C 510.943 114.056 512.028 114.245 512.768 114.285 C 513.512 114.328 513.929 114.27 513.935 114.315 Z " fill="rgb(67,96,105)"/><path d=" M 520.397 170.762 C 520.346 170.739 520.664 170.096 521.033 168.865 C 521.4 167.638 521.764 165.793 521.699 163.505 C 521.621 161.231 521.074 158.481 519.568 155.869 C 518.836 154.559 517.725 153.392 516.819 151.954 C 516.369 151.236 515.982 150.431 515.812 149.54 C 515.645 148.648 515.746 147.701 516.033 146.841 C 516.594 145.115 517.599 143.66 517.815 142.073 C 518.082 140.481 517.278 139.029 516.517 137.738 C 516.132 137.08 515.746 136.43 515.446 135.75 C 515.147 135.07 514.956 134.354 514.881 133.662 C 514.729 132.272 514.891 130.995 514.994 129.849 C 515.282 127.565 515.07 125.688 514.52 124.535 C 513.986 123.367 513.288 123.017 513.34 122.97 L 513.461 123.027 C 513.534 123.075 513.651 123.138 513.779 123.255 C 514.046 123.472 514.402 123.857 514.702 124.446 C 515.335 125.614 515.607 127.576 515.36 129.88 C 515.279 131.031 515.146 132.293 515.309 133.609 C 515.442 134.938 516.127 136.193 516.93 137.493 C 517.319 138.152 517.73 138.839 518.019 139.618 C 518.315 140.392 518.449 141.276 518.319 142.143 C 518.076 143.892 517.046 145.372 516.529 146.998 C 516.261 147.809 516.175 148.643 516.321 149.446 C 516.473 150.247 516.824 150.995 517.253 151.685 C 518.11 153.067 519.228 154.257 519.983 155.629 C 521.518 158.344 522.035 161.173 522.068 163.496 C 522.085 165.835 521.657 167.702 521.227 168.926 C 521.002 169.537 520.814 170.005 520.651 170.307 C 520.5 170.614 520.413 170.77 520.397 170.762 Z " fill="rgb(67,96,105)"/><path d=" M 479.662 357.088 C 479.662 357.088 472.928 293.245 472.541 269.656 C 472.154 246.065 483.148 222.789 483.148 222.789 L 526.231 220.967 C 526.231 220.967 534.746 244.903 534.899 254.956 C 535.195 274.495 529.707 293.79 530.34 309.289 L 531.78 357.088" fill="rgb(44,61,67)"/><path d=" M 533.222 278.603 C 533.231 278.618 532.986 278.802 532.519 279.135 C 532.399 279.22 532.268 279.313 532.126 279.412 C 531.991 279.527 531.86 279.67 531.709 279.815 C 531.406 280.106 531.054 280.435 530.749 280.89 C 529.358 282.594 528.343 285.637 527.379 289.435 C 526.847 291.321 526.309 293.437 525.197 295.508 C 524.9 296.014 524.633 296.55 524.241 297.021 C 524.054 297.26 523.884 297.518 523.679 297.748 L 523.015 298.411 C 522.115 299.296 520.976 299.963 519.775 300.49 C 517.363 301.547 514.641 302.048 512.153 303.296 C 509.65 304.515 507.774 306.878 506.624 309.599 C 505.411 312.309 504.675 315.154 503.663 317.81 C 502.669 320.445 501.316 323.01 499.166 324.63 C 497.033 326.309 494.398 326.693 492.115 326.84 C 489.796 326.975 487.648 326.909 485.721 327.2 C 483.802 327.466 482.101 328.075 480.899 329.02 C 479.692 329.968 478.988 331.157 478.657 332.175 C 478.316 333.205 478.377 334.074 478.49 334.627 C 478.602 335.189 478.76 335.457 478.725 335.472 C 478.725 335.472 478.536 335.219 478.389 334.652 C 478.238 334.092 478.14 333.193 478.464 332.116 C 478.777 331.05 479.478 329.804 480.717 328.792 C 481.96 327.78 483.709 327.132 485.666 326.836 C 487.628 326.516 489.8 326.562 492.086 326.409 C 494.347 326.245 496.869 325.849 498.874 324.248 C 500.905 322.704 502.21 320.237 503.187 317.628 C 504.181 315.003 504.912 312.154 506.15 309.385 C 507.311 306.617 509.301 304.103 511.923 302.841 C 514.509 301.557 517.233 301.072 519.584 300.049 C 520.755 299.542 521.843 298.912 522.703 298.076 L 523.34 297.45 C 523.538 297.231 523.702 296.984 523.884 296.755 C 524.263 296.308 524.526 295.789 524.818 295.303 C 525.913 293.304 526.472 291.211 527.024 289.336 C 528.031 285.559 529.117 282.466 530.59 280.764 C 530.913 280.311 531.285 279.985 531.605 279.701 C 531.764 279.56 531.903 279.419 532.045 279.31 C 532.194 279.216 532.332 279.129 532.458 279.049 C 532.952 278.74 533.213 278.587 533.222 278.603 Z " fill="rgb(246,246,245)"/><path d=" M 533.487 249.059 C 533.505 249.058 533.525 249.351 533.543 249.914 C 533.552 250.476 533.484 251.31 533.244 252.357 C 532.744 254.438 531.224 257.296 528.377 259.882 C 526.971 261.181 525.273 262.437 523.332 263.568 C 521.401 264.713 519.272 265.803 517.09 267.036 C 514.916 268.273 512.674 269.67 510.704 271.527 C 508.708 273.361 507.213 275.771 505.867 278.324 C 504.507 280.872 503.303 283.467 501.673 285.713 C 500.864 286.835 499.95 287.86 498.939 288.737 C 497.921 289.608 496.813 290.316 495.687 290.903 C 493.427 292.076 491.125 292.801 488.992 293.469 C 486.855 294.13 484.86 294.715 483.117 295.446 C 481.371 296.166 479.858 296.981 478.636 297.846 C 477.413 298.711 476.483 299.619 475.823 300.44 C 474.491 302.089 474.211 303.284 474.136 303.244 C 474.119 303.239 474.214 302.961 474.413 302.434 C 474.645 301.923 475.002 301.162 475.664 300.315 C 476.311 299.46 477.238 298.513 478.466 297.61 C 479.693 296.707 481.217 295.858 482.975 295.107 C 484.733 294.345 486.736 293.735 488.862 293.057 C 490.985 292.373 493.26 291.637 495.464 290.478 C 496.562 289.898 497.635 289.204 498.614 288.36 C 499.589 287.508 500.471 286.514 501.259 285.415 C 502.847 283.218 504.04 280.644 505.407 278.079 C 506.758 275.515 508.297 273.035 510.354 271.156 C 512.379 269.258 514.661 267.851 516.855 266.618 C 519.056 265.39 521.189 264.316 523.113 263.195 C 525.045 262.091 526.727 260.873 528.129 259.611 C 530.963 257.097 532.496 254.332 533.049 252.305 C 533.586 250.258 533.407 249.054 533.487 249.059 Z " fill="rgb(246,246,245)"/><path d=" M 472.759 273.036 C 472.75 273.039 472.721 272.975 472.671 272.843 C 472.628 272.709 472.536 272.517 472.478 272.247 C 472.356 271.713 472.279 270.869 472.578 269.85 C 473.134 267.814 475.346 265.281 478.91 264.011 C 480.684 263.402 482.696 263.034 484.792 262.486 C 486.864 261.927 489.122 261.145 490.809 259.412 C 491.646 258.557 492.354 257.539 492.942 256.42 C 493.517 255.291 493.99 254.079 494.437 252.828 C 495.333 250.334 496.085 247.623 497.607 245.16 C 499.118 242.677 501.581 240.952 504.13 240.088 C 506.673 239.154 509.236 238.74 511.615 238.191 C 514.001 237.672 516.231 237 518.124 235.975 C 519.989 234.915 521.476 233.504 522.528 232.008 C 524.686 229.008 525.25 225.936 525.327 223.907 C 525.374 221.844 525.046 220.721 525.114 220.711 C 525.114 220.711 525.514 221.815 525.529 223.911 C 525.514 225.971 525 229.118 522.828 232.221 C 521.768 233.768 520.256 235.239 518.334 236.352 C 516.394 237.426 514.117 238.124 511.722 238.659 C 509.331 239.223 506.782 239.648 504.308 240.566 C 501.818 241.423 499.505 243.056 498.048 245.436 C 496.579 247.809 495.824 250.489 494.917 252.999 C 494.464 254.259 493.979 255.492 493.384 256.65 C 492.774 257.801 492.03 258.861 491.147 259.753 C 489.356 261.57 486.997 262.357 484.901 262.903 C 482.775 263.44 480.775 263.784 479.026 264.361 C 475.559 265.544 473.358 267.972 472.772 269.91 C 472.455 270.882 472.494 271.698 472.58 272.227 C 472.692 272.753 472.782 273.029 472.759 273.036 Z " fill="rgb(246,246,245)"/><path d=" M 529.782 327.019 C 529.8 327.017 529.823 327.232 529.852 327.646 C 529.875 328.059 529.843 328.678 529.667 329.451 C 529.315 330.992 528.125 333.1 525.888 334.854 C 524.786 335.742 523.453 336.557 521.922 337.208 C 520.396 337.863 518.707 338.381 516.943 338.93 C 515.182 339.48 513.333 340.056 511.535 340.905 C 509.725 341.734 508.053 342.948 506.613 344.495 C 505.154 346.023 503.896 347.693 502.499 349.166 C 501.108 350.649 499.528 351.87 497.891 352.773 C 494.6 354.59 491.188 355.214 488.38 355.245 C 485.552 355.277 483.307 354.682 481.835 354.158 C 481.092 353.899 480.54 353.64 480.174 353.446 C 479.805 353.261 479.615 353.158 479.623 353.141 C 479.631 353.125 479.836 353.198 480.218 353.351 C 480.595 353.513 481.155 353.74 481.9 353.966 C 483.376 354.426 485.598 354.954 488.374 354.877 C 491.129 354.799 494.461 354.149 497.656 352.354 C 499.25 351.459 500.77 350.273 502.128 348.816 C 503.495 347.365 504.749 345.696 506.236 344.135 C 507.701 342.557 509.463 341.282 511.316 340.444 C 513.163 339.58 515.036 339.01 516.803 338.472 C 518.57 337.935 520.251 337.435 521.755 336.811 C 523.256 336.192 524.57 335.413 525.659 334.565 C 527.872 332.887 529.067 330.882 529.472 329.4 C 529.866 327.903 529.71 327.017 529.782 327.019 Z " fill="rgb(246,246,245)"/><path d=" M 524.871 194.464 L 516.541 194.661 C 515.994 197.467 514.657 199.387 514.657 199.387 C 507.691 187.295 502.29 171.095 500.949 164.584 C 501.145 163.933 501.376 163.214 501.665 162.409 C 501.998 161.481 501.712 159.724 501.555 158.748 C 501.321 157.299 500.916 155.348 500.794 154.445 C 500.423 151.694 499.98 151.262 499.02 151.573 C 497.715 151.996 499.555 159.3 498.485 159.458 C 497.91 159.543 497.207 157.041 497.004 154.988 C 496.8 152.935 495.871 146.62 495.192 146.199 C 494.198 145.582 493.331 146.558 493.582 148.602 C 493.836 150.672 494.157 156.842 493.072 156.926 C 492.003 157.008 491.106 146.538 491.106 146.538 C 491.106 146.538 491.275 144.26 490.019 144.314 C 487.753 144.413 489.524 155.451 489.717 156.496 C 489.853 157.224 488.676 157.357 488.572 156.568 C 488.466 155.755 487.919 146.097 485.612 146.175 C 483.841 146.235 486.983 155.271 485.989 157.366 C 484.995 159.46 484.305 150.252 482.614 150.379 C 481.985 150.426 481.52 150.549 482.676 155.76 C 483.298 158.561 485.123 163.711 486.719 167.974 C 489.398 182.425 501.155 228.651 519.589 220.189 C 529.903 215.454 534.089 194.469 534.089 194.469 L 524.871 194.464 Z " fill="rgb(194,137,121)"/><path d=" M 489.323 157.204 C 489.323 157.204 489.407 157.22 489.564 157.171 C 489.704 157.128 489.983 156.952 489.94 156.594 C 489.916 155.973 489.818 155.069 489.675 153.9 C 489.568 152.723 489.216 151.311 489.215 149.639 C 489.201 148.802 489.223 147.902 489.271 146.948 C 489.302 146.471 489.311 145.976 489.416 145.508 C 489.495 145.055 489.798 144.537 490.148 144.599 L 490.187 144.606 L 490.203 144.605 C 490.559 144.589 490.837 144.866 490.951 145.289 C 491.076 145.695 491.108 146.173 491.082 146.628 L 491.081 146.647 L 491.083 146.66 C 491.316 149.219 491.568 152.019 492.151 155.01 C 492.233 155.383 492.316 155.759 492.432 156.138 C 492.489 156.328 492.557 156.519 492.64 156.711 C 492.693 156.81 492.728 156.904 492.81 157.008 C 492.881 157.095 492.971 157.247 493.228 157.27 C 493.643 157.239 493.763 156.925 493.857 156.745 C 493.946 156.537 494.002 156.333 494.044 156.13 C 494.13 155.723 494.173 155.318 494.204 154.909 C 494.315 153.279 494.258 151.614 494.138 149.908 C 494.099 149.045 493.887 148.184 494.033 147.403 C 494.103 147.018 494.263 146.63 494.525 146.47 C 494.653 146.392 494.798 146.375 494.956 146.415 L 495.193 146.518 C 495.259 146.582 495.244 146.553 495.304 146.666 C 495.638 147.381 495.81 148.314 495.997 149.18 C 496.175 150.064 496.328 150.966 496.47 151.878 C 496.61 152.79 496.739 153.713 496.848 154.643 C 496.938 155.572 497.072 156.548 497.309 157.487 C 497.429 157.96 497.562 158.432 497.76 158.9 C 497.861 159.135 497.967 159.368 498.172 159.607 C 498.246 159.709 498.48 159.9 498.771 159.825 C 499.053 159.731 499.133 159.507 499.179 159.376 C 499.341 158.801 499.293 158.323 499.285 157.82 C 499.264 157.324 499.223 156.833 499.181 156.343 C 499.109 155.501 499.029 154.668 499 153.846 C 498.987 153.437 498.986 153.029 499.03 152.643 C 499.055 152.455 499.087 152.262 499.151 152.122 L 499.248 151.973 L 499.287 151.948 L 499.416 151.911 C 500.08 151.637 500.3 152.56 500.477 153.304 C 500.63 154.079 500.728 154.881 500.884 155.67 C 501.148 157.245 501.483 158.81 501.659 160.314 C 501.732 161.06 501.785 161.835 501.571 162.467 C 501.335 163.19 501.101 163.905 500.869 164.612 L 500.849 164.676 L 500.863 164.743 C 502.082 170.12 503.771 174.931 505.338 179.202 C 506.921 183.469 508.504 187.157 509.901 190.173 C 511.294 193.191 512.544 195.517 513.407 197.103 C 513.845 197.855 514.191 198.45 514.447 198.891 C 514.689 199.294 514.82 199.5 514.834 199.492 C 514.848 199.484 514.742 199.264 514.526 198.846 C 514.288 198.395 513.968 197.788 513.563 197.02 C 512.75 195.409 511.549 193.066 510.202 190.035 C 508.851 187.008 507.31 183.313 505.764 179.046 C 504.234 174.779 502.574 169.955 501.389 164.635 L 501.383 164.766 C 501.613 164.069 501.848 163.363 502.083 162.65 C 502.353 161.834 502.273 161.037 502.206 160.257 C 502.027 158.693 501.7 157.174 501.44 155.591 C 501.285 154.809 501.191 154.006 501.029 153.186 C 500.935 152.778 500.846 152.365 500.621 151.948 C 500.513 151.746 500.346 151.516 500.069 151.392 C 499.79 151.271 499.505 151.305 499.28 151.36 L 499.112 151.408 L 498.885 151.536 C 498.758 151.648 498.685 151.774 498.632 151.892 C 498.527 152.132 498.497 152.354 498.466 152.575 C 498.416 153.014 498.419 153.441 498.432 153.865 C 498.461 154.713 498.542 155.552 498.613 156.391 C 498.654 156.88 498.695 157.366 498.716 157.845 C 498.733 158.312 498.749 158.827 498.642 159.189 C 498.617 159.294 498.567 159.274 498.625 159.325 L 498.627 159.329 L 498.633 159.367 L 498.631 159.356 L 498.634 159.322 L 498.649 159.275 L 498.588 159.22 C 498.479 159.093 498.368 158.885 498.283 158.678 C 498.105 158.259 497.974 157.804 497.858 157.35 C 497.629 156.433 497.5 155.523 497.407 154.578 C 497.296 153.638 497.164 152.71 497.021 151.792 C 496.876 150.874 496.72 149.967 496.538 149.07 C 496.332 148.168 496.199 147.301 495.777 146.399 C 495.752 146.308 495.573 146.107 495.464 146.048 C 495.352 145.981 495.227 145.929 495.092 145.891 C 494.822 145.817 494.493 145.851 494.246 146.009 C 493.75 146.337 493.597 146.858 493.507 147.31 C 493.427 147.776 493.439 148.236 493.49 148.68 C 493.54 149.107 493.582 149.526 493.615 149.948 C 493.741 151.632 493.805 153.289 493.705 154.873 C 493.678 155.267 493.637 155.659 493.561 156.028 C 493.525 156.214 493.474 156.392 493.409 156.546 L 493.3 156.733 C 493.263 156.817 493.232 156.714 493.234 156.849 C 493.285 156.746 493.236 156.804 493.197 156.718 L 493.078 156.51 C 493.007 156.347 492.945 156.175 492.89 155.997 C 492.778 155.642 492.693 155.275 492.612 154.911 C 492.019 151.974 491.74 149.166 491.483 146.626 L 491.483 146.658 C 491.504 146.144 491.471 145.654 491.319 145.171 C 491.243 144.934 491.131 144.693 490.929 144.505 C 490.73 144.313 490.443 144.226 490.188 144.235 L 490.242 144.241 C 489.841 144.169 489.547 144.413 489.38 144.654 C 489.209 144.902 489.132 145.171 489.073 145.43 C 488.963 145.955 488.965 146.455 488.94 146.933 C 488.903 147.895 488.896 148.8 488.924 149.646 C 488.956 151.352 489.34 152.765 489.476 153.927 C 489.65 155.089 489.779 155.991 489.836 156.599 C 489.899 156.888 489.666 157.074 489.544 157.122 C 489.404 157.183 489.321 157.192 489.323 157.204 Z " fill="rgb(176,111,97)"/><path d=" M 424.198 208.232 C 424.198 208.232 421.431 208.1 418.405 208.896 C 413.241 210.255 404.326 215.658 403.957 222.332 L 410.432 222.332 C 410.432 222.332 406.806 230.051 407.871 229.336 C 410.636 227.481 416.14 221.889 416.14 221.889 L 424.198 208.232 Z " fill="rgb(194,137,121)"/><path d=" M 212.625 234.544 L 177.264 416.343 L 172.635 440.142 L 408.698 438.978 C 419.292 438.925 428.681 429.519 432.089 415.543 L 473.948 243.906 C 476.536 233.297 470.858 222.262 462.817 222.27 L 223.893 222.521 C 218.618 222.527 214.005 227.449 212.625 234.544 Z " fill="rgb(240,99,109)"/><path d=" M 411.715 438.708 C 413.414 438.299 414.86 437.845 416.092 437.372 C 414.678 437.995 413.214 438.445 411.715 438.708 Z " fill="rgb(133,55,63)"/><path d=" M 414.13 433.353 C 388.525 433.353 386.056 404.047 386.054 404.026 L 363.511 222.374 L 462.817 222.27 C 462.82 222.27 462.822 222.27 462.826 222.27 C 469.528 222.27 474.586 229.943 474.581 238.641 C 474.579 240.373 474.378 242.145 473.948 243.906 L 455.928 317.794 L 448.75 347.228 L 432.089 415.543 C 430.332 422.749 426.985 428.74 422.702 432.861 C 422.918 432.519 422.984 432.316 422.984 432.316 C 419.763 433.029 416.817 433.353 414.13 433.353 Z " fill="rgb(132,132,193)"/><path d=" M 386.054 404.026 L 361.06 202.618 C 360.036 194.366 353.462 188.21 345.7 188.235 L 290.894 188.414 C 286.837 188.428 282.948 190.152 280.067 193.215 L 254.043 220.879 L 101.616 221.675 C 92.302 221.723 85.146 230.537 86.38 240.44 L 109.586 426.592 C 110.613 434.833 117.175 440.981 124.926 440.966 L 390.572 440.441 C 420.159 441.054 422.984 432.316 422.984 432.316 C 389.076 439.83 386.057 404.049 386.054 404.026 Z " fill="rgb(71,71,135)"/><path d=" M 262.549 373.339 L 232.999 346.756 L 241.958 337.133 L 271.509 363.717 L 262.549 373.339 Z  M 223.097 337.848 L 193.547 311.265 L 202.506 301.642 L 232.056 328.225 L 223.097 337.848 Z " fill="rgb(232,232,232)"/><path d=" M 206.261 375.473 L 196.36 366.565 L 223.097 337.848 L 232.056 328.225 L 258.794 299.508 L 268.696 308.416 L 241.958 337.133 L 232.999 346.756 L 206.261 375.473 Z " fill="rgb(232,232,232)"/><path d=" M 423.986 103.784 C 423.348 103.511 422.889 102.889 422.856 102.148 L 422.457 92.865 C 422.431 92.281 422.681 91.719 423.131 91.346 C 423.581 90.974 424.181 90.834 424.749 90.969 C 426.241 91.321 427.887 90.996 429.264 90.077 C 430.532 89.231 431.383 87.985 431.599 86.658 C 431.815 85.336 431.405 83.872 430.477 82.642 C 429.481 81.326 428.011 80.438 426.536 80.269 C 423.525 79.923 420.274 82.23 419.437 85.307 C 419.167 86.302 418.142 86.889 417.148 86.619 C 416.137 86.341 415.566 85.323 415.836 84.329 C 417.15 79.491 422.142 76.007 426.964 76.562 C 429.464 76.85 431.833 78.246 433.453 80.392 C 434.995 82.432 435.661 84.934 435.282 87.259 C 434.9 89.604 433.462 91.762 431.336 93.181 C 429.8 94.206 428.037 94.771 426.275 94.833 L 426.585 101.989 C 426.629 103.018 425.83 103.889 424.801 103.932 C 424.512 103.945 424.235 103.891 423.986 103.784 Z " fill="rgb(240,99,109)"/><path d=" M 426.722 107.577 C 426.779 108.418 426.145 109.147 425.304 109.205 C 424.463 109.263 423.733 108.628 423.676 107.786 C 423.618 106.946 424.253 106.217 425.094 106.159 C 425.936 106.101 426.664 106.736 426.722 107.577 Z " fill="rgb(240,99,109)"/><path d=" M 259.71 278.897 C 259.419 278.923 258.23 268.016 257.056 254.538 C 255.879 241.057 255.161 230.11 255.45 230.084 C 255.741 230.058 256.928 240.963 258.105 254.446 C 259.281 267.923 259.999 278.872 259.71 278.897 Z " fill="rgb(255,255,255)"/><path d=" M 317.14 230.75 C 317.376 230.92 308.532 243.856 297.386 259.64 C 286.241 275.429 277.012 288.087 276.775 287.918 C 276.538 287.748 285.381 274.815 296.529 259.025 C 307.674 243.241 316.903 230.58 317.14 230.75 Z " fill="rgb(255,255,255)"/><path d=" M 341 289.378 C 341.06 289.666 330.738 292.046 317.951 294.695 C 305.157 297.344 294.744 299.259 294.683 298.971 C 294.626 298.684 304.947 296.305 317.738 293.655 C 330.527 291.007 340.943 289.092 341 289.378 Z " fill="rgb(255,255,255)"/><path d=" M 391.853 90.694 C 391.865 90.694 391.896 90.488 391.943 90.085 C 391.99 89.65 392.056 89.058 392.139 88.297 C 392.184 87.506 392.386 86.551 392.623 85.423 C 392.754 84.863 392.823 84.24 393.028 83.61 C 393.223 82.976 393.43 82.303 393.649 81.591 C 394.616 78.782 396.108 75.414 398.621 72.064 C 401.115 68.721 404.622 65.419 409.124 62.916 C 411.34 61.594 413.876 60.673 416.533 59.86 C 419.233 59.22 422.094 58.673 425.083 58.743 C 426.578 58.663 428.085 58.883 429.62 59.012 C 430.388 59.085 431.143 59.29 431.913 59.424 C 432.684 59.567 433.459 59.717 434.214 59.979 C 437.301 60.771 440.3 62.227 443.158 64.032 C 448.895 67.642 453.726 73.514 456.376 80.632 C 457.705 84.193 458.341 88.097 458.336 92.04 C 458.415 95.991 457.65 100.005 456.244 103.782 L 455.793 104.924 L 455.733 105.075 L 455.795 105.216 C 458.303 110.993 460.763 116.659 463.147 122.148 L 463.566 121.671 C 458.402 119.686 453.395 117.763 448.591 115.917 L 448.405 115.846 L 448.26 115.987 C 444.105 120.012 439.143 122.734 434.118 124.151 C 429.078 125.572 424.002 125.645 419.385 124.825 C 414.758 124.005 410.592 122.235 407.118 119.96 C 403.634 117.685 400.84 114.919 398.686 112.109 C 396.548 109.266 395.139 106.352 394.076 103.75 C 393.14 101.09 392.566 98.729 392.288 96.775 C 392.17 95.799 392.065 94.931 391.974 94.174 C 391.954 93.426 391.938 92.79 391.924 92.263 C 391.907 91.772 391.895 91.385 391.885 91.092 C 391.873 90.828 391.862 90.694 391.853 90.694 C 391.844 90.694 391.836 90.827 391.829 91.091 C 391.825 91.384 391.819 91.771 391.814 92.264 C 391.813 92.794 391.811 93.434 391.81 94.186 C 391.887 94.949 391.975 95.824 392.074 96.809 C 392.321 98.782 392.867 101.171 393.783 103.871 C 394.828 106.512 396.227 109.475 398.368 112.371 C 400.526 115.236 403.34 118.06 406.861 120.39 C 410.372 122.72 414.593 124.541 419.29 125.395 C 423.977 126.249 429.137 126.195 434.271 124.766 C 439.389 123.34 444.452 120.581 448.697 116.485 L 448.366 116.555 C 453.168 118.408 458.172 120.339 463.334 122.332 L 464.089 122.623 L 463.755 121.854 C 461.375 116.362 458.918 110.696 456.413 104.917 L 456.415 105.208 L 456.876 104.042 C 458.314 100.18 459.093 96.076 459.012 92.038 C 459.015 88.008 458.358 84.017 456.997 80.38 C 454.282 73.109 449.34 67.135 443.487 63.472 C 440.572 61.64 437.514 60.17 434.37 59.372 C 433.601 59.11 432.813 58.959 432.028 58.816 C 431.243 58.682 430.475 58.477 429.695 58.406 C 428.134 58.28 426.601 58.065 425.083 58.152 C 422.045 58.094 419.139 58.661 416.403 59.327 C 413.707 60.166 411.14 61.117 408.899 62.471 C 404.347 65.038 400.817 68.413 398.322 71.82 C 395.809 75.233 394.336 78.656 393.399 81.501 C 393.189 82.222 392.989 82.905 392.803 83.547 C 392.607 84.184 392.547 84.814 392.425 85.38 C 392.208 86.52 392.026 87.484 392.003 88.281 C 391.948 89.046 391.905 89.643 391.874 90.081 C 391.849 90.486 391.841 90.693 391.853 90.694 Z " fill="rgb(44,61,67)"/></svg>