<?xml version="1.0" encoding="UTF-8" standalone="no"?><!-- Generator: Gravit.io --><svg xmlns="http://www.w3.org/2000/svg" xmlns:xlink="http://www.w3.org/1999/xlink" style="isolation:isolate" viewBox="0 0 500 500" width="500pt" height="500pt"><path d=" M 0 0 L 0 500 L 500 500 L 500 0 L 0 0 Z " fill="none"/><path d=" M 439.762 321.299 L 417.596 321.299 L 417.596 242.786 L 417.596 156.732 C 437.132 187.464 448.448 223.936 448.448 263.049 C 448.448 283.318 445.409 302.88 439.762 321.299 Z  M 82.383 296.152 L 54.301 296.152 C 52.494 285.388 51.552 274.327 51.552 263.049 C 51.552 223.949 62.86 187.491 82.383 156.766 L 82.383 296.152 Z  M 404.812 138.88 C 404.574 138.868 404.336 138.862 404.096 138.862 L 325.356 138.862 C 325.437 138.687 325.501 138.503 325.545 138.313 C 326.656 138.501 327.798 138.667 328.974 138.808 L 328.978 138.8 L 328.978 138.797 C 332.688 134.658 336.815 124.95 339.563 116.885 C 340.592 113.872 340.651 112.11 339.768 110.247 C 338.902 108.421 337.373 106.985 335.525 106.169 C 335.386 106.108 335.248 106.066 335.113 106.066 C 334.841 106.066 334.578 106.235 334.327 106.755 C 333.478 108.517 332.632 110.594 331.668 112.622 C 328.741 118.773 326.439 124.456 325.026 128.134 L 325.024 128.134 C 324.96 128.106 323.644 127.551 321.424 126.882 L 313.37 107.145 C 312.943 106.096 311.921 105.413 310.792 105.413 L 292.798 105.413 C 291.197 105.413 290.008 106.723 290.006 108.193 C 290.006 108.541 290.072 108.898 290.215 109.249 L 295.472 122.128 L 294.959 123.039 C 294.959 123.039 295.467 123.661 296.507 124.662 L 302.254 138.743 C 302.27 138.783 302.288 138.823 302.306 138.862 L 95.883 138.862 C 95.65 138.862 95.419 138.868 95.19 138.879 C 105.22 126.389 116.734 115.137 129.459 105.393 L 131.378 116.613 L 134.889 116.613 L 135.067 124.189 L 166.682 124.189 L 166.942 116.613 L 170.248 116.613 L 173.797 95.628 C 174.108 93.81 172.708 92.151 170.865 92.151 L 167.783 92.151 L 168.125 82.225 C 193.086 70.905 220.807 64.601 250 64.601 C 312.606 64.601 368.44 93.591 404.812 138.88 Z " fill="rgb(227,225,225)"/><path d=" M 250 461.497 C 211.335 461.497 175.252 450.439 144.743 431.313 L 202.829 431.313 C 206.1 431.313 207.831 427.443 205.65 425.005 L 202.073 421.006 C 202.402 421.02 202.734 421.027 203.069 421.027 C 214.822 421.027 230.479 412.529 230.479 412.529 C 242.759 424.32 262.752 436.282 262.752 436.282 C 265.765 434.871 267.559 432.968 267.249 430.215 C 267.249 430.215 255.647 418.235 244.842 409.947 L 248.806 409.563 L 259.458 385.089 L 216.74 389.221 L 209.571 405.692 C 202.399 408.01 196.651 410.568 196.651 410.568 C 195.868 411.404 195.502 412.455 195.408 413.554 L 179.647 395.933 L 102.609 395.933 C 102.273 395.56 101.93 395.177 101.597 394.802 L 186.479 394.802 C 187.788 394.802 188.869 393.78 188.966 392.496 C 188.97 392.452 188.973 392.407 188.975 392.361 L 188.975 392.361 C 188.972 392.344 188.973 392.327 188.973 392.31 C 188.973 390.937 187.851 389.815 186.479 389.815 C 187.851 389.815 188.973 388.693 188.973 387.323 C 188.973 385.951 187.851 384.831 186.479 384.831 L 178.988 384.831 L 172.496 381.367 C 196.712 381.978 222.986 382.313 250.44 382.313 C 314.431 382.313 372.019 380.495 412.07 377.598 C 376.126 428.363 316.934 461.497 250 461.497 Z  M 433.193 339.485 L 416.053 339.485 C 417.038 337.611 417.596 335.477 417.596 333.213 L 417.596 321.299 L 439.762 321.299 C 437.861 327.499 435.668 333.56 433.193 339.485 Z  M 82.383 324.597 L 79.025 324.597 C 79.141 324.593 79.259 324.592 79.376 324.592 L 82.383 324.592 L 82.383 324.597 Z " fill="rgb(208,207,206)"/><path d=" M 244.944 482.27 C 244.936 482.27 244.928 482.27 244.92 482.269 L 244.857 482.268 C 242.689 482.224 240.938 480.432 240.951 478.263 C 240.965 476.07 242.758 474.293 244.949 474.293 C 244.958 474.293 244.966 474.293 244.975 474.293 C 247.176 474.306 248.941 476.098 248.927 478.3 C 248.93 480.493 247.135 482.27 244.944 482.27 Z  M 262.425 481.656 C 262.413 481.656 262.4 481.656 262.388 481.655 C 260.347 481.613 258.656 480.031 258.491 477.97 C 258.329 475.765 259.964 473.853 262.169 473.689 C 262.269 473.682 262.369 473.678 262.468 473.678 C 264.531 473.678 266.294 475.263 266.449 477.367 C 266.611 479.557 264.959 481.471 262.771 481.647 C 262.762 481.647 262.752 481.647 262.742 481.647 C 262.69 481.647 262.638 481.649 262.585 481.651 C 262.532 481.654 262.478 481.656 262.425 481.656 Z  M 227.438 481.476 C 227.41 481.476 227.383 481.476 227.355 481.476 C 227.26 481.474 227.181 481.456 227.085 481.454 C 224.887 481.266 223.268 479.333 223.456 477.136 C 223.635 475.054 225.377 473.492 227.427 473.492 C 227.542 473.492 227.658 473.497 227.775 473.507 C 229.973 473.697 231.592 475.629 231.403 477.826 C 231.219 479.901 229.476 481.476 227.438 481.476 Z  M 279.902 479.607 C 279.869 479.607 279.836 479.606 279.804 479.605 C 277.907 479.566 276.259 478.192 275.948 476.256 C 275.594 474.078 277.088 472.035 279.249 471.681 C 279.458 471.648 279.665 471.633 279.87 471.633 C 281.802 471.633 283.504 473.03 283.823 474.997 C 284.162 477.175 282.684 479.218 280.507 479.572 L 280.508 479.557 C 280.302 479.593 280.096 479.607 279.902 479.607 Z  M 210.044 479.252 C 210.017 479.252 209.991 479.252 209.964 479.251 C 209.756 479.246 209.565 479.242 209.374 479.207 C 207.196 478.843 205.739 476.771 206.103 474.609 C 206.429 472.655 208.13 471.281 210.037 471.281 C 210.256 471.281 210.478 471.299 210.701 471.337 C 212.879 471.701 214.337 473.757 213.972 475.935 C 213.633 477.88 211.956 479.252 210.044 479.252 Z  M 297.098 476.148 C 297.063 476.148 297.029 476.148 296.995 476.147 C 295.224 476.111 293.639 474.897 293.196 473.117 C 292.682 470.969 293.986 468.81 296.119 468.296 L 296.135 468.296 C 296.454 468.217 296.773 468.179 297.088 468.179 C 298.876 468.179 300.503 469.405 300.94 471.219 C 301.471 473.352 300.166 475.511 298.018 476.041 C 297.715 476.12 297.401 476.148 297.098 476.148 Z  M 192.888 475.628 C 192.861 475.628 192.834 475.628 192.807 475.627 C 192.504 475.62 192.202 475.583 191.901 475.496 C 189.758 474.957 188.479 472.794 189.017 470.649 C 189.471 468.857 191.093 467.655 192.866 467.655 C 193.195 467.655 193.529 467.696 193.863 467.783 C 196.006 468.321 197.285 470.485 196.746 472.629 C 196.285 474.426 194.66 475.628 192.888 475.628 Z  M 313.904 471.294 C 313.879 471.294 313.854 471.293 313.829 471.293 C 312.204 471.259 310.679 470.207 310.137 468.569 C 309.431 466.479 310.561 464.222 312.65 463.516 C 313.069 463.377 313.494 463.311 313.913 463.311 C 315.581 463.311 317.139 464.361 317.704 466.044 C 318.395 468.132 317.264 470.374 315.191 471.082 C 314.766 471.223 314.328 471.294 313.904 471.294 Z  M 176.082 470.606 C 176.055 470.606 176.027 470.606 176 470.605 C 175.601 470.598 175.188 470.525 174.776 470.39 L 174.791 470.39 C 172.701 469.66 171.599 467.389 172.312 465.311 C 172.878 463.652 174.427 462.615 176.088 462.615 C 176.519 462.615 176.958 462.685 177.389 462.832 C 179.463 463.561 180.582 465.835 179.852 467.909 C 179.285 469.561 177.742 470.606 176.082 470.606 Z  M 330.305 465.058 C 330.275 465.058 330.245 465.057 330.216 465.057 C 328.701 465.025 327.268 464.119 326.628 462.638 C 325.762 460.61 326.703 458.268 328.73 457.401 C 329.239 457.182 329.769 457.078 330.292 457.078 C 331.839 457.078 333.32 457.988 333.969 459.504 C 334.836 461.516 333.895 463.874 331.866 464.74 C 331.363 464.958 330.834 465.058 330.305 465.058 Z  M 159.749 464.19 C 159.721 464.19 159.694 464.19 159.667 464.189 C 159.157 464.18 158.632 464.073 158.142 463.855 C 156.119 462.969 155.209 460.62 156.097 458.596 C 156.753 457.111 158.209 456.227 159.742 456.227 C 160.281 456.227 160.829 456.336 161.356 456.567 C 163.364 457.438 164.289 459.803 163.401 461.81 C 162.744 463.301 161.282 464.19 159.749 464.19 Z  M 346.119 457.504 C 346.093 457.504 346.066 457.503 346.04 457.503 C 344.637 457.474 343.295 456.696 342.589 455.373 C 341.56 453.438 342.296 451.011 344.247 449.982 C 344.844 449.668 345.484 449.518 346.114 449.518 C 347.544 449.518 348.924 450.288 349.638 451.643 C 350.667 453.594 349.914 456.003 347.98 457.031 C 347.375 457.357 346.745 457.504 346.119 457.504 Z  M 143.984 456.479 C 143.957 456.479 143.931 456.479 143.904 456.478 C 143.282 456.466 142.663 456.31 142.095 455.994 C 140.154 454.949 139.438 452.525 140.483 450.585 C 141.203 449.249 142.576 448.493 143.994 448.493 C 144.637 448.493 145.288 448.648 145.893 448.974 C 147.833 450.034 148.55 452.458 147.489 454.383 C 146.773 455.714 145.406 456.479 143.984 456.479 Z  M 361.251 448.673 C 361.224 448.673 361.198 448.672 361.171 448.672 C 359.894 448.646 358.647 447.998 357.891 446.834 C 356.715 444.975 357.245 442.513 359.103 441.322 C 359.77 440.896 360.514 440.692 361.249 440.692 C 362.565 440.692 363.851 441.344 364.614 442.537 C 365.806 444.38 365.259 446.858 363.401 448.032 C 362.745 448.466 361.99 448.673 361.251 448.673 Z  M 128.92 447.474 C 128.892 447.474 128.865 447.473 128.837 447.473 C 128.12 447.457 127.39 447.253 126.745 446.823 C 124.903 445.621 124.379 443.153 125.582 441.312 C 126.347 440.14 127.63 439.502 128.936 439.502 C 129.684 439.502 130.439 439.711 131.11 440.149 C 132.951 441.367 133.459 443.835 132.256 445.676 C 131.499 446.849 130.216 447.474 128.92 447.474 Z  M 375.626 438.632 C 375.599 438.632 375.572 438.631 375.545 438.631 C 374.381 438.606 373.228 438.057 372.467 437.051 C 371.13 435.301 371.47 432.802 373.219 431.467 C 373.94 430.916 374.789 430.65 375.631 430.65 C 376.831 430.65 378.019 431.191 378.805 432.22 C 380.139 433.987 379.801 436.484 378.05 437.82 C 377.328 438.363 376.476 438.632 375.626 438.632 Z  M 114.644 437.288 C 114.616 437.288 114.589 437.288 114.561 437.287 C 113.731 437.27 112.908 436.998 112.201 436.457 C 110.606 435.212 110.206 433.003 111.192 431.313 L 118.096 431.313 C 118.883 432.674 118.818 434.437 117.799 435.759 C 117.014 436.755 115.828 437.288 114.644 437.288 Z  M 389.147 427.456 C 389.12 427.456 389.093 427.456 389.065 427.455 C 387.996 427.433 386.953 426.979 386.188 426.135 C 384.706 424.492 384.838 421.974 386.481 420.493 C 387.244 419.812 388.196 419.475 389.145 419.475 C 390.239 419.475 391.329 419.921 392.121 420.801 C 393.588 422.442 393.456 424.96 391.815 426.426 C 391.056 427.123 390.093 427.456 389.147 427.456 Z  M 401.704 415.205 C 401.676 415.205 401.647 415.205 401.619 415.204 C 400.661 415.185 399.712 414.83 398.96 414.129 C 397.364 412.612 397.304 410.091 398.805 408.478 C 399.59 407.653 400.644 407.238 401.702 407.238 C 402.688 407.238 403.678 407.599 404.456 408.323 C 406.053 409.84 406.111 412.361 404.61 413.974 C 403.817 414.797 402.76 415.205 401.704 415.205 Z  M 413.235 401.994 C 413.208 401.994 413.181 401.994 413.154 401.993 C 412.309 401.976 411.453 401.687 410.73 401.114 C 409.021 399.737 408.737 397.228 410.13 395.501 L 410.13 395.518 C 410.915 394.531 412.07 394.021 413.236 394.021 C 414.111 394.021 414.992 394.309 415.727 394.899 C 417.452 396.274 417.72 398.784 416.345 400.496 C 415.56 401.477 414.404 401.994 413.235 401.994 Z  M 81.399 395.933 L 73.454 395.933 C 73.483 395.587 73.557 395.245 73.675 394.917 C 74.233 394.841 74.802 394.802 75.381 394.802 L 81.132 394.802 C 81.278 395.168 81.366 395.549 81.399 395.933 Z  M 423.642 387.882 C 423.614 387.882 423.587 387.881 423.56 387.881 C 422.826 387.866 422.066 387.642 421.405 387.198 C 419.595 385.964 419.104 383.481 420.339 381.656 C 421.109 380.516 422.365 379.903 423.645 379.903 C 424.416 379.903 425.194 380.125 425.881 380.589 C 427.706 381.823 428.182 384.29 426.947 386.116 C 426.174 387.256 424.922 387.882 423.642 387.882 Z  M 440.831 357.316 C 440.804 357.316 440.777 357.316 440.75 357.315 C 440.24 357.304 439.717 357.205 439.226 356.97 C 439.468 356.666 439.702 356.356 439.93 356.041 L 439.93 356.041 L 439.93 356.041 C 441.249 354.219 442.34 352.221 443.161 350.089 C 444.692 351.178 445.28 353.227 444.469 354.998 C 443.795 356.458 442.35 357.316 440.831 357.316 Z  M 447.501 341.085 C 447.474 341.085 447.447 341.085 447.42 341.084 C 446.988 341.075 446.56 341.002 446.147 340.851 C 445.68 340.679 445.264 340.43 444.908 340.124 L 444.908 339.485 L 444.312 339.485 C 443.533 338.444 443.277 337.047 443.749 335.743 C 444.346 334.117 445.882 333.107 447.511 333.107 C 447.958 333.107 448.412 333.183 448.855 333.344 C 450.929 334.105 451.999 336.392 451.254 338.45 C 450.656 340.07 449.129 341.085 447.501 341.085 Z " fill="rgb(208,207,206)"/><path d=" M 460.679 321.299 L 452.912 321.299 C 452.765 320.674 452.769 320.003 452.953 319.338 C 453.429 317.564 455.035 316.392 456.789 316.392 C 457.138 316.392 457.492 316.438 457.845 316.535 C 459.928 317.095 461.167 319.213 460.679 321.299 Z " fill="rgb(227,225,225)"/><path d=" M 456.793 324.362 C 456.765 324.362 456.738 324.362 456.71 324.361 C 456.391 324.355 456.072 324.316 455.739 324.229 C 454.279 323.826 453.233 322.672 452.912 321.299 L 460.679 321.299 C 460.669 321.341 460.658 321.384 460.647 321.427 C 460.154 323.207 458.547 324.362 456.793 324.362 Z " fill="rgb(208,207,206)"/><path d=" M 42.024 321.299 L 40.038 321.299 C 39.466 320.792 39.034 320.116 38.828 319.321 C 38.58 318.379 38.689 317.429 39.073 316.613 C 39.704 317.905 40.729 319.505 42.024 321.299 Z " fill="rgb(227,225,225)"/><path d=" M 42.682 322.303 C 42.653 322.303 42.625 322.302 42.596 322.302 C 41.64 322.282 40.735 321.917 40.038 321.299 L 42.024 321.299 C 42.261 321.627 42.507 321.961 42.761 322.302 C 42.735 322.302 42.709 322.303 42.682 322.303 Z " fill="rgb(208,207,206)"/><path d=" M 460.704 307.276 C 460.676 307.276 460.649 307.276 460.621 307.275 C 460.396 307.271 460.189 307.25 459.968 307.198 C 457.806 306.803 456.365 304.73 456.776 302.554 C 457.128 300.635 458.798 299.296 460.692 299.296 C 460.932 299.296 461.176 299.318 461.421 299.362 C 463.583 299.758 465.008 301.845 464.612 304.007 C 464.258 305.934 462.582 307.276 460.704 307.276 Z  M 38.784 305.167 C 36.952 305.093 35.346 303.746 35.023 301.868 C 34.638 299.69 36.085 297.631 38.262 297.245 C 38.492 297.206 38.72 297.187 38.945 297.187 C 40.744 297.187 42.342 298.396 42.798 300.165 C 41.159 301.42 39.7 303.052 38.784 305.167 Z  M 463.182 289.921 C 463.154 289.921 463.126 289.921 463.099 289.92 C 462.988 289.918 462.876 289.899 462.765 289.896 C 460.585 289.677 458.981 287.714 459.201 285.517 C 459.408 283.47 461.15 281.933 463.178 281.933 C 463.312 281.933 463.447 281.939 463.583 281.953 C 465.764 282.189 467.367 284.137 467.145 286.334 C 466.932 288.376 465.204 289.921 463.182 289.921 Z  M 36.745 287.783 C 36.682 287.783 36.62 287.782 36.559 287.78 C 34.549 287.738 32.857 286.204 32.66 284.157 C 32.466 281.969 34.086 280.023 36.275 279.829 C 36.404 279.817 36.531 279.811 36.658 279.811 C 38.688 279.811 40.423 281.367 40.605 283.429 C 40.815 285.618 39.196 287.564 37.005 287.773 C 36.914 287.781 36.829 287.783 36.745 287.783 Z  M 464.245 272.409 C 464.217 272.409 464.19 272.409 464.162 272.408 C 461.962 272.362 460.213 270.54 460.258 268.339 C 460.302 266.167 462.079 264.434 464.243 264.434 C 464.271 264.434 464.299 264.434 464.327 264.435 C 466.527 264.479 468.277 266.303 468.231 268.503 C 468.187 270.677 466.409 272.409 464.245 272.409 Z  M 35.787 270.278 L 35.675 270.276 C 33.522 270.231 31.787 268.489 31.768 266.318 C 31.749 264.117 33.51 262.318 35.711 262.3 C 35.723 262.3 35.735 262.3 35.746 262.3 C 37.933 262.3 39.713 264.053 39.747 266.244 C 39.765 268.445 37.989 270.244 35.787 270.278 Z  M 464.023 259.052 C 461.934 259.009 460.213 257.346 460.129 255.223 L 460.113 255.222 C 460.031 253.019 461.744 251.171 463.948 251.073 C 464 251.071 464.051 251.07 464.102 251.07 C 466.237 251.07 468.002 252.74 468.098 254.893 C 468.18 257.095 466.465 258.958 464.262 259.041 L 464.023 259.052 Z  M 36.294 252.738 C 36.267 252.738 36.24 252.738 36.212 252.737 L 36.004 252.733 C 33.806 252.576 32.154 250.675 32.295 248.477 L 32.312 248.477 C 32.446 246.375 34.204 244.773 36.279 244.773 C 36.374 244.773 36.471 244.776 36.567 244.783 C 38.75 244.94 40.417 246.841 40.261 249.04 C 40.108 251.131 38.363 252.738 36.294 252.738 Z  M 462.681 241.569 C 462.653 241.569 462.625 241.569 462.597 241.568 C 460.635 241.528 458.974 240.074 458.729 238.075 C 458.454 235.883 460.012 233.889 462.185 233.631 C 462.354 233.61 462.521 233.6 462.686 233.6 C 464.673 233.6 466.393 235.082 466.645 237.105 C 466.903 239.28 465.347 241.274 463.172 241.549 C 463.008 241.559 462.844 241.569 462.681 241.569 Z  M 38.232 235.325 C 38.205 235.325 38.178 235.324 38.15 235.324 C 37.975 235.32 37.799 235.3 37.625 235.281 C 35.446 234.933 33.94 232.908 34.289 230.729 C 34.59 228.755 36.28 227.346 38.216 227.346 C 38.416 227.346 38.619 227.361 38.824 227.393 C 41.003 227.724 42.493 229.749 42.162 231.928 C 41.869 233.905 40.16 235.325 38.232 235.325 Z  M 459.825 224.28 C 459.799 224.28 459.773 224.28 459.747 224.279 C 457.928 224.242 456.313 222.948 455.919 221.089 C 455.47 218.942 456.868 216.833 459.016 216.383 C 459.291 216.325 459.566 216.298 459.837 216.298 C 461.689 216.298 463.345 217.592 463.737 219.479 C 464.172 221.626 462.788 223.735 460.642 224.186 C 460.365 224.253 460.088 224.28 459.825 224.28 Z  M 41.586 218.115 C 41.559 218.115 41.532 218.115 41.504 218.114 C 41.218 218.108 40.947 218.071 40.662 218.001 C 38.518 217.494 37.19 215.345 37.697 213.202 C 38.145 211.367 39.785 210.129 41.592 210.129 C 41.896 210.129 42.204 210.164 42.513 210.237 C 44.656 210.761 45.967 212.91 45.46 215.052 C 45.029 216.883 43.388 218.115 41.586 218.115 Z  M 455.551 207.264 C 455.524 207.264 455.497 207.264 455.47 207.264 C 453.78 207.229 452.239 206.112 451.732 204.41 C 451.105 202.291 452.315 200.083 454.435 199.457 C 454.811 199.344 455.191 199.291 455.565 199.291 C 457.282 199.291 458.874 200.416 459.388 202.143 C 460.015 204.262 458.805 206.471 456.686 207.097 C 456.31 207.208 455.937 207.264 455.551 207.264 Z  M 46.353 201.238 C 46.326 201.238 46.299 201.237 46.272 201.237 C 45.89 201.229 45.492 201.157 45.111 201.038 C 43.02 200.356 41.869 198.1 42.551 196.007 C 43.11 194.33 44.671 193.259 46.346 193.259 C 46.76 193.259 47.182 193.325 47.597 193.463 C 49.689 194.145 50.823 196.385 50.142 198.493 C 49.589 200.162 48.029 201.238 46.353 201.238 Z  M 449.909 190.667 C 449.882 190.667 449.856 190.667 449.829 190.666 C 448.25 190.634 446.786 189.678 446.18 188.119 C 445.394 186.06 446.415 183.751 448.473 182.964 C 448.946 182.778 449.434 182.69 449.914 182.69 C 451.505 182.69 453.01 183.659 453.626 185.24 C 454.414 187.299 453.393 189.607 451.351 190.394 C 450.878 190.581 450.38 190.667 449.909 190.667 Z  M 52.485 184.788 C 52.457 184.788 52.43 184.788 52.402 184.788 C 51.924 184.777 51.431 184.687 50.941 184.485 C 48.917 183.63 47.96 181.281 48.815 179.256 C 49.458 177.736 50.944 176.817 52.502 176.817 C 53.017 176.817 53.541 176.918 54.044 177.13 C 56.069 177.986 57.025 180.319 56.169 182.359 C 55.528 183.883 54.049 184.788 52.485 184.788 Z  M 442.916 174.601 C 442.89 174.601 442.864 174.601 442.838 174.6 C 441.387 174.57 440 173.744 439.326 172.341 L 439.325 172.358 C 438.361 170.375 439.192 167.983 441.176 167.02 C 441.737 166.747 442.329 166.617 442.912 166.617 C 444.389 166.617 445.806 167.446 446.497 168.868 C 447.462 170.85 446.632 173.243 444.649 174.19 C 444.093 174.469 443.497 174.601 442.916 174.601 Z  M 59.959 168.924 C 59.932 168.924 59.905 168.924 59.878 168.923 C 59.287 168.911 58.684 168.755 58.131 168.472 C 56.174 167.442 55.41 165.034 56.439 163.092 C 57.147 161.727 58.533 160.942 59.971 160.942 C 60.594 160.942 61.227 161.089 61.818 161.401 C 63.776 162.414 64.524 164.823 63.511 166.78 C 62.793 168.143 61.397 168.924 59.959 168.924 Z  M 434.623 159.145 C 434.595 159.145 434.568 159.145 434.54 159.144 C 433.201 159.117 431.907 158.42 431.183 157.192 C 430.058 155.303 430.699 152.843 432.589 151.733 C 433.225 151.354 433.926 151.174 434.618 151.174 C 435.981 151.174 437.311 151.875 438.047 153.138 C 439.173 155.028 438.548 157.472 436.643 158.598 C 436.006 158.968 435.314 159.145 434.623 159.145 Z  M 68.728 153.708 C 68.701 153.708 68.674 153.708 68.647 153.707 C 67.945 153.693 67.23 153.503 66.601 153.091 C 64.727 151.92 64.171 149.468 65.358 147.594 C 66.114 146.394 67.41 145.737 68.734 145.737 C 69.462 145.737 70.197 145.936 70.857 146.351 C 72.714 147.538 73.271 149.991 72.099 151.865 C 71.34 153.052 70.04 153.708 68.728 153.708 Z  M 425.096 144.43 C 425.069 144.43 425.042 144.43 425.016 144.43 C 423.788 144.404 422.589 143.821 421.828 142.753 C 420.557 140.956 420.991 138.459 422.789 137.189 C 423.486 136.696 424.285 136.459 425.078 136.459 C 426.33 136.459 427.565 137.048 428.353 138.148 C 429.623 139.947 429.19 142.442 427.393 143.697 C 426.688 144.192 425.884 144.43 425.096 144.43 Z  M 78.692 139.284 C 78.665 139.284 78.639 139.284 78.612 139.283 C 77.798 139.266 76.991 138.995 76.3 138.47 C 74.54 137.157 74.176 134.644 75.504 132.901 C 76.29 131.852 77.485 131.301 78.693 131.301 C 79.528 131.301 80.37 131.564 81.089 132.107 C 82.849 133.436 83.196 135.932 81.883 137.691 C 81.098 138.737 79.894 139.284 78.692 139.284 Z  M 414.393 130.538 C 414.366 130.538 414.338 130.537 414.311 130.537 C 413.193 130.514 412.104 130.028 411.341 129.103 C 409.924 127.415 410.15 124.914 411.84 123.497 C 412.586 122.872 413.493 122.566 414.395 122.566 C 415.534 122.566 416.663 123.053 417.444 123.996 C 418.861 125.685 418.634 128.201 416.945 129.618 C 416.205 130.237 415.292 130.538 414.393 130.538 Z  M 89.806 125.713 C 89.779 125.713 89.752 125.712 89.725 125.712 C 88.8 125.693 87.898 125.355 87.145 124.701 C 85.516 123.232 85.36 120.708 86.815 119.063 C 87.605 118.178 88.7 117.729 89.8 117.729 C 90.745 117.729 91.692 118.06 92.453 118.732 C 94.098 120.202 94.254 122.726 92.784 124.371 C 91.987 125.258 90.895 125.713 89.806 125.713 Z  M 402.6 117.563 C 402.572 117.563 402.544 117.563 402.517 117.562 C 401.513 117.542 400.515 117.137 399.75 116.372 L 399.765 116.373 C 398.218 114.809 398.238 112.289 399.802 110.741 C 400.576 109.975 401.586 109.593 402.596 109.593 C 403.624 109.593 404.652 109.988 405.432 110.777 C 406.979 112.341 406.96 114.861 405.396 116.408 C 404.62 117.185 403.609 117.563 402.6 117.563 Z  M 101.98 113.089 C 101.954 113.089 101.928 113.089 101.902 113.088 C 100.882 113.067 99.854 112.647 99.088 111.849 C 97.574 110.254 97.626 107.735 99.22 106.22 C 99.996 105.476 100.991 105.106 101.984 105.106 C 103.033 105.106 104.08 105.518 104.866 106.337 C 106.381 107.931 106.329 110.451 104.733 111.982 C 103.957 112.712 102.961 113.089 101.98 113.089 Z  M 389.778 105.588 C 389.751 105.588 389.724 105.588 389.696 105.587 C 388.805 105.569 387.917 105.247 387.181 104.61 C 385.518 103.171 385.331 100.663 386.77 98.985 C 387.558 98.075 388.668 97.607 389.786 97.607 C 390.708 97.607 391.636 97.925 392.394 98.575 C 394.056 100.013 394.244 102.522 392.804 104.199 C 392.023 105.118 390.899 105.588 389.778 105.588 Z  M 115.148 101.491 C 115.12 101.491 115.093 101.49 115.065 101.49 C 113.933 101.466 112.81 100.964 112.047 100.022 C 110.647 98.303 110.922 95.788 112.626 94.403 C 113.368 93.806 114.256 93.514 115.137 93.514 C 116.299 93.514 117.45 94.02 118.246 94.998 C 119.63 96.702 119.356 99.217 117.651 100.601 C 116.912 101.204 116.029 101.491 115.148 101.491 Z  M 376.046 94.679 C 376.018 94.679 375.99 94.679 375.962 94.678 C 375.164 94.662 374.371 94.422 373.696 93.914 C 371.921 92.616 371.524 90.119 372.822 88.343 C 373.603 87.274 374.819 86.705 376.051 86.705 C 376.864 86.705 377.684 86.953 378.391 87.469 C 380.169 88.766 380.563 91.263 379.266 93.04 C 378.48 94.115 377.277 94.679 376.046 94.679 Z  M 129.212 91.011 C 129.184 91.011 129.157 91.011 129.129 91.01 C 127.869 90.984 126.669 90.385 125.911 89.268 C 124.655 87.456 125.137 84.977 126.95 83.738 C 127.638 83.261 128.422 83.033 129.199 83.033 C 130.468 83.033 131.718 83.643 132.496 84.777 C 133.735 86.59 133.27 89.069 131.457 90.325 C 130.769 90.787 129.983 91.011 129.212 91.011 Z  M 361.456 84.934 C 361.428 84.934 361.401 84.934 361.373 84.933 C 360.687 84.919 360.005 84.729 359.374 84.349 C 357.5 83.209 356.896 80.756 358.052 78.882 C 358.796 77.646 360.101 76.967 361.444 76.967 C 362.156 76.967 362.88 77.158 363.535 77.559 L 363.536 77.542 C 365.409 78.698 365.998 81.151 364.857 83.026 C 364.113 84.262 362.799 84.934 361.456 84.934 Z  M 346.108 76.432 C 346.08 76.432 346.052 76.432 346.024 76.431 C 345.45 76.419 344.863 76.281 344.326 75.998 C 342.352 75.016 341.557 72.623 342.554 70.649 C 343.249 69.252 344.651 68.453 346.111 68.453 C 346.714 68.453 347.326 68.589 347.903 68.876 C 349.878 69.858 350.657 72.251 349.676 74.226 C 348.973 75.62 347.577 76.432 346.108 76.432 Z  M 163.401 70.999 C 161.86 70.723 160.057 70.445 158.12 70.233 C 157.75 70.193 157.378 70.156 156.999 70.122 C 156.556 70.081 156.109 70.044 155.657 70.012 C 155.521 68.392 156.389 66.788 157.946 66.061 C 158.492 65.806 159.066 65.686 159.632 65.686 C 161.135 65.686 162.574 66.538 163.251 67.99 C 163.71 68.974 163.734 70.049 163.401 70.999 Z  M 330.124 69.195 C 330.097 69.195 330.071 69.195 330.044 69.194 C 329.565 69.185 329.089 69.094 328.63 68.91 C 326.589 68.086 325.601 65.768 326.423 63.727 C 327.05 62.174 328.542 61.23 330.118 61.23 C 330.614 61.23 331.118 61.323 331.606 61.521 C 333.648 62.344 334.637 64.662 333.813 66.703 C 333.199 68.259 331.69 69.195 330.124 69.195 Z  M 175.811 66.923 C 175.785 66.923 175.759 66.923 175.734 66.922 C 174.139 66.89 172.66 65.902 172.07 64.311 C 171.299 62.252 172.367 59.961 174.425 59.189 C 174.88 59.024 175.345 58.945 175.803 58.945 C 177.43 58.945 178.956 59.942 179.545 61.56 C 180.317 63.619 179.265 65.91 177.19 66.681 C 176.734 66.838 176.265 66.923 175.811 66.923 Z  M 313.606 63.318 C 313.579 63.318 313.552 63.318 313.524 63.317 C 313.159 63.31 312.792 63.255 312.429 63.135 C 310.32 62.485 309.137 60.26 309.786 58.151 C 310.328 56.438 311.9 55.346 313.601 55.346 C 313.993 55.346 314.392 55.404 314.787 55.526 C 316.879 56.175 318.061 58.401 317.412 60.51 C 316.874 62.226 315.298 63.318 313.606 63.318 Z  M 192.485 61.54 C 192.464 61.54 192.442 61.54 192.421 61.54 C 190.699 61.504 189.143 60.355 188.652 58.606 C 188.058 56.487 189.299 54.295 191.434 53.701 C 191.792 53.6 192.153 53.552 192.508 53.552 C 194.248 53.552 195.844 54.707 196.338 56.467 C 196.933 58.601 195.691 60.793 193.557 61.387 C 193.209 61.485 192.834 61.54 192.485 61.54 Z  M 296.662 58.821 C 296.634 58.821 296.607 58.82 296.579 58.82 C 296.323 58.814 296.053 58.777 295.799 58.725 C 293.638 58.249 292.278 56.115 292.77 53.971 C 293.18 52.104 294.818 50.847 296.65 50.847 C 296.938 50.847 297.23 50.878 297.523 50.942 C 299.667 51.418 301.026 53.551 300.553 55.695 C 300.136 57.557 298.494 58.821 296.662 58.821 Z  M 209.554 57.536 C 209.529 57.536 209.504 57.536 209.478 57.535 C 207.645 57.498 206.013 56.171 205.652 54.298 C 205.234 52.135 206.65 50.042 208.828 49.624 L 208.812 49.624 C 209.067 49.575 209.321 49.551 209.571 49.551 C 211.455 49.551 213.116 50.89 213.485 52.8 C 213.903 54.961 212.489 57.039 210.326 57.457 L 210.31 57.457 C 210.062 57.51 209.803 57.536 209.554 57.536 Z  M 279.398 55.721 C 279.371 55.721 279.343 55.721 279.315 55.72 C 279.157 55.717 279.014 55.714 278.853 55.694 C 276.674 55.394 275.137 53.384 275.436 51.205 C 275.712 49.195 277.432 47.75 279.392 47.75 C 279.574 47.75 279.758 47.763 279.942 47.788 C 282.122 48.088 283.645 50.098 283.344 52.277 C 283.066 54.285 281.358 55.721 279.398 55.721 Z  M 226.988 54.943 C 226.933 54.943 226.879 54.942 226.827 54.941 C 224.849 54.9 223.157 53.398 222.944 51.383 C 222.717 49.192 224.29 47.23 226.48 46.989 C 226.619 46.974 226.758 46.967 226.895 46.967 C 228.915 46.967 230.663 48.49 230.874 50.541 C 231.116 52.732 229.528 54.694 227.338 54.92 C 227.219 54.939 227.101 54.943 226.988 54.943 Z  M 261.951 54.055 C 261.875 54.055 261.798 54.053 261.721 54.049 C 259.522 53.924 257.838 52.055 257.963 49.839 C 258.084 47.718 259.829 46.074 261.927 46.074 C 262.003 46.074 262.079 46.076 262.156 46.081 C 264.355 46.206 266.04 48.091 265.931 50.291 C 265.81 52.413 264.05 54.055 261.951 54.055 Z  M 244.512 53.79 L 244.32 53.786 C 242.199 53.742 240.48 52.047 240.428 49.909 C 240.361 47.706 242.106 45.875 244.309 45.825 C 244.35 45.823 244.39 45.823 244.431 45.823 C 246.58 45.823 248.344 47.544 248.393 49.706 C 248.444 51.909 246.714 53.739 244.512 53.79 Z " fill="rgb(227,225,225)"/><path d=" M 469.497 367.807 C 469.497 375.818 371.422 382.313 250.44 382.313 C 129.458 382.313 31.383 375.818 31.383 367.807 C 31.383 359.796 129.458 353.301 250.44 353.301 C 371.422 353.301 469.497 359.796 469.497 367.807 Z " fill="rgb(177,180,180)"/><path d=" M 417.596 152.362 L 417.596 333.213 C 417.596 340.669 411.552 346.713 404.096 346.713 L 95.883 346.713 C 88.427 346.713 82.383 340.669 82.383 333.213 L 82.383 152.362 C 82.383 144.906 88.427 138.862 95.883 138.862 L 404.096 138.862 C 411.552 138.862 417.596 144.906 417.596 152.362 Z " fill="rgb(63,74,92)"/><path d=" M 417.596 242.786 L 417.596 333.213 C 417.596 340.669 411.552 346.713 404.096 346.713 L 95.883 346.713 C 88.427 346.713 82.383 340.669 82.383 333.213 L 82.383 242.786 L 417.596 242.786 Z " fill="rgb(54,54,68)"/><path d=" M 402.704 161.007 L 402.704 313.189 C 402.704 317.667 398.831 321.299 394.051 321.299 L 105.932 321.299 C 103.377 321.299 101.079 320.262 99.493 318.607 C 98.112 317.175 97.274 315.271 97.274 313.189 L 97.274 161.007 C 97.274 156.53 101.151 152.898 105.932 152.898 L 394.051 152.898 C 395.649 152.898 397.145 153.304 398.429 154.014 C 400.987 155.42 402.704 158.028 402.704 161.007 Z " fill="rgb(222,220,219)"/><path d=" M 380.191 178.516 L 380.191 307.104 L 122.005 307.104 L 122.005 178.516 L 380.191 178.516 Z " fill="rgb(254,254,254)"/><path d=" M 380.191 178.516 L 380.191 189.555 L 122.005 189.555 L 122.005 178.516 L 380.191 178.516 Z " fill="rgb(177,180,180)"/><path d=" M 358.873 184.035 C 358.873 185.3 357.848 186.325 356.583 186.325 C 355.318 186.325 354.293 185.3 354.293 184.035 C 354.293 182.77 355.318 181.745 356.583 181.745 C 357.848 181.745 358.873 182.77 358.873 184.035 Z " fill="rgb(245,176,63)"/><path d=" M 366.296 184.035 C 366.296 185.3 365.271 186.325 364.006 186.325 C 362.741 186.325 361.716 185.3 361.716 184.035 C 361.716 182.77 362.741 181.745 364.006 181.745 C 365.271 181.745 366.296 182.77 366.296 184.035 Z " fill="rgb(0,174,102)"/><path d=" M 373.359 184.035 C 373.359 185.3 372.334 186.325 371.069 186.325 C 369.805 186.325 368.779 185.3 368.779 184.035 C 368.779 182.77 369.805 181.745 371.069 181.745 C 372.334 181.745 373.359 182.77 373.359 184.035 Z " fill="rgb(238,76,72)"/><path d=" M 290.402 246.425 C 290.402 268.132 272.806 285.729 251.099 285.729 C 229.392 285.729 211.795 268.132 211.795 246.425 C 211.795 224.719 229.392 207.122 251.099 207.122 C 272.806 207.122 290.402 224.719 290.402 246.425 Z " fill="rgb(62,109,179)"/><path d=" M 237.274 267.094 L 237.274 225.757 L 272.594 246.425 L 237.274 267.094 Z " fill="rgb(254,254,254)"/><path d=" M 142.611 293.467 L 136.689 293.467 L 136.689 287.926 L 152.781 287.926 L 142.611 293.467 Z " fill="rgb(201,201,200)"/><path d=" M 165.827 280.818 L 136.689 280.818 L 136.689 275.277 L 175.997 275.277 L 165.827 280.818 Z " fill="rgb(201,201,200)"/><path d=" M 178.078 268.169 L 136.689 268.169 L 136.689 262.629 L 178.078 262.629 L 178.078 268.169 Z " fill="rgb(201,201,200)"/><path d=" M 178.078 255.521 L 136.689 255.521 L 136.689 249.98 L 178.078 249.98 L 178.078 255.521 Z " fill="rgb(201,201,200)"/><path d=" M 178.078 242.872 L 136.689 242.872 L 136.689 237.331 L 178.078 237.331 L 178.078 242.872 Z " fill="rgb(201,201,200)"/><path d=" M 178.078 230.223 L 136.689 230.223 L 136.689 224.682 L 178.078 224.682 L 178.078 230.223 Z " fill="rgb(201,201,200)"/><path d=" M 178.078 217.574 L 136.689 217.574 L 136.689 212.033 L 178.078 212.033 L 178.078 217.574 Z " fill="rgb(201,201,200)"/><path d=" M 178.078 204.925 L 136.689 204.925 L 136.689 199.384 L 178.078 199.384 L 178.078 204.925 Z " fill="rgb(201,201,200)"/><path d=" M 448.908 339.485 L 448.908 340.642 C 448.908 346.395 447.062 351.715 443.93 356.041 C 439.153 362.649 431.379 366.948 422.601 366.948 L 77.378 366.948 C 68.6 366.948 60.825 362.649 56.048 356.041 C 52.916 351.715 51.071 346.395 51.071 340.642 L 51.071 339.485 L 448.908 339.485 Z " fill="rgb(63,74,92)"/><path d=" M 205.4 339.485 L 205.4 339.749 C 205.4 341.833 206.795 343.521 208.516 343.521 L 289.732 343.521 C 291.453 343.521 292.848 341.833 292.848 339.749 L 292.848 339.485 L 205.4 339.485 Z " fill="rgb(208,207,206)"/><path d=" M 408.591 348.34 L 386.348 348.34 C 385.787 348.34 385.332 347.885 385.332 347.324 L 385.332 346.103 C 385.332 345.542 385.787 345.088 386.348 345.088 L 408.591 345.088 C 409.151 345.088 409.606 345.542 409.606 346.103 L 409.606 347.324 C 409.606 347.885 409.151 348.34 408.591 348.34 Z " fill="rgb(208,207,206)"/><path d=" M 443.93 356.041 C 439.153 362.649 431.379 366.948 422.601 366.948 L 77.378 366.948 C 68.6 366.948 60.825 362.649 56.048 356.041 L 443.93 356.041 Z " fill="rgb(54,54,68)"/><path d=" M 402.704 161.555 L 402.704 171.14 L 97.274 171.14 L 97.274 161.555 C 97.274 159.71 97.849 158.004 98.836 156.602 C 100.397 154.362 102.993 152.898 105.932 152.898 L 394.051 152.898 C 396.989 152.898 399.585 154.362 401.143 156.602 C 402.13 158.004 402.704 159.71 402.704 161.555 Z " fill="rgb(177,180,180)"/><path d=" M 380.23 164.31 C 380.23 165.574 379.205 166.6 377.94 166.6 C 376.676 166.6 375.649 165.574 375.649 164.31 C 375.649 163.044 376.676 162.019 377.94 162.019 C 379.205 162.019 380.23 163.044 380.23 164.31 Z " fill="rgb(245,176,63)"/><path d=" M 387.653 164.31 C 387.653 165.574 386.628 166.6 385.363 166.6 C 384.098 166.6 383.072 165.574 383.072 164.31 C 383.072 163.044 384.098 162.019 385.363 162.019 C 386.628 162.019 387.653 163.044 387.653 164.31 Z " fill="rgb(0,174,102)"/><path d=" M 394.717 164.31 C 394.717 165.574 393.691 166.6 392.427 166.6 C 391.162 166.6 390.137 165.574 390.137 164.31 C 390.137 163.044 391.162 162.019 392.427 162.019 C 393.691 162.019 394.717 163.044 394.717 164.31 Z " fill="rgb(238,76,72)"/><path d=" M 328.163 164.91 L 167.691 164.91 C 166.859 164.91 166.178 164.229 166.178 163.397 L 166.178 161.576 C 166.178 160.744 166.859 160.063 167.691 160.063 L 328.163 160.063 C 328.994 160.063 329.675 160.744 329.675 161.576 L 329.675 163.397 C 329.675 164.229 328.994 164.91 328.163 164.91 Z " fill="rgb(254,254,254)"/><path d=" M 127.137 162.486 L 127.137 165.442 L 124.578 163.964 L 122.019 162.486 L 124.578 161.009 L 127.137 159.531 L 127.137 162.486 Z " fill="rgb(63,74,92)"/><path d=" M 135.231 162.486 L 135.231 165.442 L 137.791 163.964 L 140.35 162.486 L 137.791 161.009 L 135.231 159.531 L 135.231 162.486 Z " fill="rgb(63,74,92)"/><path d=" M 393.816 156.602 L 98.836 156.602 C 100.397 154.362 102.993 152.898 105.932 152.898 L 394.051 152.898 C 395.672 152.898 397.189 153.344 398.485 154.12 C 398.466 154.109 398.448 154.099 398.429 154.089 L 393.816 156.602 Z " fill="rgb(144,149,150)"/><path d=" M 394.051 319.622 L 187.032 319.622 L 163.571 307.104 L 380.191 307.104 L 380.191 189.555 L 380.191 178.516 L 353.595 178.516 L 367.133 171.14 L 402.704 171.14 L 402.704 311.598 C 402.704 316.028 398.831 319.622 394.051 319.622 Z  M 402.704 161.555 C 402.704 159.71 402.13 158.004 401.143 156.602 C 400.444 155.598 399.538 154.75 398.485 154.12 C 401.012 155.519 402.704 158.083 402.704 161.009 L 402.704 161.555 Z " fill="rgb(227,225,225)"/><path d=" M 380.191 307.104 L 163.571 307.104 L 143.048 296.152 L 137.682 296.152 L 142.611 293.467 L 178.078 293.467 L 178.078 287.926 L 152.781 287.926 L 165.827 280.818 L 178.078 280.818 L 178.078 275.277 L 175.997 275.277 L 212.786 255.233 C 216.786 272.698 232.421 285.729 251.099 285.729 C 272.806 285.729 290.402 268.132 290.402 246.425 C 290.402 235.764 286.157 226.094 279.265 219.013 L 333.333 189.555 L 380.191 189.555 L 380.191 307.104 Z  M 322.616 287.926 L 322.616 293.467 L 364.006 293.467 L 364.006 287.926 L 322.616 287.926 Z  M 322.616 275.277 L 322.616 280.818 L 364.006 280.818 L 364.006 275.277 L 354.269 275.277 C 356.841 272.944 357.994 270.371 358.297 268.425 C 358.339 268.341 358.352 268.253 358.337 268.169 L 364.006 268.169 L 364.006 262.629 L 322.616 262.629 L 322.616 268.169 L 348.514 268.169 L 344.356 272.053 C 344.18 272.217 344.133 272.416 344.206 272.583 L 344.421 273.313 L 344.432 273.351 C 344.472 273.465 344.567 273.566 344.712 273.638 L 347.14 274.811 L 347.292 275.277 L 322.616 275.277 Z  M 322.616 249.98 L 322.616 255.521 L 364.006 255.521 L 364.006 249.98 L 322.616 249.98 Z  M 322.616 237.331 L 322.616 242.872 L 364.006 242.872 L 364.006 237.331 L 322.616 237.331 Z  M 322.616 224.682 L 322.616 230.223 L 364.006 230.223 L 364.006 224.682 L 322.616 224.682 Z  M 322.616 212.033 L 322.616 217.574 L 364.006 217.574 L 364.006 212.033 L 322.616 212.033 Z  M 322.616 199.384 L 322.616 204.925 L 364.006 204.925 L 364.006 199.384 L 322.616 199.384 Z " fill="rgb(254,254,254)"/><path d=" M 380.191 189.555 L 380.191 189.555 L 333.333 189.555 L 353.595 178.516 L 380.191 178.516 L 380.191 189.555 Z  M 371.069 181.745 C 369.805 181.745 368.779 182.77 368.779 184.035 C 368.779 185.3 369.805 186.325 371.069 186.325 C 372.334 186.325 373.359 185.3 373.359 184.035 C 373.359 182.77 372.334 181.745 371.069 181.745 Z  M 364.006 181.745 C 362.741 181.745 361.716 182.77 361.716 184.035 C 361.716 185.3 362.741 186.325 364.006 186.325 C 365.271 186.325 366.296 185.3 366.296 184.035 C 366.296 182.77 365.271 181.745 364.006 181.745 Z  M 356.583 181.745 C 355.318 181.745 354.293 182.77 354.293 184.035 C 354.293 185.3 355.318 186.325 356.583 186.325 C 357.848 186.325 358.873 185.3 358.873 184.035 C 358.873 182.77 357.848 181.745 356.583 181.745 Z " fill="rgb(191,191,190)"/><path d=" M 356.583 186.325 C 355.318 186.325 354.293 185.3 354.293 184.035 C 354.293 182.77 355.318 181.745 356.583 181.745 C 357.848 181.745 358.873 182.77 358.873 184.035 C 358.873 185.3 357.848 186.325 356.583 186.325 Z " fill="rgb(245,188,88)"/><path d=" M 364.006 186.325 C 362.741 186.325 361.716 185.3 361.716 184.035 C 361.716 182.77 362.741 181.745 364.006 181.745 C 365.271 181.745 366.296 182.77 366.296 184.035 C 366.296 185.3 365.271 186.325 364.006 186.325 Z " fill="rgb(23,180,127)"/><path d=" M 371.069 186.325 C 369.805 186.325 368.779 185.3 368.779 184.035 C 368.779 182.77 369.805 181.745 371.069 181.745 C 372.334 181.745 373.359 182.77 373.359 184.035 C 373.359 185.3 372.334 186.325 371.069 186.325 Z " fill="rgb(240,100,98)"/><path d=" M 251.099 285.729 C 232.421 285.729 216.786 272.698 212.786 255.233 L 237.274 241.891 L 237.274 267.094 L 272.594 246.425 L 251.552 234.112 L 279.265 219.013 C 286.157 226.094 290.402 235.764 290.402 246.425 C 290.402 268.132 272.806 285.729 251.099 285.729 Z " fill="rgb(86,129,192)"/><path d=" M 237.274 267.094 L 237.274 241.891 L 251.552 234.112 L 272.594 246.425 L 237.274 267.094 Z " fill="rgb(254,254,254)"/><path d=" M 178.078 293.467 L 142.611 293.467 L 152.781 287.926 L 178.078 287.926 L 178.078 293.467 Z " fill="rgb(210,209,208)"/><path d=" M 178.078 280.818 L 165.827 280.818 L 175.997 275.277 L 178.078 275.277 L 178.078 280.818 Z " fill="rgb(210,209,208)"/><path d=" M 364.006 293.467 L 322.616 293.467 L 322.616 287.926 L 364.006 287.926 L 364.006 293.467 Z " fill="rgb(210,209,208)"/><path d=" M 364.006 280.818 L 322.616 280.818 L 322.616 275.277 L 347.292 275.277 L 348.157 277.928 C 348.157 277.928 348.175 277.928 348.211 277.928 C 348.624 277.928 351.36 277.835 354.077 275.448 C 354.142 275.391 354.206 275.334 354.269 275.277 L 364.006 275.277 L 364.006 280.818 Z " fill="rgb(210,209,208)"/><path d=" M 364.006 268.169 L 358.337 268.169 C 358.336 268.168 358.336 268.166 358.336 268.165 L 358.335 268.15 C 358.486 266.871 358.259 265.899 357.831 265.506 C 357.69 265.376 357.483 265.319 357.225 265.319 C 356.743 265.319 356.084 265.52 355.348 265.829 L 353.134 264.758 C 353.008 264.697 352.86 264.667 352.71 264.667 C 352.441 264.667 352.162 264.761 351.979 264.933 L 348.514 268.169 L 322.616 268.169 L 322.616 262.629 L 364.006 262.629 L 364.006 268.169 Z " fill="rgb(210,209,208)"/><path d=" M 364.006 255.521 L 322.616 255.521 L 322.616 249.98 L 364.006 249.98 L 364.006 255.521 Z " fill="rgb(210,209,208)"/><path d=" M 364.006 242.872 L 322.616 242.872 L 322.616 237.331 L 364.006 237.331 L 364.006 242.872 Z " fill="rgb(210,209,208)"/><path d=" M 364.006 230.223 L 322.616 230.223 L 322.616 224.682 L 364.006 224.682 L 364.006 230.223 Z " fill="rgb(210,209,208)"/><path d=" M 364.006 217.574 L 322.616 217.574 L 322.616 212.033 L 364.006 212.033 L 364.006 217.574 Z " fill="rgb(210,209,208)"/><path d=" M 364.006 204.925 L 322.616 204.925 L 322.616 199.384 L 364.006 199.384 L 364.006 204.925 Z " fill="rgb(210,209,208)"/><path d=" M 402.704 171.14 L 402.704 171.14 L 367.133 171.14 L 376.461 166.058 C 376.86 166.396 377.377 166.6 377.94 166.6 C 379.205 166.6 380.23 165.574 380.23 164.31 C 380.23 164.21 380.224 164.111 380.212 164.014 L 393.816 156.602 L 401.143 156.602 L 401.143 156.602 C 400.444 155.598 399.538 154.75 398.485 154.12 L 398.485 154.12 C 399.538 154.75 400.444 155.598 401.143 156.602 C 402.13 158.004 402.704 159.71 402.704 161.555 L 402.704 161.555 L 402.704 171.14 Z  M 392.427 162.019 C 391.162 162.019 390.137 163.044 390.137 164.31 C 390.137 165.574 391.162 166.6 392.427 166.6 C 393.691 166.6 394.717 165.574 394.717 164.31 C 394.717 163.044 393.691 162.019 392.427 162.019 Z  M 385.363 162.019 C 384.098 162.019 383.072 163.044 383.072 164.31 C 383.072 165.574 384.098 166.6 385.363 166.6 C 386.628 166.6 387.653 165.574 387.653 164.31 C 387.653 163.044 386.628 162.019 385.363 162.019 Z " fill="rgb(191,191,190)"/><path d=" M 377.94 166.6 C 377.377 166.6 376.86 166.396 376.461 166.058 L 380.212 164.014 C 380.224 164.111 380.23 164.21 380.23 164.31 C 380.23 165.574 379.205 166.6 377.94 166.6 Z " fill="rgb(245,188,88)"/><path d=" M 385.363 166.6 C 384.098 166.6 383.072 165.574 383.072 164.31 C 383.072 163.044 384.098 162.019 385.363 162.019 C 386.628 162.019 387.653 163.044 387.653 164.31 C 387.653 165.574 386.628 166.6 385.363 166.6 Z " fill="rgb(23,180,127)"/><path d=" M 392.427 166.6 C 391.162 166.6 390.137 165.574 390.137 164.31 C 390.137 163.044 391.162 162.019 392.427 162.019 C 393.691 162.019 394.717 163.044 394.717 164.31 C 394.717 165.574 393.691 166.6 392.427 166.6 Z " fill="rgb(240,100,98)"/><path d=" M 401.143 156.602 L 393.816 156.602 L 398.429 154.089 C 398.448 154.099 398.466 154.109 398.485 154.12 C 399.538 154.75 400.444 155.598 401.143 156.602 Z " fill="rgb(164,167,168)"/><path d=" M 205.65 425.005 L 179.647 395.933 L 38.632 395.933 C 36.419 396.823 35.482 399.677 37.051 401.736 L 52.908 422.544 C 57.119 428.07 63.669 431.313 70.616 431.313 L 202.829 431.313 C 206.1 431.313 207.831 427.443 205.65 425.005 Z " fill="rgb(177,180,180)"/><path d=" M 37.242 383.986 C 39.078 390.752 60.904 413.398 65.576 418.189 C 68.689 422.149 73.466 424.741 78.844 424.905 L 79.102 424.918 L 186.479 424.918 C 187.851 424.918 188.973 423.796 188.973 422.426 C 188.973 421.054 187.851 419.934 186.479 419.934 L 79.381 419.934 C 72.453 419.932 66.815 414.296 66.815 407.368 C 66.815 400.439 72.453 394.802 79.381 394.802 L 186.479 394.802 C 187.851 394.802 188.973 393.68 188.973 392.31 C 188.973 390.937 187.851 389.815 186.479 389.815 L 186.322 389.815 L 186.741 388.968 L 141.795 364.987 L 51.551 364.987 C 51.551 364.987 32.691 367.221 37.242 383.986 Z " fill="rgb(245,176,63)"/><path d=" M 188.966 392.496 C 188.969 392.452 188.971 392.406 188.972 392.361 L 188.975 392.361 C 188.973 392.407 188.97 392.452 188.966 392.496 Z " fill="rgb(167,171,172)"/><path d=" M 67.188 401.872 C 68.558 396.415 73.506 392.361 79.377 392.361 L 188.975 392.361 C 188.971 392.406 188.969 392.452 188.966 392.496 C 188.849 393.747 187.779 394.745 186.479 394.745 L 79.377 394.745 C 78.952 394.745 78.534 394.767 78.12 394.808 C 73.575 394.938 69.444 397.519 67.338 401.569 C 67.285 401.67 67.235 401.77 67.188 401.872 Z " fill="rgb(195,147,67)"/><path d=" M 78.486 419.933 L 186.479 419.933 L 186.479 394.801 L 78.486 394.801 C 73.798 394.801 69.5 397.41 67.337 401.569 C 65.448 405.204 65.448 409.53 67.337 413.165 C 69.5 417.323 73.798 419.933 78.486 419.933 Z " fill="rgb(254,254,254)"/><path d=" M 186.479 402.397 L 79.837 402.397 C 79.374 402.397 78.999 402.022 78.999 401.56 C 78.999 401.097 79.374 400.721 79.837 400.721 L 186.479 400.721 L 186.479 402.397 Z " fill="rgb(208,207,206)"/><path d=" M 186.479 408.205 L 79.837 408.205 C 79.374 408.205 78.999 407.83 78.999 407.367 C 78.999 406.904 79.374 406.529 79.837 406.529 L 186.479 406.529 L 186.479 408.205 Z " fill="rgb(208,207,206)"/><path d=" M 186.479 414.013 L 79.837 414.013 C 79.374 414.013 78.999 413.638 78.999 413.175 C 78.999 412.712 79.374 412.337 79.837 412.337 L 186.479 412.337 L 186.479 414.013 Z " fill="rgb(208,207,206)"/><path d=" M 36.98 348.678 C 38.907 355.771 62.812 380.33 65.868 383.449 C 68.984 387.205 73.633 389.644 78.844 389.803 L 79.102 389.815 L 186.479 389.815 C 187.851 389.815 188.973 388.693 188.973 387.323 C 188.973 385.951 187.851 384.831 186.479 384.831 L 79.381 384.831 C 72.453 384.829 66.815 379.194 66.815 372.266 C 66.815 365.337 72.453 359.699 79.381 359.699 L 186.479 359.699 C 187.851 359.699 188.973 358.577 188.973 357.207 C 188.973 355.835 187.851 354.713 186.479 354.713 L 185.958 354.713 L 186.479 353.66 L 141.533 329.679 L 51.288 329.679 C 51.288 329.679 32.429 331.912 36.98 348.678 Z " fill="rgb(62,109,179)"/><path d=" M 188.959 357.467 C 188.966 357.401 188.97 357.336 188.972 357.27 L 188.975 357.27 C 188.972 357.336 188.967 357.402 188.959 357.467 Z " fill="rgb(50,49,60)"/><path d=" M 67.192 366.761 C 68.568 361.316 73.512 357.27 79.377 357.27 L 188.975 357.27 C 188.97 357.336 188.966 357.401 188.959 357.467 C 188.813 358.691 187.757 359.653 186.479 359.653 L 79.377 359.653 C 78.998 359.653 78.626 359.67 78.255 359.703 C 73.656 359.784 69.465 362.377 67.338 366.468 C 67.288 366.565 67.237 366.661 67.192 366.761 Z " fill="rgb(60,98,172)"/><path d=" M 78.486 384.83 L 186.479 384.83 L 186.479 359.699 L 78.486 359.699 C 73.798 359.699 69.5 362.309 67.337 366.467 C 65.448 370.102 65.448 374.429 67.337 378.063 C 69.5 382.222 73.798 384.83 78.486 384.83 Z " fill="rgb(254,254,254)"/><path d=" M 186.479 367.295 L 79.837 367.295 C 79.374 367.295 78.999 366.92 78.999 366.457 C 78.999 365.994 79.374 365.619 79.837 365.619 L 186.479 365.619 L 186.479 367.295 Z " fill="rgb(208,207,206)"/><path d=" M 186.479 373.103 L 79.837 373.103 C 79.374 373.103 78.999 372.728 78.999 372.265 C 78.999 371.802 79.374 371.427 79.837 371.427 L 186.479 371.427 L 186.479 373.103 Z " fill="rgb(208,207,206)"/><path d=" M 186.479 378.911 L 79.837 378.911 C 79.374 378.911 78.999 378.535 78.999 378.072 C 78.999 377.609 79.374 377.234 79.837 377.234 L 186.479 377.234 L 186.479 378.911 Z " fill="rgb(208,207,206)"/><path d=" M 78.486 349.728 L 186.479 349.728 L 186.479 324.597 L 78.486 324.597 C 73.798 324.597 69.5 327.206 67.338 331.365 C 65.448 334.999 65.448 339.326 67.338 342.96 C 69.5 347.119 73.798 349.728 78.486 349.728 Z " fill="rgb(254,254,254)"/><path d=" M 38.494 315.149 C 39.799 319.937 51.07 332.637 59.218 341.37 L 59.444 341.606 C 59.557 341.729 59.67 341.843 59.773 341.956 C 62.3 344.658 64.478 346.929 65.917 348.408 L 65.999 348.49 C 66.852 349.374 67.427 349.96 67.623 350.165 L 67.694 350.237 L 67.705 350.247 C 70.685 352.919 74.579 354.573 78.842 354.696 L 79.099 354.717 L 186.479 354.717 C 187.855 354.717 188.975 353.597 188.975 352.22 C 188.975 350.853 187.855 349.724 186.479 349.724 L 79.376 349.724 C 74.013 349.724 69.431 346.354 67.623 341.606 C 67.099 340.229 66.811 338.73 66.811 337.157 C 66.811 335.925 66.985 334.732 67.325 333.613 L 67.335 333.582 C 68.876 328.394 73.695 324.592 79.376 324.592 L 186.479 324.592 C 187.824 324.592 188.924 323.523 188.975 322.208 L 188.975 322.105 C 188.975 321.304 188.585 320.595 187.999 320.133 L 187.989 320.122 C 187.763 319.958 187.516 319.824 187.249 319.732 L 187.218 319.722 L 143.048 296.152 L 52.807 296.152 C 52.807 296.152 33.942 298.382 38.494 315.149 Z " fill="rgb(238,76,72)"/><path d=" M 66.842 335.616 L 66.832 335.514 C 66.821 335.268 66.811 335.021 66.811 334.774 C 66.811 327.849 72.452 322.208 79.376 322.208 L 188.975 322.208 C 188.924 323.523 187.824 324.592 186.479 324.592 L 79.376 324.592 C 73.695 324.592 68.876 328.394 67.335 333.582 L 67.325 333.613 L 67.325 333.613 C 67.099 334.219 66.934 334.887 66.842 335.616 Z " fill="rgb(199,69,66)"/><path d=" M 186.479 332.192 L 79.837 332.192 C 79.374 332.192 78.999 331.817 78.999 331.354 C 78.999 330.892 79.374 330.517 79.837 330.517 L 186.479 330.517 L 186.479 332.192 Z " fill="rgb(208,207,206)"/><path d=" M 186.479 338.001 L 79.837 338.001 C 79.374 338.001 78.999 337.625 78.999 337.162 C 78.999 336.699 79.374 336.324 79.837 336.324 L 186.479 336.324 L 186.479 338.001 Z " fill="rgb(208,207,206)"/><path d=" M 186.479 343.809 L 79.837 343.809 C 79.374 343.809 78.999 343.433 78.999 342.97 C 78.999 342.508 79.374 342.132 79.837 342.132 L 186.479 342.132 L 186.479 343.809 Z " fill="rgb(208,207,206)"/><path d=" M 62.993 258.345 L 62.993 310.697 C 97.404 320.964 131.751 321.002 166.036 310.697 L 166.036 258.345 L 62.993 258.345 Z " fill="rgb(62,95,169)"/><path d=" M 116.72 272.56 L 20.422 252.398 L 116.72 226.414 L 208.893 252.398 L 116.72 272.56 Z " fill="rgb(62,109,179)"/><path d=" M 171.682 321.26 C 171.117 321.26 170.659 320.802 170.659 320.236 L 170.659 261.368 L 114.305 249.57 C 113.752 249.454 113.397 248.912 113.513 248.359 C 113.629 247.806 114.171 247.453 114.724 247.567 L 171.892 259.536 C 172.366 259.636 172.705 260.054 172.705 260.538 L 172.705 320.236 C 172.705 320.802 172.247 321.26 171.682 321.26 Z " fill="rgb(245,176,63)"/><path d=" M 123.976 248.568 C 123.976 250.326 119.957 251.751 114.998 251.751 C 110.04 251.751 106.02 250.326 106.02 248.568 C 106.02 246.811 110.04 245.386 114.998 245.386 C 119.957 245.386 123.976 246.811 123.976 248.568 Z " fill="rgb(62,95,169)"/><path d=" M 179.202 340.444 C 178.595 340.727 177.988 340.976 177.381 341.188 C 176.965 341.337 176.549 341.467 176.133 341.579 C 175.148 341.855 174.166 342.039 173.181 342.135 C 172.765 342.176 172.346 342.2 171.93 342.21 C 170.638 342.233 169.342 342.107 168.05 341.828 C 167.603 341.732 167.16 341.62 166.717 341.483 C 165.807 341.215 164.896 340.866 163.986 340.444 C 163.594 340.264 163.393 339.816 163.529 339.404 L 169.472 321.287 C 170.143 319.237 173.041 319.237 173.713 321.287 L 179.659 339.404 C 179.795 339.816 179.594 340.264 179.202 340.444 Z " fill="rgb(245,176,63)"/><path d=" M 168.05 341.828 C 167.603 341.732 167.16 341.62 166.717 341.483 L 167.757 337.27 L 168.05 341.828 Z " fill="rgb(246,149,59)"/><path d=" M 177.381 341.188 C 176.965 341.337 176.549 341.467 176.133 341.579 L 175.087 332.354 L 177.381 341.188 Z " fill="rgb(246,149,59)"/><path d=" M 173.181 342.135 C 172.765 342.176 172.346 342.2 171.93 342.21 L 172.219 336.643 L 173.181 342.135 Z " fill="rgb(246,149,59)"/><path d=" M 174.889 320.961 C 174.889 322.78 173.414 324.256 171.593 324.256 C 169.773 324.256 168.297 322.78 168.297 320.961 C 168.297 319.141 169.773 317.665 171.593 317.665 C 173.414 317.665 174.889 319.141 174.889 320.961 Z " fill="rgb(246,149,59)"/><path d=" M 337.183 391.873 C 337.183 391.873 339.088 398.735 340.853 400.21 C 342.617 401.685 348.15 408.92 353.542 410.056 C 358.934 411.19 361.062 405.488 354.394 400.017 C 349.078 395.655 344.471 388.732 344.471 388.732 C 344.471 388.732 341.963 391.425 337.183 391.873 Z " fill="rgb(254,254,254)"/><path d=" M 297.237 265.005 C 297.237 265.005 310.289 280.585 315.771 283.145 C 318.177 284.269 320.555 284.665 322.31 284.728 C 322.897 284.749 324.432 284.625 324.516 284.623 L 324.528 284.625 C 331.041 283.817 338.696 281.857 348.273 277.957 L 346.846 273.521 C 346.846 273.521 341.091 274.744 334.039 275.247 C 331.439 275.431 325.441 275.705 323.224 276.063 C 322.674 275.817 322.133 275.55 321.605 275.262 C 311.873 270.009 305.449 259.313 305.449 259.313 C 302.37 260.469 298.833 262.629 297.237 265.005 Z " fill="rgb(197,59,72)"/><path d=" M 346.603 273.169 C 346.603 273.169 347.938 269.801 349.752 268.839 C 351.565 267.878 356.729 264.493 357.831 265.506 C 358.934 266.519 358.706 271.383 354.077 275.448 C 351.128 278.038 348.157 277.928 348.157 277.928 L 346.603 273.169 Z " fill="rgb(248,170,133)"/><path d=" M 358.162 268.601 L 350.54 275.721 C 350.254 275.99 349.736 276.067 349.383 275.895 L 344.712 273.638 C 344.567 273.566 344.472 273.465 344.432 273.351 L 344.421 273.313 L 344.191 272.532 L 345.431 272.063 L 357.422 267.508 L 358.071 267.264 L 358.315 268.088 L 358.334 268.145 L 358.336 268.165 C 358.364 268.311 358.306 268.468 358.162 268.601 Z " fill="rgb(54,54,68)"/><path d=" M 349.15 275.104 L 344.478 272.845 C 344.125 272.674 344.071 272.319 344.356 272.053 L 351.979 264.933 C 352.265 264.666 352.781 264.587 353.134 264.758 L 357.807 267.018 C 358.159 267.188 358.213 267.542 357.928 267.81 L 350.306 274.93 C 350.019 275.196 349.503 275.274 349.15 275.104 Z " fill="rgb(63,74,92)"/><path d=" M 350.142 273.919 C 349.991 273.919 349.844 273.889 349.718 273.828 L 346.097 272.078 C 345.745 271.907 345.69 271.553 345.977 271.286 L 351.904 265.748 C 352.088 265.577 352.367 265.483 352.636 265.483 C 352.786 265.483 352.933 265.512 353.06 265.573 L 356.68 267.324 C 357.032 267.494 357.086 267.849 356.801 268.116 L 350.873 273.653 C 350.689 273.825 350.411 273.919 350.142 273.919 Z " fill="rgb(88,107,120)"/><path d=" M 349.621 267.135 C 349.621 267.135 350.707 267.305 350.817 268.238 C 350.928 269.171 349.918 268.8 349.269 268.595 C 348.619 268.39 348.035 268.596 347.945 268.7 C 347.661 269.035 347.71 266.858 349.621 267.135 Z " fill="rgb(248,170,133)"/><path d=" M 354.475 272.204 C 354.475 272.204 356.179 269.404 357.484 267.875 C 358.354 266.856 358.798 268.334 358.202 269.364 C 357.607 270.395 356.433 272.494 354.475 272.204 Z " fill="rgb(248,170,133)"/><path d=" M 298.117 320.69 C 298.117 320.69 315.763 287.712 327.083 291.415 C 334.631 293.884 352.827 330.334 352.827 330.334 C 351.164 332.724 347.559 332.669 344.691 330.754 C 344.691 330.754 331.185 319.46 326.395 306.665 C 326.395 306.665 312.043 339.967 292.977 339.967 C 291.737 339.967 295.008 324.011 298.117 320.69 Z " fill="rgb(62,95,169)"/><path d=" M 344.691 330.754 C 344.691 330.754 344.218 331.411 344.216 332.772 C 344.214 334.134 344.339 338.83 344.339 338.83 L 367.265 338.869 C 367.265 338.869 367.354 335.299 364.454 333.389 C 361.553 331.478 357.087 333.337 352.827 330.334 C 352.827 330.334 351.684 331.376 344.691 330.754 Z " fill="rgb(254,254,254)"/><path d=" M 288.074 248.866 C 288.074 248.866 279.85 248.907 276.1 252.297 C 272.35 255.688 275.929 262.574 279.996 263.457 C 284.064 264.34 296.765 262.834 298.085 260.657 C 299.406 258.48 298.568 249.033 288.074 248.866 Z " fill="rgb(238,76,72)"/><path d=" M 275.103 322.682 L 271.104 296.899 L 271.971 261.332 L 281.537 258.098 L 282.051 257.923 L 284.198 257.197 L 285.902 256.621 L 296.002 258.013 L 297.646 258.238 L 298.225 258.318 L 305.45 259.313 C 305.519 282.172 303.324 287.108 307.549 305.703 C 306.484 314.783 301.874 337.556 275.103 322.682 Z " fill="rgb(238,76,72)"/><path d=" M 288.761 263.557 C 281.523 263.53 279.844 257.152 279.828 257.088 C 279.792 256.944 279.879 256.8 280.022 256.764 C 280.164 256.728 280.31 256.814 280.346 256.958 C 280.408 257.205 281.95 262.997 288.76 263.022 L 288.872 263.022 C 289.016 263.029 289.14 263.141 289.141 263.288 C 289.142 263.436 289.022 263.556 288.875 263.557 L 288.761 263.557 Z " fill="rgb(197,59,72)"/><path d=" M 295.56 262.558 C 295.414 262.557 295.296 262.44 295.294 262.295 C 295.291 262.147 295.408 262.026 295.556 262.023 C 295.651 262.021 297.755 261.937 298.299 259.093 C 298.326 258.948 298.465 258.853 298.611 258.88 C 298.756 258.908 298.851 259.048 298.823 259.192 C 298.194 262.48 295.591 262.557 295.564 262.558 L 295.56 262.558 Z " fill="rgb(197,59,72)"/><path d=" M 283.875 298.642 C 283.875 298.642 282.699 307.613 285.093 312.004 C 285.093 312.004 296.994 312.837 305.647 309.436 C 305.647 309.436 303.485 303.173 303.452 297.058 L 283.875 298.642 Z " fill="rgb(197,59,72)"/><path d=" M 290.23 289.145 L 290.207 289.144 C 290.061 289.131 289.952 289.001 289.966 288.854 C 290.564 282.202 288.071 265.408 288.047 265.24 C 288.024 265.094 288.125 264.958 288.271 264.937 C 288.417 264.915 288.553 265.016 288.574 265.161 C 288.6 265.33 291.102 282.187 290.497 288.902 C 290.484 289.041 290.367 289.146 290.23 289.145 Z " fill="rgb(254,254,254)"/><path d=" M 299.032 287.843 L 299.01 287.841 C 298.862 287.828 298.754 287.698 298.768 287.552 C 299.366 280.899 296.79 263.975 296.764 263.805 C 296.741 263.659 296.841 263.522 296.987 263.5 C 297.133 263.478 297.269 263.578 297.291 263.724 C 297.317 263.895 299.903 280.884 299.299 287.6 C 299.287 287.738 299.17 287.843 299.032 287.843 Z " fill="rgb(254,254,254)"/><path d=" M 309.89 233.774 C 309.89 233.774 311.908 236.034 309.872 240.183 C 307.836 244.331 306.019 244.35 306.019 244.35 C 306.019 244.35 306.021 233.971 309.89 233.774 Z " fill="rgb(54,54,68)"/><path d=" M 294.843 252.072 L 292.901 257.473 L 292.011 259.948 C 288.151 261.347 283.966 256.595 283.966 256.595 L 286.078 247.858 C 287.836 247.307 291.124 249.683 293.204 250.986 C 294.184 251.602 294.843 252.072 294.843 252.072 Z " fill="rgb(248,170,133)"/><path d=" M 294.843 252.072 L 292.42 258.813 C 288.058 256.766 287.862 249.435 287.862 249.435 L 293.204 250.986 C 294.184 251.602 294.843 252.072 294.843 252.072 Z " fill="rgb(236,141,106)"/><path d=" M 309.088 241.054 C 309.035 241.244 308.981 241.434 308.922 241.628 C 308.416 243.331 307.741 245.179 307.01 247.015 C 306.855 247.399 306.698 247.783 306.54 248.164 C 306.403 248.492 306.267 248.82 306.128 249.146 C 305.839 249.82 305.55 250.486 305.264 251.129 C 305.064 251.576 304.869 252.013 304.674 252.437 C 304.537 252.734 304.383 253.017 304.212 253.283 C 303.676 254.121 302.975 254.809 302.176 255.323 C 300.237 256.572 297.709 256.809 295.481 255.71 C 293.659 254.811 291.659 253.771 289.82 252.692 C 289.729 252.641 289.641 252.59 289.55 252.535 C 288.079 251.666 286.723 250.773 285.654 249.914 C 285.557 249.647 285.465 249.377 285.382 249.107 C 284.651 246.746 284.497 244.274 284.671 241.802 C 284.741 240.815 284.862 239.828 285.021 238.849 L 285.042 238.617 C 286.318 233.815 287.842 229.179 287.842 229.179 C 294.827 224.042 308.804 230.468 309.769 235.835 C 309.99 237.062 309.686 238.922 309.088 241.054 Z " fill="rgb(248,170,133)"/><path d=" M 285.382 249.107 C 284.651 246.746 284.498 244.273 284.673 241.801 C 285.369 241.995 286.226 242.449 287.269 243.313 C 287.269 243.313 286.618 246.852 285.382 249.107 Z " fill="rgb(54,54,68)"/><path d=" M 285.588 236.625 C 285.588 236.625 288.331 235.72 289.583 238.962 L 291.115 239.368 C 291.115 239.368 291.862 236.195 293.059 234.684 C 294.256 233.173 297.18 233.994 298.151 232.095 C 298.151 232.095 304.632 237.957 309.811 236.142 C 315.607 234.11 301.964 222.888 293.613 224.583 C 287.062 225.914 285.894 230.967 285.588 236.625 Z " fill="rgb(54,54,68)"/><path d=" M 289.583 238.962 C 289.583 238.962 287.988 235.497 285.588 236.625 C 282.942 237.867 282.971 244.462 287.406 245.487 L 289.583 238.962 Z " fill="rgb(248,170,133)"/><path d=" M 302.89 226.414 C 302.89 226.414 307.129 228.303 311.436 227.662 C 316.051 226.975 316.157 235.639 310.725 235.853 C 305.292 236.067 302.89 226.414 302.89 226.414 Z " fill="rgb(54,54,68)"/><path d=" M 299.391 326.978 C 299.391 326.978 320.354 333.923 328.953 342.163 C 337.552 350.404 344.471 388.732 344.471 388.732 C 343.299 391.397 340.664 392.181 337.183 391.873 C 337.183 391.873 325.325 370.452 320.389 353.257 C 320.389 353.257 263.494 342.688 275.103 322.682 C 276.096 320.971 291.337 324.717 299.391 326.978 Z " fill="rgb(62,109,179)"/><path d=" M 264.763 331.684 C 264.763 331.684 267.727 335.701 267.482 337.781 C 267.237 339.86 264.554 343.778 262.409 343.968 C 260.265 344.156 264.874 338.933 263.786 339.102 C 262.47 339.305 253.581 346.598 251.706 346.598 C 249.83 346.598 253.913 343.208 255.503 342.352 C 255.503 342.352 251.298 344.232 250.319 345.211 C 249.341 346.189 248.63 344.091 253.523 341.114 C 253.523 341.114 249.035 343.661 248.729 343.702 C 247.731 343.835 250.579 340.496 253.031 339.289 C 253.031 339.289 249.434 341.04 249.068 341.048 C 248.562 341.059 249.647 339.882 252.317 338.401 C 254.72 337.07 258.655 330.957 258.655 330.957 L 264.763 331.684 Z " fill="rgb(248,170,133)"/><path d=" M 271.971 261.332 C 271.971 261.332 261.997 280.49 259.726 300.529 L 258.655 330.957 C 258.655 330.957 259.681 333.126 264.763 331.684 L 268.315 303.438 L 272.188 287.674 C 272.188 287.674 275.159 270.208 271.971 261.332 Z " fill="rgb(197,59,72)"/><path d=" M 283.62 436.313 C 283.62 444.483 257.609 451.106 225.524 451.106 C 193.439 451.106 167.429 444.483 167.429 436.313 C 167.429 428.143 193.439 421.52 225.524 421.52 C 257.609 421.52 283.62 428.143 283.62 436.313 Z " fill="rgb(177,180,180)"/><path d=" M 178.014 360.021 C 186.142 362.447 193.152 363.85 203.736 361.647 C 205.055 356.415 210.389 339.62 211.204 331.692 C 211.399 329.794 210.888 325.977 210.338 324.193 C 209.035 319.967 205.194 315.171 196.366 314.851 C 185.949 314.473 180.132 324.433 180.393 335.607 C 180.547 342.201 178.585 356.063 178.014 360.021 Z " fill="rgb(54,54,68)"/><path d=" M 227.895 403.24 C 210.578 379.959 203.56 354.099 203.56 354.099 L 203.585 376.575 C 203.585 376.575 218.356 401.313 223.498 406.824 C 225.548 406.824 227.895 405.901 227.895 403.24 Z " fill="rgb(246,149,59)"/><path d=" M 196.651 410.568 C 196.651 410.568 220.914 399.77 231.928 402.443 C 242.942 405.116 267.249 430.215 267.249 430.215 C 267.559 432.968 265.765 434.871 262.752 436.282 C 262.752 436.282 242.759 424.32 230.479 412.529 C 230.479 412.529 209.418 423.961 197.813 420.307 C 196.689 419.953 193.693 413.728 196.651 410.568 Z " fill="rgb(62,95,169)"/><path d=" M 262.528 436.243 C 262.528 436.243 262.735 436.986 263.746 437.797 C 264.757 438.606 268.321 441.304 268.321 441.304 L 281.971 424.284 C 281.971 424.284 279.37 422.097 276.227 423.118 C 273.083 424.139 271.812 428.563 267.049 429.946 C 267.049 429.946 267.144 431.415 262.528 436.243 Z " fill="rgb(222,220,219)"/><path d=" M 196.874 347.75 L 196.415 350.325 L 195.897 353.237 L 195.453 355.754 C 193.972 356.593 192.251 356.371 190.769 355.842 C 188.773 355.131 187.2 353.861 187.2 353.861 L 187.217 353.658 L 187.294 352.704 L 187.817 346.277 L 187.924 344.93 C 188.728 344.52 189.994 344.815 191.331 345.326 C 192.645 345.822 194.033 346.533 195.125 346.98 C 196.162 347.409 196.874 347.75 196.874 347.75 Z " fill="rgb(248,170,133)"/><path d=" M 196.873 347.752 L 195.898 353.238 C 192.265 351.925 189.759 346.37 189.759 346.37 L 195.126 346.98 C 196.165 347.408 196.873 347.752 196.873 347.752 Z " fill="rgb(236,141,106)"/><path d=" M 202.752 350.116 C 200.613 350.788 198.45 350.753 196.417 350.326 C 194.475 349.92 192.651 349.162 191.065 348.315 C 189.812 347.646 188.708 346.921 187.816 346.276 C 187.094 345.756 186.507 345.282 186.095 344.935 C 185.649 344.556 185.405 344.319 185.405 344.319 C 185.405 344.319 185.316 342.938 185.343 340.932 C 185.374 338.801 185.528 335.964 186.052 333.34 C 186.681 330.199 187.833 327.36 189.929 326.393 L 193.351 326.424 L 209.56 326.573 C 209.56 326.573 209.581 326.818 209.606 327.256 C 209.66 328.211 209.735 330.092 209.679 332.386 C 209.676 332.558 209.67 332.729 209.664 332.908 C 209.458 339.282 208.188 348.414 202.752 350.116 Z " fill="rgb(248,170,133)"/><path d=" M 187.245 347.629 C 186.798 347.25 185.405 344.32 185.405 344.32 C 185.405 344.32 185.316 342.938 185.344 340.932 L 186.802 341.748 C 186.802 341.748 188.812 346.469 187.245 347.629 Z " fill="rgb(54,54,68)"/><path d=" M 188.767 335.325 C 188.767 335.325 186.777 332.034 184.511 333.845 C 182.014 335.84 183.135 342.859 188.115 342.819 L 188.767 335.325 Z " fill="rgb(248,170,133)"/><path d=" M 209.605 327.257 C 209.556 329.35 205.889 331.443 192.494 331.564 C 192.494 331.564 192.49 337.736 189.852 337.175 C 189.225 337.04 188.606 333.508 186.052 333.338 C 186.68 330.198 187.834 327.36 189.929 326.393 L 209.561 326.573 C 209.561 326.573 209.581 326.818 209.605 327.257 Z " fill="rgb(54,54,68)"/><path d=" M 193.79 327.134 C 193.79 327.134 192.208 336.368 191.331 345.326 C 191.232 346.329 191.142 347.331 191.066 348.315 C 190.888 350.584 189.179 353.168 187.217 353.658 L 187.817 346.277 C 187.094 345.757 186.507 345.282 186.095 344.934 C 185.648 344.555 185.404 344.319 185.404 344.319 C 185.404 344.319 185.317 342.938 185.344 340.931 C 185.371 338.8 185.527 335.964 186.052 333.339 C 186.679 330.199 187.834 327.361 189.93 326.394 L 193.353 326.424 C 193.726 326.762 193.79 327.134 193.79 327.134 Z " fill="rgb(54,54,68)"/><path d=" M 176.74 412.43 C 176.74 412.43 207.038 409.858 218.269 411.378 C 229.5 412.898 256.271 435.352 256.271 435.352 C 256.863 438.058 255.275 440.136 252.425 441.851 C 252.425 441.851 231.303 432.019 217.871 421.56 C 217.871 421.56 194.647 433.496 182.56 432.116 C 173.049 431.031 174.196 416.395 176.74 412.43 Z " fill="rgb(62,109,179)"/><path d=" M 252.198 441.835 C 252.198 441.835 252.481 442.553 253.57 443.254 C 254.659 443.956 258.483 446.27 258.483 446.27 L 270.301 427.931 C 270.301 427.931 267.488 426.023 264.467 427.364 C 261.446 428.705 260.639 433.237 256.044 435.104 C 256.044 435.104 256.29 436.556 252.198 441.835 Z " fill="rgb(254,254,254)"/><path d=" M 202.83 391.563 C 202.375 399.486 203.835 404.08 206.101 410.887 C 192.713 415.639 186.59 417.47 175.509 415.675 C 175.12 409.164 174.029 397.829 174.217 391.004 C 174.784 370.712 177.088 357.684 177.088 357.684 L 182.661 355.53 L 188.37 353.323 L 198.056 353.815 L 200.094 353.92 L 203.56 354.099 C 203.56 354.099 204.003 363.983 207.069 372.468 C 209.563 379.366 206.702 380.753 205.139 382.396 L 204.963 382.588 C 204.741 382.843 204.559 383.104 204.432 383.4 C 204.393 383.49 204.355 383.587 204.317 383.689 C 204.222 383.947 204.128 384.239 204.042 384.553 C 203.287 387.237 202.83 391.563 202.83 391.563 Z " fill="rgb(245,176,63)"/><path d=" M 205.139 382.396 L 204.963 382.588 C 204.741 382.843 204.559 383.104 204.432 383.4 C 204.393 383.49 204.355 383.587 204.317 383.689 C 201.893 384.743 196.755 386.531 189.846 386.531 C 189.535 386.531 189.219 386.529 188.899 386.521 C 188.671 386.516 188.493 386.328 188.497 386.101 C 188.503 385.877 188.686 385.701 188.907 385.701 L 188.917 385.701 C 197.582 385.906 203.718 383.108 205.139 382.396 Z " fill="rgb(246,149,59)"/><path d=" M 198.056 353.816 C 197.682 357.471 197.737 363.596 193.134 363.716 C 187.6 363.859 183.894 357.871 182.661 355.531 L 188.37 353.324 L 198.056 353.816 Z " fill="rgb(248,170,133)"/><path d=" M 217.619 406.004 C 210.511 402.043 195.322 393.2 195.322 393.2 C 195.322 393.2 186.837 382.663 177.088 357.684 C 177.088 357.684 172.151 362.092 175.034 375.408 C 177.917 388.722 190.223 401.026 190.223 401.026 C 190.223 401.026 206.835 409.285 214.201 409.832 L 217.619 406.004 Z " fill="rgb(246,149,59)"/><path d=" M 246.878 409.756 L 198.517 414.595 C 197.453 414.701 196.504 413.925 196.397 412.86 L 196.388 412.766 C 196.281 411.701 197.058 410.753 198.122 410.646 L 246.483 405.808 C 247.548 405.701 248.497 406.478 248.603 407.542 L 248.613 407.637 C 248.719 408.7 247.943 409.649 246.878 409.756 Z " fill="rgb(222,220,219)"/><path d=" M 248.806 409.563 L 206.087 413.695 L 216.74 389.221 L 259.458 385.089 L 248.806 409.563 Z " fill="rgb(254,254,254)"/><path d=" M 246.149 409.821 L 246.146 409.829 L 203.429 413.961 L 214.08 389.486 L 216.737 389.229 L 206.087 413.695 L 246.149 409.821 Z " fill="rgb(222,220,219)"/><path d=" M 233.308 402.072 C 231.92 402.072 230.732 401.021 230.591 399.61 C 230.44 398.107 231.537 396.768 233.039 396.617 C 233.132 396.608 233.224 396.603 233.315 396.603 C 234.703 396.603 235.891 397.656 236.032 399.065 C 236.183 400.568 235.086 401.908 233.583 402.059 C 233.491 402.068 233.399 402.072 233.308 402.072 Z " fill="rgb(141,157,167)"/><path d=" M 166.682 124.189 L 168.473 72.084 C 168.473 72.084 163.894 70.864 158.12 70.233 C 157.75 70.193 157.378 70.156 156.999 70.122 C 153.391 69.787 149.42 69.718 145.854 70.324 L 145.314 70.415 L 133.852 72.367 L 135.067 124.189 L 166.682 124.189 Z " fill="rgb(238,76,72)"/><path d=" M 155.483 62.427 L 155.483 70.238 C 155.341 70.3 155.2 70.361 155.057 70.416 C 152.304 71.516 149.562 71.469 146.837 70.238 L 146.837 62.427 L 155.483 62.427 Z " fill="rgb(248,170,133)"/><path d=" M 155.483 64.32 L 155.483 70.238 C 155.341 70.3 155.2 70.361 155.057 70.416 C 151.833 70.072 148.794 68.435 146.837 67.142 L 146.837 64.32 L 155.483 64.32 Z " fill="rgb(236,141,106)"/><path d=" M 141.457 49.671 C 141.457 49.671 140.506 47.433 138.603 46.985 C 136.7 46.538 136.756 51.294 137.931 54.764 C 139.106 58.234 142.073 56.891 142.073 56.891 L 141.457 49.671 Z " fill="rgb(236,141,106)"/><path d=" M 160.831 49.671 C 160.831 49.671 161.782 47.433 163.685 46.985 C 165.587 46.538 165.532 51.294 164.356 54.764 C 163.181 58.234 160.215 56.891 160.215 56.891 L 160.831 49.671 Z " fill="rgb(236,141,106)"/><path d=" M 151.125 65.915 L 151.125 65.915 C 145.353 65.915 140.673 59.714 140.673 54.254 L 140.673 41.905 L 161.577 41.905 L 161.577 54.254 C 161.577 59.714 156.897 65.915 151.125 65.915 Z " fill="rgb(248,170,133)"/><path d=" M 140.673 50.888 C 140.673 50.888 137.101 45.515 139.587 41.905 C 139.587 41.905 138.062 38.822 139.587 35.884 C 141.112 32.945 147.557 29.565 156.54 31.328 C 165.522 33.091 163.825 39.723 162.701 41.569 C 162.701 41.569 164.935 45.683 161.577 50.888 C 161.577 50.888 159.609 48.202 160.215 42.493 C 160.215 42.493 150.216 45.347 142.073 41.905 C 142.073 41.905 143.192 48.537 140.673 50.888 Z " fill="rgb(54,54,68)"/><path d=" M 133.852 72.358 C 133.852 72.358 125.646 84.014 122.524 93.872 C 122.524 93.872 126.794 98.938 129.67 100.02 L 134.904 86.189 C 134.904 86.189 137.457 78.119 133.852 72.358 Z " fill="rgb(197,59,72)"/><path d=" M 129.67 100.02 C 129.67 100.02 133.541 106.528 140.844 117.854 L 136.777 120.778 L 123.347 105.756 C 121.432 104.098 120.411 101.422 121.026 98.965 L 122.524 93.872 C 122.524 93.872 127.944 95.899 129.67 100.02 Z " fill="rgb(197,59,72)"/><path d=" M 168.474 72.082 C 168.474 72.082 176.679 83.737 179.801 93.595 C 179.801 93.595 175.531 98.662 172.655 99.743 L 167.401 86.189 C 167.401 86.189 164.869 77.843 168.474 72.082 Z " fill="rgb(197,59,72)"/><path d=" M 172.655 99.743 C 172.655 99.743 168.785 106.252 161.481 117.577 L 165.548 120.502 L 178.979 105.48 C 180.894 103.821 181.915 101.146 181.299 98.688 L 179.801 93.595 C 179.801 93.595 174.381 95.622 172.655 99.743 Z " fill="rgb(197,59,72)"/><path d=" M 151.164 135.803 C 151.035 134.534 151.258 133.254 151.488 132 C 152.304 127.536 154.922 118.453 162.622 119.521 C 172.784 120.929 169.596 140.247 169.596 140.247 L 163.616 187.736 C 161.35 188.063 158.883 188.021 156.284 187.736 C 156.284 187.736 153.643 160.133 151.164 135.803 Z " fill="rgb(246,149,59)"/><path d=" M 120.63 119.434 C 120.63 119.434 130.141 133.58 140.68 139.103 C 151.945 145.005 156.999 134.042 156.999 134.042 C 156.999 134.042 131.918 116.257 120.63 119.434 Z " fill="rgb(246,149,59)"/><path d=" M 166.536 114.549 C 166.536 114.549 167.198 123.536 164.487 126.124 C 161.776 128.711 145.264 128.834 139.718 127.109 C 134.173 125.384 135.156 114.094 135.156 114.094 L 166.536 114.549 Z " fill="rgb(245,176,63)"/><path d=" M 170.248 116.613 L 131.378 116.613 L 127.789 95.628 C 127.479 93.81 128.878 92.151 130.722 92.151 L 170.865 92.151 C 172.708 92.151 174.108 93.81 173.797 95.628 L 170.248 116.613 Z " fill="rgb(254,254,254)"/><path d=" M 167.106 121.177 L 134.519 121.177 C 132.784 121.177 131.378 119.771 131.378 118.036 L 131.378 116.613 L 170.248 116.613 L 170.248 118.036 C 170.248 119.771 168.841 121.177 167.106 121.177 Z " fill="rgb(222,220,219)"/><path d=" M 151.187 108.621 C 149.324 108.621 147.814 107.111 147.814 105.248 C 147.814 103.385 149.324 101.875 151.187 101.875 C 153.05 101.875 154.56 103.385 154.56 105.248 C 154.56 107.111 153.05 108.621 151.187 108.621 Z " fill="rgb(141,157,167)"/><path d=" M 189.15 140.676 C 187.107 142.689 184.52 142.692 182.036 141.176 C 180.983 140.533 179.414 139.673 177.949 138.892 C 175.956 137.827 174.162 136.916 174.162 136.916 L 176.463 131.654 C 176.463 131.654 177.878 131.693 179.879 131.644 L 179.881 131.644 C 181.552 131.604 183.632 131.503 185.636 131.267 C 190.045 130.747 192.098 129.657 192.643 131.368 C 193.188 133.078 191.196 138.66 189.15 140.676 Z " fill="rgb(63,74,92)"/><path d=" M 134.239 108.635 C 134.239 108.635 126.612 104.043 120.165 108.521 C 113.717 112.997 120.538 121.431 127.587 124.292 C 134.637 127.152 176.226 138.67 176.226 138.67 C 176.958 137.167 177.579 134.404 178.189 131.534 C 178.189 131.534 165.808 124.512 158.851 120.033 C 143.006 109.833 134.239 108.635 134.239 108.635 Z " fill="rgb(245,176,63)"/><path d=" M 163.616 187.736 C 163.616 187.736 167.896 194.346 170.505 200.055 C 173.114 205.763 170.571 207.51 166.819 207.258 C 160.574 206.838 155.683 192.093 155.683 192.093 L 156.267 187.736 C 156.267 187.736 157.673 187.886 163.616 187.736 Z " fill="rgb(63,74,92)"/><path d=" M 348.727 94.93 C 350.824 91.407 354.279 87.597 352.777 83.49 C 352.72 83.332 352.662 83.175 352.605 83.018 C 348.473 71.563 338.643 63.732 328.207 68.217 C 319.365 72.018 317.35 78.402 317.69 83.207 C 317.835 85.237 319.1 88.873 320.197 90.638 C 321.075 92.05 321.93 93.413 322.76 94.728 C 325.291 98.737 329.203 101.416 333.529 102.474 C 338.973 100.745 343.985 98.067 348.727 94.93 Z " fill="rgb(54,54,68)"/><path d=" M 351.751 65.915 C 351.751 71.757 347.016 76.493 341.173 76.493 C 335.331 76.493 330.596 71.757 330.596 65.915 C 330.596 60.073 335.331 55.336 341.173 55.336 C 347.016 55.336 351.751 60.073 351.751 65.915 Z " fill="rgb(54,54,68)"/><path d=" M 294.959 123.039 C 294.959 123.039 305.54 136.004 328.974 138.808 L 328.978 138.8 L 328.978 138.797 C 332.688 134.658 336.815 124.95 339.563 116.885 C 340.592 113.872 340.651 112.11 339.768 110.247 C 338.902 108.421 337.373 106.985 335.525 106.169 C 335.105 105.984 334.702 105.977 334.327 106.755 C 333.478 108.517 332.632 110.594 331.668 112.622 C 328.741 118.773 326.439 124.456 325.026 128.134 L 325.024 128.134 C 324.891 128.076 319.303 125.722 311.433 124.827 C 303.626 123.94 297.302 118.881 297.302 118.881 L 294.959 123.039 Z " fill="rgb(62,95,169)"/><path d=" M 339.44 138.859 C 339.534 134.182 339.747 137.19 338.929 131.518 C 338.904 131.296 338.876 131.069 338.848 130.844 C 338.772 130.715 338.702 130.589 338.635 130.462 C 337.383 128.245 336.715 126.962 336.282 125.349 C 334.924 120.251 335.942 117.015 336.311 113.81 C 336.013 112.331 334.972 107.329 334.641 105.855 L 341.175 103.335 L 342.536 102.81 L 342.617 102.779 L 342.617 102.776 L 344.01 102.241 L 344.116 102.201 C 347.268 100.986 350.639 100.461 354.004 100.668 C 354.226 100.683 354.442 100.697 354.664 100.719 L 357.162 100.941 L 357.257 100.949 L 358.86 101.092 L 368.142 101.917 L 370.867 138.859 C 360.378 138.859 349.302 138.859 339.44 138.859 Z " fill="rgb(62,109,179)"/><path d=" M 358.858 101.091 C 355.828 107.199 348.407 114.024 344.605 111.918 C 342.267 110.625 341.311 106.378 341.173 103.334 L 342.535 102.811 L 342.618 102.78 L 342.618 102.777 L 344.01 102.241 L 344.115 102.2 C 347.268 100.985 350.641 100.462 354.005 100.669 C 354.119 100.685 354.235 100.7 354.35 100.716 C 354.455 100.729 354.56 100.742 354.663 100.754 L 357.162 100.941 L 357.258 100.949 L 358.858 101.091 Z " fill="rgb(248,170,133)"/><path d=" M 338.847 130.844 C 338.874 131.069 338.905 131.294 338.93 131.517 C 340.539 131.861 345.593 132.571 354.184 130.514 C 355.298 130.247 356.472 129.933 357.706 129.565 C 357.959 129.492 358.102 129.225 358.027 128.972 C 357.951 128.722 357.685 128.576 357.435 128.652 C 345.042 132.333 338.715 130.486 338.652 130.468 L 338.635 130.463 C 338.703 130.587 338.773 130.714 338.847 130.844 Z " fill="rgb(197,59,72)"/><path d=" M 340.948 98.941 L 342.459 101.357 L 344.166 104.09 L 345.641 106.45 C 347.478 106.698 349.126 105.774 350.411 104.634 C 352.139 103.103 353.209 101.181 353.209 101.181 L 349.502 93.766 L 348.844 92.448 C 347.864 92.359 346.707 93.172 345.563 94.232 C 344.437 95.272 343.323 96.552 342.401 97.45 C 341.525 98.304 340.948 98.941 340.948 98.941 Z " fill="rgb(248,170,133)"/><path d=" M 340.949 98.94 L 344.167 104.09 C 347.304 101.284 347.576 94.65 347.576 94.65 L 342.401 97.45 C 341.525 98.306 340.949 98.94 340.949 98.94 Z " fill="rgb(236,141,106)"/><path d=" M 351.145 90.808 C 351.145 90.808 350.992 91.143 350.695 91.707 C 350.42 92.228 350.02 92.942 349.503 93.765 L 349.503 93.768 C 348.862 94.78 348.04 95.962 347.05 97.147 L 347.048 97.15 C 345.787 98.65 344.255 100.158 342.46 101.357 C 340.575 102.615 338.405 103.53 335.968 103.723 C 329.78 104.215 324.785 95.502 321.98 89.145 C 321.9 88.965 321.825 88.79 321.75 88.615 C 320.76 86.322 320.075 84.395 319.74 83.408 C 319.588 82.953 319.51 82.695 319.51 82.695 L 335.832 75.953 L 339.277 74.527 C 341.317 74.63 343.232 76.232 344.905 78.395 C 345.032 78.56 345.16 78.73 345.285 78.902 L 345.473 79.165 C 345.657 79.428 345.84 79.695 346.02 79.97 C 346.12 80.123 346.22 80.277 346.317 80.433 C 346.61 80.897 346.893 81.373 347.165 81.853 C 348.25 83.77 349.155 85.75 349.827 87.357 C 350.67 89.373 351.145 90.808 351.145 90.808 Z " fill="rgb(248,170,133)"/><path d=" M 344.086 83.083 C 344.086 83.083 344.758 78.946 347.785 79.855 C 351.121 80.855 352.843 88.406 347.794 90.392 L 344.086 83.083 Z " fill="rgb(248,170,133)"/><path d=" M 344.018 84.275 C 344.938 87.07 344.515 91.438 344.515 91.438 C 342.688 87.303 340.78 84.357 340.44 83.84 L 340.41 83.795 L 340.385 83.76 C 339.433 82.395 338.787 80.797 338.787 80.797 C 325.2 86.125 320.643 85.502 319.74 83.408 C 319.588 82.953 319.508 82.697 319.508 82.697 L 339.277 74.527 C 341.787 74.652 344.11 77.053 346.02 79.97 C 344.265 80.815 344.135 82.94 344.018 84.275 Z " fill="rgb(54,54,68)"/><path d=" M 325.027 125.453 C 325.027 125.453 336.653 135.145 360.087 137.95 L 360.091 137.941 L 360.091 137.939 C 363.802 133.799 367.929 124.091 370.677 116.027 C 372.321 111.204 371.353 105.875 368.143 101.917 C 367.148 102.687 366.29 104.134 365.44 105.896 C 364.591 107.659 363.745 109.735 362.781 111.764 C 359.854 117.915 357.554 123.597 356.14 127.275 L 356.138 127.275 C 356.004 127.217 350.416 124.863 342.547 123.968 C 334.739 123.082 327.257 120.564 327.257 120.564 L 325.027 125.453 Z " fill="rgb(62,95,169)"/><path d=" M 327.257 120.564 C 327.257 120.564 321.012 115.158 317.655 115.591 C 314.299 116.024 311.807 119.059 311.59 121.443 C 311.373 123.827 314.438 123.526 317.009 122.944 C 319.579 122.362 325.027 125.453 325.027 125.453 C 325.027 125.453 326.885 123.479 327.257 120.564 Z " fill="rgb(248,170,133)"/><path d=" M 290.215 109.249 L 302.254 138.743 C 302.681 139.792 303.703 140.475 304.832 140.475 L 322.826 140.475 C 324.807 140.475 326.155 138.471 325.405 136.639 L 313.37 107.145 C 312.943 106.096 311.921 105.413 310.792 105.413 L 292.798 105.413 C 290.818 105.413 289.469 107.417 290.215 109.249 Z " fill="rgb(222,220,219)"/><path d=" M 290.215 109.249 L 302.254 138.743 C 302.681 139.792 303.703 140.475 304.832 140.475 L 319.474 140.475 C 321.453 140.475 322.803 138.471 322.052 136.639 L 310.018 107.145 C 309.59 106.096 308.568 105.413 307.438 105.413 L 292.798 105.413 C 290.818 105.413 289.469 107.417 290.215 109.249 Z " fill="rgb(254,254,254)"/><path d=" M 306.121 126.857 C 304.501 126.857 302.685 125.543 302.062 123.924 C 301.44 122.304 302.25 120.991 303.869 120.991 C 305.489 120.991 307.307 122.304 307.929 123.924 C 308.55 125.543 307.741 126.857 306.121 126.857 Z " fill="rgb(141,157,167)"/><path d=" M 293.277 120.783 C 293.277 120.783 291.929 117.762 293.36 116.954 L 294.578 119.938 C 294.578 119.938 297.224 117.547 299.063 118.712 C 300.9 119.877 303.86 126.231 302.935 127.935 C 302.008 129.639 296.876 131.141 295.047 129.017 C 293.217 126.893 292.602 122.721 293.277 120.783 Z " fill="rgb(248,170,133)"/><path d=" M 470.271 425.81 C 470.271 431.982 450.145 436.986 425.318 436.986 C 400.493 436.986 380.367 431.982 380.367 425.81 C 380.367 419.637 400.493 414.633 425.318 414.633 C 450.145 414.633 470.271 419.637 470.271 425.81 Z " fill="rgb(177,180,180)"/><path d=" M 380.367 323.266 C 380.367 323.266 404.184 320.645 422.42 320.645 C 440.656 320.645 470.271 323.266 470.271 323.266 C 470.271 323.266 450.954 333.01 425.318 333.01 C 399.684 333.01 380.367 323.266 380.367 323.266 Z " fill="rgb(62,95,169)"/><path d=" M 412.636 399.563 L 398.743 400.591 L 390.997 295.853 L 404.89 294.825 L 412.636 399.563 Z " fill="rgb(245,176,63)"/><path d=" M 404.89 294.827 L 390.997 295.854 L 394.84 285.606 L 396.831 280.303 L 399.581 285.256 L 404.89 294.827 Z " fill="rgb(248,170,133)"/><path d=" M 412.636 399.563 L 398.743 400.591 L 398.181 392.981 L 412.073 391.954 L 412.636 399.563 Z " fill="rgb(63,74,92)"/><path d=" M 411.888 405.718 L 400.389 406.568 C 399.728 406.617 399.152 406.12 399.104 405.459 L 398.743 400.591 L 412.636 399.563 L 412.996 404.433 C 413.045 405.094 412.549 405.669 411.888 405.718 Z " fill="rgb(238,76,72)"/><path d=" M 399.581 285.256 L 394.84 285.606 L 396.831 280.303 L 399.581 285.256 Z " fill="rgb(63,74,92)"/><path d=" M 397.777 387.524 L 411.67 386.497 L 412.073 391.954 L 398.181 392.981 L 397.777 387.524 Z " fill="rgb(246,149,59)"/><path d=" M 394.833 300.759 L 400.569 378.321 C 400.612 378.907 401.122 379.348 401.708 379.305 C 402.295 379.261 402.734 378.751 402.691 378.165 L 396.955 300.602 C 396.911 300.016 396.401 299.575 395.814 299.619 C 395.229 299.662 394.789 300.173 394.833 300.759 Z " fill="rgb(246,149,59)"/><path d=" M 400.267 300.352 L 406.003 377.915 C 406.046 378.501 406.557 378.941 407.143 378.897 C 407.729 378.854 408.169 378.344 408.125 377.758 L 402.389 300.194 C 402.346 299.608 401.835 299.169 401.249 299.212 C 400.663 299.256 400.224 299.766 400.267 300.352 Z " fill="rgb(246,149,59)"/><path d=" M 421.981 287.594 L 435.875 288.605 L 428.248 393.353 L 414.354 392.341 L 421.981 287.594 Z " fill="rgb(245,176,63)"/><path d=" M 414.354 392.339 L 428.249 393.351 L 422.951 402.928 L 420.207 407.884 L 418.209 402.583 L 414.354 392.339 Z " fill="rgb(248,170,133)"/><path d=" M 421.981 287.594 L 435.875 288.605 L 435.321 296.216 L 421.427 295.204 L 421.981 287.594 Z " fill="rgb(63,74,92)"/><path d=" M 423.62 281.615 L 435.12 282.452 C 435.781 282.501 436.278 283.076 436.229 283.737 L 435.875 288.605 L 421.981 287.594 L 422.336 282.725 C 422.384 282.063 422.959 281.566 423.62 281.615 Z " fill="rgb(238,76,72)"/><path d=" M 418.209 402.583 L 422.951 402.928 L 420.207 407.884 L 418.209 402.583 Z " fill="rgb(63,74,92)"/><path d=" M 434.924 301.674 L 421.029 300.662 L 421.427 295.204 L 435.321 296.216 L 434.924 301.674 Z " fill="rgb(246,149,59)"/><path d=" M 425.17 387.939 L 430.818 310.37 C 430.861 309.784 430.42 309.274 429.834 309.231 C 429.248 309.189 428.738 309.63 428.695 310.216 L 423.047 387.785 C 423.005 388.371 423.445 388.881 424.032 388.924 C 424.617 388.967 425.127 388.525 425.17 387.939 Z " fill="rgb(246,149,59)"/><path d=" M 419.734 387.549 L 425.383 309.979 C 425.426 309.393 424.985 308.884 424.399 308.841 C 423.813 308.798 423.303 309.238 423.261 309.825 L 417.612 387.395 C 417.569 387.98 418.011 388.49 418.597 388.533 C 419.183 388.575 419.692 388.135 419.734 387.549 Z " fill="rgb(246,149,59)"/><path d=" M 456.211 293.429 L 469.822 296.398 L 447.434 399.009 L 433.823 396.039 L 456.211 293.429 Z " fill="rgb(245,176,63)"/><path d=" M 433.823 396.037 L 447.435 399.007 L 440.834 407.737 L 437.415 412.254 L 436.188 406.724 L 433.823 396.037 Z " fill="rgb(248,170,133)"/><path d=" M 456.211 293.429 L 469.822 296.398 L 468.195 303.854 L 454.585 300.884 L 456.211 293.429 Z " fill="rgb(63,74,92)"/><path d=" M 458.681 287.742 L 469.945 290.2 C 470.594 290.342 471.004 290.981 470.862 291.629 L 469.822 296.398 L 456.211 293.429 L 457.252 288.659 C 457.394 288.011 458.033 287.601 458.681 287.742 Z " fill="rgb(238,76,72)"/><path d=" M 436.188 406.724 L 440.834 407.737 L 437.415 412.254 L 436.188 406.724 Z " fill="rgb(63,74,92)"/><path d=" M 467.028 309.199 L 453.418 306.229 L 454.585 300.884 L 468.195 303.854 L 467.028 309.199 Z " fill="rgb(246,149,59)"/><path d=" M 445.153 393.214 L 461.732 317.227 C 461.858 316.652 461.494 316.086 460.92 315.96 C 460.346 315.835 459.778 316.199 459.654 316.773 L 443.074 392.761 C 442.949 393.335 443.313 393.901 443.888 394.027 C 444.461 394.152 445.028 393.788 445.153 393.214 Z " fill="rgb(246,149,59)"/><path d=" M 439.828 392.058 L 456.408 316.069 C 456.533 315.496 456.169 314.929 455.595 314.804 C 455.021 314.678 454.453 315.042 454.329 315.616 L 437.749 391.604 C 437.624 392.178 437.988 392.745 438.562 392.87 C 439.136 392.995 439.703 392.632 439.828 392.058 Z " fill="rgb(246,149,59)"/><path d=" M 470.269 323.266 L 470.265 323.281 L 457.122 423.579 C 435.92 434.477 414.718 434.477 393.516 423.579 L 392.032 412.259 L 392.032 412.255 L 380.368 323.266 C 410.336 334.362 440.301 334.362 470.269 323.266 Z " fill="rgb(62,109,179)"/><path d=" M 470.265 323.281 L 457.122 423.579 C 435.92 434.477 414.718 434.477 393.516 423.579 L 392.032 412.259 L 392.032 412.255 C 392.032 412.255 414.843 425.508 433.823 414.554 C 454.568 402.583 470.009 324.524 470.265 323.281 Z " fill="rgb(62,95,169)"/></svg>