<!DOCTYPE svg PUBLIC "-//W3C//DTD SVG 20010904//EN" "http://www.w3.org/TR/2001/REC-SVG-20010904/DTD/svg10.dtd">
<svg version="1.0" xmlns="http://www.w3.org/2000/svg" width="500px" height="500px" viewBox="0 0 5000 5000" preserveAspectRatio="xMidYMid meet">
<g id="layer101" fill="#323666" stroke="none">
 <path d="M297 4949 c-94 -22 -188 -105 -224 -197 -17 -45 -18 -137 -21 -2227 -2 -2381 -6 -2232 53 -2325 31 -48 100 -105 156 -127 42 -17 166 -18 2244 -18 l2200 0 56 26 c79 37 131 88 165 161 l29 63 0 2200 0 2200 -29 62 c-33 72 -90 130 -162 164 l-49 24 -2190 2 c-1256 0 -2206 -3 -2228 -8z"/>
 </g>
<g id="layer102" fill="#78e18f" stroke="none">
 <path d="M1183 4041 c-141 -49 -224 -163 -224 -311 -1 -129 68 -243 179 -297 l57 -28 1120 0 1120 0 50 25 c64 32 125 93 156 155 20 42 24 64 24 145 0 83 -3 101 -27 145 -32 62 -103 129 -166 158 l-47 22 -1095 2 c-1033 2 -1098 2 -1147 -16z"/>
 <path d="M2205 3090 c-449 -36 -848 -159 -1135 -351 -114 -76 -273 -227 -335 -318 -83 -121 -112 -256 -80 -367 36 -125 123 -217 242 -254 153 -47 286 -5 448 142 79 71 137 110 244 163 415 205 1102 231 1583 59 164 -59 281 -132 424 -264 77 -71 133 -104 214 -125 227 -60 444 99 458 334 8 138 -42 249 -181 397 -96 102 -175 166 -309 248 -284 173 -647 287 -1043 326 -153 15 -408 19 -530 10z"/>
 <path d="M1228 1380 c-102 -18 -198 -94 -245 -196 -30 -67 -33 -171 -6 -247 24 -69 107 -157 175 -188 l53 -24 1079 -3 c1172 -3 1146 -4 1234 52 94 59 152 167 152 281 0 163 -111 294 -274 324 -70 13 -2093 13 -2168 1z"/>
 </g>
<g id="layer103" fill="#ffffff" stroke="none">
 <path d="M1203 4045 c-104 -28 -185 -102 -223 -201 -30 -80 -25 -186 12 -259 34 -65 110 -137 173 -161 48 -18 90 -19 1150 -19 1252 0 1152 -7 1251 87 73 69 99 130 99 238 0 73 -4 93 -28 142 -33 67 -90 121 -166 157 l-56 26 -1080 2 c-907 2 -1088 0 -1132 -12z"/>
 <path d="M1184 1366 c-63 -20 -131 -72 -169 -129 -108 -165 -50 -387 124 -476 77 -40 136 -42 1221 -39 l1045 3 53 22 c77 31 133 82 172 155 31 57 34 70 35 148 0 68 -5 96 -24 137 -26 59 -96 129 -162 165 l-44 23 -1105 2 c-880 1 -1113 -1 -1146 -11z"/>
 </g>

</svg>