<?xml version="1.0" standalone="no"?>
<!DOCTYPE svg PUBLIC "-//W3C//DTD SVG 20010904//EN"
 "http://www.w3.org/TR/2001/REC-SVG-20010904/DTD/svg10.dtd">
<svg version="1.0" xmlns="http://www.w3.org/2000/svg"
 width="500.000000pt" height="500.000000pt" viewBox="0 0 500.000000 500.000000"
 preserveAspectRatio="xMidYMid meet">
<metadata>
Created by potrace 1.11, written by Peter Selinger 2001-2013
</metadata>
<g transform="translate(0.000000,500.000000) scale(0.100000,-0.100000)"
fill="#000000" stroke="none">
<path d="M1295 4673 c-11 -1 -92 -4 -180 -7 -176 -4 -200 -7 -295 -38 -294
-95 -506 -313 -596 -613 -23 -77 -27 -110 -28 -225 0 -74 3 -175 7 -225 4 -49
10 -121 13 -160 2 -38 6 -92 9 -120 3 -27 7 -88 10 -135 3 -47 8 -107 10 -135
2 -27 6 -88 9 -135 4 -47 9 -110 11 -140 3 -30 8 -89 10 -130 5 -69 7 -102 20
-275 2 -33 7 -96 10 -140 3 -44 8 -111 11 -150 3 -38 7 -92 9 -120 2 -27 6
-86 9 -130 3 -44 8 -102 11 -130 3 -27 7 -88 10 -135 3 -47 8 -110 10 -140 2
-30 7 -91 10 -135 20 -287 125 -516 326 -712 150 -146 328 -241 534 -284 86
-18 146 -19 1290 -16 l1200 3 95 27 c193 56 347 145 486 281 84 83 176 208
215 294 41 90 58 132 53 132 -2 0 0 8 5 18 6 11 12 30 15 43 3 13 7 35 10 49
15 69 14 63 31 280 2 36 7 101 10 145 3 44 8 103 10 130 2 28 7 91 10 140 4
50 8 110 11 135 3 40 10 129 19 270 3 43 10 144 21 280 3 36 7 92 9 125 9 132
16 232 20 275 3 25 7 86 10 135 4 50 8 110 10 135 2 25 7 86 10 135 4 50 8
110 10 135 21 248 24 405 11 496 -55 384 -352 684 -747 754 -48 9 -432 12
-1400 13 -734 1 -1343 1 -1354 0z"/>
</g>
</svg>
