<?xml version="1.0" standalone="no"?>
<!DOCTYPE svg PUBLIC "-//W3C//DTD SVG 20010904//EN"
 "http://www.w3.org/TR/2001/REC-SVG-20010904/DTD/svg10.dtd">
<svg version="1.0" xmlns="http://www.w3.org/2000/svg"
 width="768.000000pt" height="768.000000pt" viewBox="0 0 768.000000 768.000000"
 preserveAspectRatio="xMidYMid meet">
<g transform="translate(0.000000,768.000000) scale(0.100000,-0.100000)"
fill="#000000" stroke="none" style="fill: #9e9d9d;">
<path d="M3900 6568 c-3 -3 -45 -8 -95 -11 -252 -16 -493 -119 -792 -339 -185
-136 -396 -364 -495 -535 -119 -207 -198 -490 -198 -713 0 -92 24 -255 51
-345 27 -93 28 -99 3 -101 -62 -4 -94 -17 -123 -49 -41 -47 -46 -70 -45 -210
1 -132 22 -237 89 -435 67 -198 163 -352 225 -362 21 -3 25 -14 46 -113 73
-356 237 -667 452 -858 l32 -29 0 -193 0 -192 -57 -26 c-32 -14 -110 -49 -173
-77 -510 -229 -1057 -427 -1490 -539 -97 -25 -249 -97 -299 -140 l-33 -29 20
-30 c29 -40 239 -241 348 -333 385 -325 826 -570 1302 -723 675 -217 1412
-242 2107 -70 719 179 1395 580 1891 1124 l123 135 -47 11 c-177 43 -654 202
-872 292 -14 6 -99 40 -190 75 -91 36 -250 99 -355 140 -217 86 -403 158 -457
178 -21 7 -39 15 -39 19 -1 3 -3 101 -4 217 l-2 213 49 57 c155 183 276 443
338 725 11 50 22 93 24 95 2 2 15 -2 30 -8 35 -16 97 11 135 60 108 137 226
494 238 721 7 135 -4 178 -63 237 l-46 45 16 72 c8 39 18 91 21 116 3 25 10
68 15 95 13 72 18 131 26 305 11 278 -21 481 -106 657 -79 162 -192 267 -334
308 -47 14 -60 24 -97 73 -181 241 -507 424 -849 477 -52 8 -314 18 -320 13z"/>
</g>
</svg>
