<!DOCTYPE svg PUBLIC "-//W3C//DTD SVG 20010904//EN" "http://www.w3.org/TR/2001/REC-SVG-20010904/DTD/svg10.dtd">
<svg version="1.0" xmlns="http://www.w3.org/2000/svg" width="1000px" height="200px" viewBox="0 0 10000 2000" preserveAspectRatio="xMidYMid meet">
<g id="layer101" fill="#333666" stroke="none">
<path d="M270 1803 c-8 -3 -27 -17 -42 -31 l-28 -26 0 -744 0 -744 29 -29 29 -29 744 0 c742 0 744 0 767 21 12 11 26 32 32 46 5 14 9 318 9 739 0 785 2 757 -60 789 -25 13 -124 15 -747 14 -395 0 -725 -3 -733 -6z"/>
<path d="M4390 1652 c0 -5 20 -60 45 -123 25 -63 45 -119 45 -125 0 -6 -61 -161 -135 -344 -74 -183 -135 -335 -135 -337 0 -1 33 -3 74 -3 l74 0 80 203 c44 111 88 228 98 260 10 31 21 54 25 50 3 -5 31 -75 61 -158 31 -82 73 -196 94 -252 l39 -103 73 0 c58 0 73 3 70 14 -2 8 -84 219 -183 470 l-180 456 -72 0 c-40 0 -73 -4 -73 -8z"/>
<path d="M3310 1449 c-109 -21 -206 -94 -257 -191 -23 -45 -27 -68 -31 -153 -3 -86 -1 -109 19 -160 74 -197 333 -288 543 -192 76 35 131 89 168 165 31 62 33 74 33 167 0 88 -3 107 -28 160 -35 75 -86 129 -157 165 -88 45 -190 59 -290 39z m183 -133 c135 -49 196 -206 133 -343 -85 -182 -374 -174 -452 12 -21 51 -21 149 0 200 49 115 194 175 319 131z"/>
<path d="M6273 1450 c-112 -24 -213 -101 -259 -198 -38 -81 -44 -195 -15 -290 94 -311 586 -334 724 -34 18 39 22 65 22 157 0 100 -2 115 -28 167 -36 74 -117 147 -193 177 -66 25 -186 35 -251 21z m212 -148 c84 -43 128 -117 127 -217 0 -33 -5 -73 -12 -90 -32 -84 -114 -144 -207 -152 -164 -15 -280 95 -271 255 6 108 59 182 154 218 53 20 158 13 209 -14z"/>
<path d="M7168 1450 c-159 -28 -262 -135 -289 -300 -22 -132 17 -257 106 -339 57 -52 110 -77 198 -91 110 -17 203 2 274 56 l33 25 0 -140 0 -141 70 0 70 0 0 460 0 460 -70 0 -70 0 0 -39 0 -40 -32 29 c-57 53 -186 79 -290 60z m193 -148 c66 -34 105 -88 120 -163 23 -117 -25 -224 -122 -273 -187 -93 -389 75 -339 283 36 153 201 226 341 153z"/>
<path d="M8055 1446 c-95 -23 -160 -67 -210 -140 -101 -148 -80 -373 46 -491 79 -74 124 -89 259 -90 103 0 121 3 170 26 121 57 189 158 198 294 l5 75 -302 0 c-338 0 -319 -5 -282 76 67 147 283 181 388 61 32 -36 34 -37 103 -37 38 0 70 3 70 8 0 4 -13 30 -30 58 -76 134 -250 201 -415 160z m315 -456 c0 -44 -78 -123 -137 -139 -85 -24 -191 -3 -246 47 -17 15 -57 83 -57 97 0 3 99 5 220 5 147 0 220 -3 220 -10z"/>
<path d="M9398 1450 c-65 -12 -136 -49 -165 -87 -21 -28 -53 -109 -53 -135 0 -4 31 -8 68 -8 67 0 69 0 83 32 23 54 70 78 151 78 72 0 97 -8 136 -43 22 -20 28 -50 16 -82 -11 -28 -65 -47 -176 -61 -59 -7 -127 -22 -151 -32 -107 -48 -145 -169 -87 -283 71 -138 379 -159 490 -33 26 30 50 88 50 122 0 8 -20 12 -68 12 -65 0 -68 -1 -78 -28 -15 -38 -68 -62 -141 -62 -93 0 -155 51 -139 114 10 40 46 57 148 66 164 16 251 58 284 137 33 77 5 188 -57 236 -67 49 -208 76 -311 57z"/>
<path d="M5298 1431 c-125 -41 -217 -120 -275 -237 -202 -410 231 -844 627 -628 89 48 183 170 206 267 l6 27 -71 0 -71 0 -14 -34 c-21 -50 -83 -114 -140 -144 -72 -37 -188 -38 -261 -2 -64 31 -134 101 -165 165 -35 74 -35 198 1 275 36 77 68 111 141 151 58 31 70 34 148 34 68 0 94 -5 132 -24 60 -29 120 -89 148 -147 l22 -44 69 0 69 0 -6 28 c-14 58 -77 162 -130 212 -30 28 -84 65 -120 82 -57 27 -81 32 -163 35 -74 2 -109 -1 -153 -16z"/>
</g>
<g id="layer102" fill="#545454" stroke="none">
<path d="M4390 1653 c0 -4 21 -61 46 -127 44 -112 46 -121 34 -155 -7 -20 -68 -173 -136 -340 -68 -167 -124 -306 -124 -308 0 -2 33 -3 73 -3 l74 0 80 203 c45 111 89 228 99 260 10 31 21 54 25 50 4 -5 30 -71 58 -148 28 -77 70 -189 94 -250 l43 -110 72 -3 c40 -2 72 1 72 5 0 4 -82 215 -183 468 l-183 460 -72 3 c-39 2 -72 -1 -72 -5z"/>
<path d="M529 1481 c-41 -42 -41 -107 0 -153 l29 -33 371 -3 c408 -3 415 -2 446 58 25 49 19 88 -19 126 l-34 34 -382 0 -382 0 -29 -29z"/>
<path d="M3310 1449 c-109 -21 -213 -101 -259 -198 -37 -79 -42 -221 -11 -303 75 -200 332 -291 546 -193 74 33 129 87 166 163 31 62 33 74 33 167 0 87 -4 107 -26 156 -76 162 -256 246 -449 208z m183 -133 c135 -49 196 -206 133 -343 -85 -182 -374 -174 -452 12 -22 52 -22 149 0 200 49 115 194 175 319 131z"/>
<path d="M6265 1446 c-77 -19 -142 -55 -191 -108 -60 -64 -85 -125 -91 -224 -14 -212 105 -360 320 -394 171 -27 345 56 414 199 25 51 28 66 28 166 0 92 -4 118 -22 157 -74 160 -274 249 -458 204z m210 -140 c92 -44 137 -116 137 -221 0 -136 -86 -230 -221 -242 -186 -17 -313 142 -261 327 36 129 212 199 345 136z"/>
<path d="M7168 1450 c-115 -21 -210 -90 -255 -187 -73 -158 -44 -345 72 -452 57 -53 110 -77 200 -91 97 -16 189 1 255 45 l50 34 0 -140 0 -139 70 0 70 0 0 460 0 460 -70 0 -70 0 0 -40 0 -41 -22 22 c-60 57 -194 88 -300 69z m191 -146 c116 -58 160 -200 105 -334 -21 -49 -51 -79 -109 -106 -121 -57 -253 -12 -316 107 -32 61 -33 175 -1 236 59 112 202 156 321 97z"/>
<path d="M8055 1447 c-78 -21 -127 -51 -183 -111 -67 -74 -87 -133 -86 -256 0 -82 4 -103 28 -157 33 -73 99 -139 172 -174 42 -20 65 -23 164 -24 99 0 122 3 164 23 125 57 195 160 204 297 l5 75 -302 0 c-338 0 -319 -5 -282 75 21 47 76 99 128 120 49 20 139 19 188 -4 22 -10 55 -34 72 -54 32 -36 34 -37 103 -37 38 0 70 4 70 8 0 23 -71 120 -107 148 -89 67 -234 98 -338 71z m310 -474 c-20 -50 -83 -109 -131 -122 -86 -24 -191 -4 -247 47 -17 15 -57 83 -57 96 0 3 100 7 223 9 122 1 223 3 225 5 1 1 -5 -15 -13 -35z"/>
<path d="M9401 1449 c-66 -11 -146 -53 -173 -92 -18 -25 -48 -106 -48 -129 0 -4 32 -8 70 -8 52 0 70 3 70 14 0 21 38 65 72 82 17 9 55 15 93 15 91 0 154 -35 155 -88 1 -60 -36 -81 -180 -98 -164 -21 -235 -64 -261 -158 -22 -82 18 -185 87 -226 168 -100 423 -41 463 106 18 63 17 63 -57 63 -65 0 -68 -1 -78 -28 -15 -38 -68 -62 -141 -62 -93 0 -155 51 -139 114 10 40 46 56 148 67 209 21 298 85 298 214 0 49 -20 108 -48 138 -28 31 -106 66 -173 77 -72 11 -83 11 -158 -1z"/>
<path d="M5298 1431 c-83 -27 -138 -63 -198 -128 -100 -109 -145 -256 -122 -395 53 -316 385 -489 664 -347 88 45 191 175 214 272 l6 27 -69 0 c-69 0 -69 0 -86 -35 -25 -53 -85 -114 -141 -143 -68 -36 -186 -38 -258 -5 -66 30 -133 96 -165 162 -24 48 -28 68 -28 142 0 79 3 92 35 155 60 118 174 182 305 171 110 -8 208 -75 255 -173 l22 -44 70 0 c80 0 79 -5 28 108 -53 114 -162 206 -284 238 -70 19 -180 17 -248 -5z"/>
<path d="M2180 975 l0 -465 70 0 70 0 0 185 0 185 190 0 190 0 0 -185 0 -185 70 0 70 0 0 465 0 465 -70 0 -70 0 0 -210 0 -210 -190 0 -190 0 0 210 0 210 -70 0 -70 0 0 -465z"/>
<path d="M3960 980 l0 -460 65 0 65 0 0 460 0 460 -65 0 -65 0 0 -460z"/>
<path d="M8680 1085 l0 -355 70 0 70 0 0 30 0 30 41 -29 c50 -37 131 -56 193 -47 l46 7 0 60 0 59 -60 0 c-68 0 -118 21 -162 67 -53 55 -58 83 -58 318 l0 215 -70 0 -70 0 0 -355z"/>
<path d="M835 1189 c-132 -19 -290 -85 -364 -152 -13 -12 -37 -42 -52 -66 -40 -63 -40 -118 2 -165 53 -61 120 -59 202 7 94 77 195 107 359 107 170 0 268 -29 363 -109 63 -52 111 -67 158 -47 51 21 77 60 77 115 0 50 -12 74 -69 134 -127 135 -423 212 -676 176z"/>
<path d="M564 630 c-67 -27 -87 -129 -35 -181 l29 -29 382 0 382 0 34 34 c52 52 44 128 -18 166 -31 19 -50 20 -393 19 -198 0 -370 -4 -381 -9z"/>
</g>
<g id="layer103" fill="#78e08f" stroke="none">
<path d="M534 1476 c-58 -58 -42 -141 32 -172 52 -22 713 -20 759 2 70 33 83 129 24 178 l-31 26 -375 0 -375 0 -34 -34z"/>
<path d="M780 1175 c-131 -28 -230 -75 -306 -147 -67 -63 -92 -122 -76 -177 30 -97 136 -112 227 -32 84 74 191 105 360 105 171 0 262 -27 355 -104 25 -20 55 -42 67 -48 52 -28 131 -4 158 48 62 119 -84 267 -335 340 -96 29 -349 37 -450 15z"/>
<path d="M564 626 c-42 -19 -64 -52 -64 -99 0 -31 7 -46 34 -73 l34 -34 374 0 c409 0 401 -1 433 60 20 38 19 65 -2 101 -34 57 -47 59 -430 59 -270 -1 -355 -4 -379 -14z"/>
</g>
<g id="layer104" fill="#ffffff" stroke="none">
<path d="M570 1503 c-53 -20 -82 -89 -60 -144 24 -58 33 -59 437 -59 408 0 401 -1 429 65 19 46 2 100 -39 125 -30 19 -52 20 -392 19 -198 0 -367 -3 -375 -6z"/>
<path d="M537 606 c-52 -48 -46 -124 12 -163 34 -23 36 -23 390 -23 319 0 360 2 391 18 47 23 66 77 46 126 -28 67 -20 66 -437 66 l-376 0 -26 -24z"/>
</g>


</svg>